<ttFont>
    <TTGlyph name=".notdef" xMin="177" yMin="0" xMax="1593" yMax="1416">
      <contour>
        <pt x="559" y="252" on="1"/>
        <pt x="883" y="605" on="1"/>
        <pt x="1220" y="252" on="1"/>
        <pt x="1333" y="365" on="1"/>
        <pt x="985" y="708" on="1"/>
        <pt x="1333" y="1042" on="1"/>
        <pt x="1214" y="1158" on="1"/>
        <pt x="886" y="807" on="1"/>
        <pt x="553" y="1159" on="1"/>
        <pt x="439" y="1043" on="1"/>
        <pt x="783" y="705" on="1"/>
        <pt x="440" y="387" on="1"/>
      </contour>
      <contour>
        <pt x="177" y="1416" on="1"/>
        <pt x="1593" y="1416" on="1"/>
        <pt x="1593" y="0" on="1"/>
        <pt x="177" y="0" on="1"/>
      </contour>
    </TTGlyph>
    <TTGlyph name="A" xMin="-42" yMin="0" xMax="1474" yMax="1529">
      <contour>
        <pt x="-42" y="134" on="1"/>
        <pt x="78" y="160" on="1"/>
        <pt x="540" y="1529" on="1"/>
        <pt x="893" y="1529" on="1"/>
        <pt x="1358" y="159" on="1"/>
        <pt x="1474" y="134" on="1"/>
        <pt x="1474" y="0" on="1"/>
        <pt x="841" y="0" on="1"/>
        <pt x="841" y="134" on="1"/>
        <pt x="985" y="160" on="1"/>
        <pt x="913" y="407" on="1"/>
        <pt x="410" y="407" on="1"/>
        <pt x="340" y="156" on="1"/>
        <pt x="499" y="134" on="1"/>
        <pt x="499" y="0" on="1"/>
        <pt x="-40" y="0" on="1"/>
      </contour>
      <contour>
        <pt x="453" y="561" on="1"/>
        <pt x="868" y="561" on="1"/>
        <pt x="687" y="1180" on="1"/>
        <pt x="656" y="1321" on="1"/>
        <pt x="625" y="1180" on="1"/>
      </contour>
    </TTGlyph>
    <TTGlyph name="AE" xMin="-165" yMin="0" xMax="1924" yMax="1522">
      <contour>
        <pt x="656" y="132" on="1"/>
        <pt x="813" y="157" on="1"/>
        <pt x="813" y="419" on="1"/>
        <pt x="344" y="419" on="1"/>
        <pt x="247" y="158" on="1"/>
        <pt x="396" y="132" on="1"/>
        <pt x="396" y="0" on="1"/>
        <pt x="-165" y="0" on="1"/>
        <pt x="-165" y="132" on="1"/>
        <pt x="-21" y="160" on="1"/>
        <pt x="479" y="1353" on="1"/>
        <pt x="226" y="1381" on="1"/>
        <pt x="226" y="1522" on="1"/>
        <pt x="1761" y="1522" on="1"/>
        <pt x="1789" y="1168" on="1"/>
        <pt x="1627" y="1168" on="1"/>
        <pt x="1557" y="1368" on="1"/>
        <pt x="1150" y="1387" on="1"/>
        <pt x="1150" y="854" on="1"/>
        <pt x="1405" y="861" on="1"/>
        <pt x="1440" y="1024" on="1"/>
        <pt x="1587" y="1024" on="1"/>
        <pt x="1587" y="519" on="1"/>
        <pt x="1441" y="519" on="1"/>
        <pt x="1406" y="691" on="1"/>
        <pt x="1150" y="697" on="1"/>
        <pt x="1150" y="145" on="1"/>
        <pt x="1606" y="172" on="1"/>
        <pt x="1739" y="430" on="1"/>
        <pt x="1924" y="377" on="1"/>
        <pt x="1854" y="0" on="1"/>
        <pt x="656" y="0" on="1"/>
      </contour>
      <contour>
        <pt x="403" y="578" on="1"/>
        <pt x="813" y="578" on="1"/>
        <pt x="813" y="1373" on="1"/>
        <pt x="701" y="1373" on="1"/>
        <pt x="597" y="1097" on="1"/>
      </contour>
    </TTGlyph>
    <TTGlyph name="AEacute" xMin="-165" yMin="0" xMax="1924" yMax="2014">
      <component glyphName="acute.cap" x="422" y="0" flags="0x4"/>
      <component glyphName="AE" x="0" y="0" flags="0x4"/>
    </TTGlyph>
    <TTGlyph name="Aacute" xMin="-38" yMin="0" xMax="1478" yMax="2014">
      <component glyphName="A" x="4" y="0" flags="0x204"/>
      <component glyphName="acute.cap" x="152" y="0" flags="0x4"/>
    </TTGlyph>
    <TTGlyph name="Abreve" xMin="-38" yMin="0" xMax="1478" yMax="2004">
      <component glyphName="A" x="4" y="0" flags="0x204"/>
      <component glyphName="breve.cap" x="217" y="0" flags="0x4"/>
    </TTGlyph>
    <TTGlyph name="Acircumflex" xMin="-38" yMin="0" xMax="1478" yMax="2008">
      <component glyphName="A" x="4" y="0" flags="0x204"/>
      <component glyphName="circumflex.cap" x="199" y="0" flags="0x4"/>
    </TTGlyph>
    <TTGlyph name="Adieresis" xMin="-38" yMin="0" xMax="1478" yMax="1997">
      <component glyphName="A" x="4" y="0" flags="0x204"/>
      <component glyphName="dieresis.cap" x="217" y="0" flags="0x4"/>
    </TTGlyph>
    <TTGlyph name="Agrave" xMin="-38" yMin="0" xMax="1478" yMax="2014">
      <component glyphName="A" x="4" y="0" flags="0x204"/>
      <component glyphName="grave.cap" x="276" y="0" flags="0x4"/>
    </TTGlyph>
    <TTGlyph name="Amacron" xMin="-38" yMin="0" xMax="1478" yMax="1915">
      <component glyphName="A" x="4" y="0" flags="0x204"/>
      <component glyphName="macron.cap" x="383" y="0" flags="0x4"/>
    </TTGlyph>
    <TTGlyph name="Aogonek" xMin="-42" yMin="-513" xMax="1474" yMax="1529">
      <contour>
        <pt x="-42" y="134" on="1"/>
        <pt x="78" y="160" on="1"/>
        <pt x="540" y="1529" on="1"/>
        <pt x="893" y="1529" on="1"/>
        <pt x="1358" y="159" on="1"/>
        <pt x="1474" y="134" on="1"/>
        <pt x="1474" y="0" on="1"/>
        <pt x="1345" y="0" on="1"/>
        <pt x="1297" y="-19" on="0"/>
        <pt x="1216" y="-73" on="0"/>
        <pt x="1158" y="-134" on="0"/>
        <pt x="1126" y="-197" on="0"/>
        <pt x="1126" y="-225" on="1"/>
        <pt x="1126" y="-277" on="0"/>
        <pt x="1206" y="-330" on="0"/>
        <pt x="1271" y="-330" on="1"/>
        <pt x="1306" y="-330" on="0"/>
        <pt x="1362" y="-318" on="0"/>
        <pt x="1396" y="-304" on="1"/>
        <pt x="1396" y="-445" on="1"/>
        <pt x="1375" y="-461" on="0"/>
        <pt x="1314" y="-486" on="0"/>
        <pt x="1246" y="-504" on="0"/>
        <pt x="1175" y="-513" on="0"/>
        <pt x="1144" y="-513" on="1"/>
        <pt x="1084" y="-513" on="0"/>
        <pt x="982" y="-487" on="0"/>
        <pt x="906" y="-435" on="0"/>
        <pt x="863" y="-359" on="0"/>
        <pt x="863" y="-309" on="1"/>
        <pt x="863" y="-265" on="0"/>
        <pt x="909" y="-173" on="0"/>
        <pt x="988" y="-90" on="0"/>
        <pt x="1096" y="-21" on="0"/>
        <pt x="1159" y="0" on="1"/>
        <pt x="841" y="0" on="1"/>
        <pt x="841" y="134" on="1"/>
        <pt x="985" y="160" on="1"/>
        <pt x="913" y="407" on="1"/>
        <pt x="410" y="407" on="1"/>
        <pt x="340" y="156" on="1"/>
        <pt x="499" y="134" on="1"/>
        <pt x="499" y="0" on="1"/>
        <pt x="-40" y="0" on="1"/>
      </contour>
      <contour>
        <pt x="453" y="561" on="1"/>
        <pt x="868" y="561" on="1"/>
        <pt x="687" y="1180" on="1"/>
        <pt x="656" y="1321" on="1"/>
        <pt x="625" y="1180" on="1"/>
      </contour>
    </TTGlyph>
    <TTGlyph name="Aring" xMin="-42" yMin="0" xMax="1474" yMax="2014">
      <component glyphName="A" x="0" y="0" flags="0x204"/>
      <component glyphName="ring.cap" x="273" y="0" flags="0x4"/>
    </TTGlyph>
    <TTGlyph name="Atilde" xMin="-38" yMin="0" xMax="1478" yMax="2009">
      <component glyphName="A" x="4" y="0" flags="0x204"/>
      <component glyphName="tilde.cap" x="217" y="0" flags="0x4"/>
    </TTGlyph>
    <TTGlyph name="B" xMin="77" yMin="-12" xMax="1395" yMax="1535">
      <contour>
        <pt x="77" y="134" on="1"/>
        <pt x="233" y="160" on="1"/>
        <pt x="233" y="1353" on="1"/>
        <pt x="79" y="1381" on="1"/>
        <pt x="79" y="1522" on="1"/>
        <pt x="393" y="1522" on="1"/>
        <pt x="441" y="1522" on="0"/>
        <pt x="525" y="1526" on="0"/>
        <pt x="603" y="1531" on="0"/>
        <pt x="678" y="1535" on="0"/>
        <pt x="717" y="1535" on="1"/>
        <pt x="883" y="1535" on="0"/>
        <pt x="1103" y="1488" on="0"/>
        <pt x="1235" y="1398" on="0"/>
        <pt x="1289" y="1270" on="0"/>
        <pt x="1289" y="1189" on="1"/>
        <pt x="1289" y="1111" on="0"/>
        <pt x="1240" y="984" on="0"/>
        <pt x="1153" y="888" on="0"/>
        <pt x="1033" y="826" on="0"/>
        <pt x="962" y="815" on="1"/>
        <pt x="1059" y="816" on="0"/>
        <pt x="1219" y="769" on="0"/>
        <pt x="1333" y="678" on="0"/>
        <pt x="1395" y="544" on="0"/>
        <pt x="1395" y="459" on="1"/>
        <pt x="1395" y="362" on="0"/>
        <pt x="1333" y="190" on="0"/>
        <pt x="1183" y="62" on="0"/>
        <pt x="930" y="-12" on="0"/>
        <pt x="740" y="-12" on="1"/>
        <pt x="687" y="-12" on="0"/>
        <pt x="606" y="-8" on="0"/>
        <pt x="531" y="-4" on="0"/>
        <pt x="451" y="0" on="0"/>
        <pt x="399" y="0" on="1"/>
        <pt x="77" y="0" on="1"/>
      </contour>
      <contour>
        <pt x="567" y="146" on="1"/>
        <pt x="577" y="140" on="0"/>
        <pt x="614" y="133" on="0"/>
        <pt x="658" y="129" on="0"/>
        <pt x="707" y="128" on="0"/>
        <pt x="729" y="128" on="1"/>
        <pt x="810" y="128" on="0"/>
        <pt x="923" y="170" on="0"/>
        <pt x="994" y="249" on="0"/>
        <pt x="1026" y="362" on="0"/>
        <pt x="1026" y="433" on="1"/>
        <pt x="1026" y="509" on="0"/>
        <pt x="993" y="615" on="0"/>
        <pt x="924" y="681" on="0"/>
        <pt x="818" y="711" on="0"/>
        <pt x="745" y="711" on="1"/>
        <pt x="722" y="711" on="0"/>
        <pt x="671" y="711" on="0"/>
        <pt x="623" y="710" on="0"/>
        <pt x="581" y="709" on="0"/>
        <pt x="567" y="708" on="1"/>
      </contour>
      <contour>
        <pt x="568" y="868" on="1"/>
        <pt x="582" y="866" on="0"/>
        <pt x="622" y="865" on="0"/>
        <pt x="666" y="864" on="0"/>
        <pt x="710" y="864" on="0"/>
        <pt x="728" y="864" on="1"/>
        <pt x="789" y="864" on="0"/>
        <pt x="875" y="902" on="0"/>
        <pt x="930" y="976" on="0"/>
        <pt x="955" y="1081" on="0"/>
        <pt x="955" y="1149" on="1"/>
        <pt x="955" y="1277" on="0"/>
        <pt x="841" y="1399" on="0"/>
        <pt x="707" y="1399" on="1"/>
        <pt x="690" y="1399" on="0"/>
        <pt x="649" y="1397" on="0"/>
        <pt x="610" y="1394" on="0"/>
        <pt x="577" y="1390" on="0"/>
        <pt x="568" y="1389" on="1"/>
      </contour>
    </TTGlyph>
    <TTGlyph name="C" xMin="55" yMin="-23" xMax="1284" yMax="1538">
      <contour>
        <pt x="800" y="-23" on="1"/>
        <pt x="615" y="-23" on="0"/>
        <pt x="336" y="84" on="0"/>
        <pt x="149" y="284" on="0"/>
        <pt x="55" y="571" on="0"/>
        <pt x="55" y="750" on="1"/>
        <pt x="55" y="937" on="0"/>
        <pt x="171" y="1230" on="0"/>
        <pt x="374" y="1432" on="0"/>
        <pt x="651" y="1538" on="0"/>
        <pt x="813" y="1538" on="1"/>
        <pt x="886" y="1538" on="0"/>
        <pt x="1028" y="1523" on="0"/>
        <pt x="1153" y="1505" on="0"/>
        <pt x="1252" y="1488" on="0"/>
        <pt x="1283" y="1485" on="1"/>
        <pt x="1259" y="1039" on="1"/>
        <pt x="1045" y="1039" on="1"/>
        <pt x="975" y="1341" on="1"/>
        <pt x="960" y="1361" on="0"/>
        <pt x="872" y="1393" on="0"/>
        <pt x="788" y="1393" on="1"/>
        <pt x="709" y="1393" on="0"/>
        <pt x="580" y="1316" on="0"/>
        <pt x="489" y="1163" on="0"/>
        <pt x="439" y="933" on="0"/>
        <pt x="439" y="780" on="1"/>
        <pt x="439" y="643" on="0"/>
        <pt x="482" y="404" on="0"/>
        <pt x="572" y="226" on="0"/>
        <pt x="709" y="123" on="0"/>
        <pt x="804" y="123" on="1"/>
        <pt x="847" y="123" on="0"/>
        <pt x="910" y="135" on="0"/>
        <pt x="955" y="154" on="0"/>
        <pt x="984" y="177" on="0"/>
        <pt x="994" y="189" on="1"/>
        <pt x="1090" y="410" on="1"/>
        <pt x="1284" y="392" on="1"/>
        <pt x="1246" y="56" on="1"/>
        <pt x="1198" y="51" on="0"/>
        <pt x="1115" y="26" on="0"/>
        <pt x="1016" y="-2" on="0"/>
        <pt x="890" y="-23" on="0"/>
      </contour>
    </TTGlyph>
    <TTGlyph name="Cacute" xMin="55" yMin="-23" xMax="1284" yMax="2014">
      <component glyphName="C" x="0" y="0" flags="0x204"/>
      <component glyphName="acute.cap" x="214" y="0" flags="0x4"/>
    </TTGlyph>
    <TTGlyph name="Ccaron" xMin="55" yMin="-23" xMax="1284" yMax="2014">
      <component glyphName="C" x="0" y="0" flags="0x204"/>
      <component glyphName="caron.cap" x="454" y="0" flags="0x4"/>
    </TTGlyph>
    <TTGlyph name="Ccedilla" xMin="55" yMin="-520" xMax="1284" yMax="1538">
      <component glyphName="C" x="0" y="0" flags="0x204"/>
      <component glyphName="cedilla" x="477" y="0" flags="0x4"/>
    </TTGlyph>
    <TTGlyph name="Ccircumflex" xMin="55" yMin="-23" xMax="1284" yMax="2008">
      <component glyphName="C" x="0" y="0" flags="0x204"/>
      <component glyphName="circumflex.cap" x="262" y="0" flags="0x4"/>
    </TTGlyph>
    <TTGlyph name="Cdotaccent" xMin="55" yMin="-23" xMax="1284" yMax="1998">
      <component glyphName="dotaccent.cap" x="497" y="0" flags="0x4"/>
      <component glyphName="C" x="0" y="0" flags="0x4"/>
    </TTGlyph>
    <TTGlyph name="D" xMin="77" yMin="-20" xMax="1506" yMax="1535">
      <contour>
        <pt x="77" y="134" on="1"/>
        <pt x="233" y="159" on="1"/>
        <pt x="233" y="1353" on="1"/>
        <pt x="84" y="1381" on="1"/>
        <pt x="84" y="1522" on="1"/>
        <pt x="395" y="1522" on="1"/>
        <pt x="443" y="1522" on="0"/>
        <pt x="530" y="1526" on="0"/>
        <pt x="615" y="1531" on="0"/>
        <pt x="703" y="1535" on="0"/>
        <pt x="752" y="1535" on="1"/>
        <pt x="944" y="1535" on="0"/>
        <pt x="1228" y="1438" on="0"/>
        <pt x="1414" y="1252" on="0"/>
        <pt x="1506" y="984" on="0"/>
        <pt x="1506" y="813" on="1"/>
        <pt x="1506" y="630" on="0"/>
        <pt x="1398" y="323" on="0"/>
        <pt x="1195" y="101" on="0"/>
        <pt x="907" y="-20" on="0"/>
        <pt x="727" y="-16" on="1"/>
        <pt x="687" y="-15" on="0"/>
        <pt x="598" y="-10" on="0"/>
        <pt x="512" y="-4" on="0"/>
        <pt x="433" y="0" on="0"/>
        <pt x="403" y="0" on="1"/>
        <pt x="77" y="0" on="1"/>
      </contour>
      <contour>
        <pt x="568" y="151" on="1"/>
        <pt x="603" y="138" on="0"/>
        <pt x="690" y="131" on="0"/>
        <pt x="740" y="132" on="1"/>
        <pt x="830" y="133" on="0"/>
        <pt x="977" y="208" on="0"/>
        <pt x="1080" y="362" on="0"/>
        <pt x="1137" y="598" on="0"/>
        <pt x="1137" y="762" on="1"/>
        <pt x="1137" y="906" on="0"/>
        <pt x="1088" y="1140" on="0"/>
        <pt x="984" y="1305" on="0"/>
        <pt x="820" y="1394" on="0"/>
        <pt x="705" y="1394" on="1"/>
        <pt x="650" y="1394" on="0"/>
        <pt x="584" y="1381" on="0"/>
        <pt x="568" y="1378" on="1"/>
      </contour>
    </TTGlyph>
    <TTGlyph name="Dcaron" xMin="77" yMin="-20" xMax="1506" yMax="2014">
      <component glyphName="caron.cap" x="463" y="0" flags="0x4"/>
      <component glyphName="D" x="0" y="0" flags="0x4"/>
    </TTGlyph>
    <TTGlyph name="Dcroat" xMin="77" yMin="-20" xMax="1506" yMax="1535">
      <contour>
        <pt x="78" y="856" on="1"/>
        <pt x="233" y="856" on="1"/>
        <pt x="233" y="1353" on="1"/>
        <pt x="84" y="1381" on="1"/>
        <pt x="84" y="1522" on="1"/>
        <pt x="395" y="1522" on="1"/>
        <pt x="443" y="1522" on="0"/>
        <pt x="530" y="1526" on="0"/>
        <pt x="615" y="1531" on="0"/>
        <pt x="703" y="1535" on="0"/>
        <pt x="752" y="1535" on="1"/>
        <pt x="944" y="1535" on="0"/>
        <pt x="1228" y="1438" on="0"/>
        <pt x="1414" y="1252" on="0"/>
        <pt x="1506" y="984" on="0"/>
        <pt x="1506" y="813" on="1"/>
        <pt x="1506" y="630" on="0"/>
        <pt x="1398" y="323" on="0"/>
        <pt x="1195" y="101" on="0"/>
        <pt x="907" y="-20" on="0"/>
        <pt x="727" y="-16" on="1"/>
        <pt x="687" y="-15" on="0"/>
        <pt x="598" y="-10" on="0"/>
        <pt x="512" y="-4" on="0"/>
        <pt x="433" y="0" on="0"/>
        <pt x="403" y="0" on="1"/>
        <pt x="77" y="0" on="1"/>
        <pt x="77" y="134" on="1"/>
        <pt x="233" y="159" on="1"/>
        <pt x="233" y="705" on="1"/>
        <pt x="78" y="705" on="1"/>
      </contour>
      <contour>
        <pt x="568" y="856" on="1"/>
        <pt x="842" y="856" on="1"/>
        <pt x="842" y="705" on="1"/>
        <pt x="568" y="705" on="1"/>
        <pt x="568" y="151" on="1"/>
        <pt x="603" y="138" on="0"/>
        <pt x="690" y="131" on="0"/>
        <pt x="740" y="132" on="1"/>
        <pt x="830" y="133" on="0"/>
        <pt x="977" y="208" on="0"/>
        <pt x="1080" y="362" on="0"/>
        <pt x="1137" y="598" on="0"/>
        <pt x="1137" y="762" on="1"/>
        <pt x="1137" y="906" on="0"/>
        <pt x="1088" y="1140" on="0"/>
        <pt x="984" y="1305" on="0"/>
        <pt x="820" y="1394" on="0"/>
        <pt x="705" y="1394" on="1"/>
        <pt x="650" y="1394" on="0"/>
        <pt x="584" y="1381" on="0"/>
        <pt x="568" y="1378" on="1"/>
      </contour>
    </TTGlyph>
    <TTGlyph name="Delta" xMin="143" yMin="1" xMax="1626" yMax="1516">
      <contour>
        <pt x="143" y="34" on="1"/>
        <pt x="829" y="1516" on="1"/>
        <pt x="874" y="1516" on="1"/>
        <pt x="1626" y="37" on="1"/>
        <pt x="1605" y="1" on="1"/>
        <pt x="162" y="1" on="1"/>
      </contour>
      <contour>
        <pt x="1199" y="200" on="1"/>
        <pt x="786" y="1042" on="1"/>
        <pt x="413" y="200" on="1"/>
      </contour>
    </TTGlyph>
    <TTGlyph name="Deltagreek" xMin="143" yMin="1" xMax="1626" yMax="1516">
      <component glyphName="Delta" x="0" y="0" flags="0x204"/>
    </TTGlyph>
    <TTGlyph name="E" xMin="74" yMin="0" xMax="1318" yMax="1522">
      <contour>
        <pt x="77" y="134" on="1"/>
        <pt x="233" y="159" on="1"/>
        <pt x="233" y="1352" on="1"/>
        <pt x="74" y="1381" on="1"/>
        <pt x="74" y="1522" on="1"/>
        <pt x="1181" y="1522" on="1"/>
        <pt x="1209" y="1169" on="1"/>
        <pt x="1046" y="1169" on="1"/>
        <pt x="976" y="1367" on="1"/>
        <pt x="572" y="1387" on="1"/>
        <pt x="572" y="855" on="1"/>
        <pt x="826" y="861" on="1"/>
        <pt x="863" y="1026" on="1"/>
        <pt x="1009" y="1026" on="1"/>
        <pt x="1009" y="517" on="1"/>
        <pt x="863" y="517" on="1"/>
        <pt x="828" y="693" on="1"/>
        <pt x="572" y="699" on="1"/>
        <pt x="572" y="145" on="1"/>
        <pt x="1022" y="172" on="1"/>
        <pt x="1147" y="430" on="1"/>
        <pt x="1318" y="381" on="1"/>
        <pt x="1266" y="0" on="1"/>
        <pt x="77" y="0" on="1"/>
      </contour>
    </TTGlyph>
    <TTGlyph name="Eacute" xMin="74" yMin="0" xMax="1318" yMax="2014">
      <component glyphName="acute.cap" x="111" y="0" flags="0x4"/>
      <component glyphName="E" x="0" y="0" flags="0x4"/>
    </TTGlyph>
    <TTGlyph name="Ebreve" xMin="74" yMin="0" xMax="1318" yMax="2004">
      <component glyphName="breve.cap" x="188" y="0" flags="0x4"/>
      <component glyphName="E" x="0" y="0" flags="0x4"/>
    </TTGlyph>
    <TTGlyph name="Ecaron" xMin="74" yMin="0" xMax="1318" yMax="2014">
      <component glyphName="caron.cap" x="365" y="0" flags="0x4"/>
      <component glyphName="E" x="0" y="0" flags="0x4"/>
    </TTGlyph>
    <TTGlyph name="Ecircumflex" xMin="74" yMin="0" xMax="1318" yMax="2008">
      <component glyphName="E" x="0" y="0" flags="0x204"/>
      <component glyphName="circumflex.cap" x="171" y="0" flags="0x4"/>
    </TTGlyph>
    <TTGlyph name="Edieresis" xMin="74" yMin="0" xMax="1318" yMax="1997">
      <component glyphName="dieresis.cap" x="188" y="0" flags="0x4"/>
      <component glyphName="E" x="0" y="0" flags="0x4"/>
    </TTGlyph>
    <TTGlyph name="Edotaccent" xMin="74" yMin="0" xMax="1318" yMax="1998">
      <component glyphName="dotaccent.cap" x="407" y="0" flags="0x4"/>
      <component glyphName="E" x="0" y="0" flags="0x4"/>
    </TTGlyph>
    <TTGlyph name="Egrave" xMin="74" yMin="0" xMax="1318" yMax="2014">
      <component glyphName="grave.cap" x="216" y="0" flags="0x4"/>
      <component glyphName="E" x="0" y="0" flags="0x4"/>
    </TTGlyph>
    <TTGlyph name="Emacron" xMin="74" yMin="0" xMax="1318" yMax="1915">
      <component glyphName="macron.cap" x="358" y="0" flags="0x4"/>
      <component glyphName="E" x="0" y="0" flags="0x4"/>
    </TTGlyph>
    <TTGlyph name="Eng" xMin="69" yMin="-397" xMax="1627" yMax="1522">
      <contour>
        <pt x="69" y="132" on="1"/>
        <pt x="245" y="158" on="1"/>
        <pt x="245" y="1365" on="1"/>
        <pt x="69" y="1399" on="1"/>
        <pt x="69" y="1522" on="1"/>
        <pt x="573" y="1522" on="1"/>
        <pt x="1132" y="639" on="1"/>
        <pt x="1266" y="369" on="1"/>
        <pt x="1266" y="1355" on="1"/>
        <pt x="1086" y="1384" on="1"/>
        <pt x="1086" y="1522" on="1"/>
        <pt x="1627" y="1522" on="1"/>
        <pt x="1627" y="1384" on="1"/>
        <pt x="1457" y="1355" on="1"/>
        <pt x="1457" y="430" on="1"/>
        <pt x="1457" y="326" on="0"/>
        <pt x="1440" y="165" on="0"/>
        <pt x="1411" y="41" on="0"/>
        <pt x="1373" y="-51" on="0"/>
        <pt x="1331" y="-121" on="0"/>
        <pt x="1288" y="-174" on="0"/>
        <pt x="1269" y="-197" on="1"/>
        <pt x="1183" y="-292" on="0"/>
        <pt x="993" y="-384" on="0"/>
        <pt x="893" y="-397" on="1"/>
        <pt x="827" y="-289" on="1"/>
        <pt x="919" y="-262" on="0"/>
        <pt x="1058" y="-157" on="0"/>
        <pt x="1106" y="-82" on="1"/>
        <pt x="1117" y="-64" on="0"/>
        <pt x="1140" y="-18" on="0"/>
        <pt x="1150" y="7" on="1"/>
        <pt x="549" y="960" on="1"/>
        <pt x="437" y="1192" on="1"/>
        <pt x="437" y="158" on="1"/>
        <pt x="630" y="132" on="1"/>
        <pt x="630" y="0" on="1"/>
        <pt x="69" y="0" on="1"/>
      </contour>
    </TTGlyph>
    <TTGlyph name="Eogonek" xMin="74" yMin="-513" xMax="1318" yMax="1522">
      <contour>
        <pt x="77" y="134" on="1"/>
        <pt x="233" y="159" on="1"/>
        <pt x="233" y="1352" on="1"/>
        <pt x="74" y="1381" on="1"/>
        <pt x="74" y="1522" on="1"/>
        <pt x="1181" y="1522" on="1"/>
        <pt x="1209" y="1169" on="1"/>
        <pt x="1046" y="1169" on="1"/>
        <pt x="976" y="1367" on="1"/>
        <pt x="572" y="1387" on="1"/>
        <pt x="572" y="855" on="1"/>
        <pt x="826" y="861" on="1"/>
        <pt x="863" y="1026" on="1"/>
        <pt x="1009" y="1026" on="1"/>
        <pt x="1009" y="517" on="1"/>
        <pt x="863" y="517" on="1"/>
        <pt x="828" y="693" on="1"/>
        <pt x="572" y="699" on="1"/>
        <pt x="572" y="145" on="1"/>
        <pt x="1022" y="172" on="1"/>
        <pt x="1147" y="430" on="1"/>
        <pt x="1318" y="381" on="1"/>
        <pt x="1266" y="0" on="1"/>
        <pt x="1256" y="0" on="1"/>
        <pt x="1205" y="-11" on="0"/>
        <pt x="1114" y="-62" on="0"/>
        <pt x="1046" y="-125" on="0"/>
        <pt x="1006" y="-193" on="0"/>
        <pt x="1006" y="-220" on="1"/>
        <pt x="1006" y="-274" on="0"/>
        <pt x="1077" y="-330" on="0"/>
        <pt x="1139" y="-330" on="1"/>
        <pt x="1174" y="-330" on="0"/>
        <pt x="1227" y="-318" on="0"/>
        <pt x="1261" y="-304" on="1"/>
        <pt x="1261" y="-445" on="1"/>
        <pt x="1240" y="-461" on="0"/>
        <pt x="1180" y="-486" on="0"/>
        <pt x="1113" y="-504" on="0"/>
        <pt x="1043" y="-513" on="0"/>
        <pt x="1012" y="-513" on="1"/>
        <pt x="952" y="-513" on="0"/>
        <pt x="852" y="-487" on="0"/>
        <pt x="780" y="-435" on="0"/>
        <pt x="739" y="-359" on="0"/>
        <pt x="739" y="-309" on="1"/>
        <pt x="739" y="-265" on="0"/>
        <pt x="779" y="-176" on="0"/>
        <pt x="854" y="-94" on="0"/>
        <pt x="962" y="-24" on="0"/>
        <pt x="1031" y="0" on="1"/>
        <pt x="77" y="0" on="1"/>
      </contour>
    </TTGlyph>
    <TTGlyph name="Eth" xMin="77" yMin="-20" xMax="1506" yMax="1535">
      <contour>
        <pt x="91" y="860" on="1"/>
        <pt x="233" y="860" on="1"/>
        <pt x="233" y="1353" on="1"/>
        <pt x="84" y="1381" on="1"/>
        <pt x="84" y="1522" on="1"/>
        <pt x="395" y="1522" on="1"/>
        <pt x="443" y="1522" on="0"/>
        <pt x="530" y="1526" on="0"/>
        <pt x="615" y="1531" on="0"/>
        <pt x="703" y="1535" on="0"/>
        <pt x="752" y="1535" on="1"/>
        <pt x="944" y="1535" on="0"/>
        <pt x="1228" y="1438" on="0"/>
        <pt x="1414" y="1252" on="0"/>
        <pt x="1506" y="984" on="0"/>
        <pt x="1506" y="813" on="1"/>
        <pt x="1506" y="630" on="0"/>
        <pt x="1398" y="323" on="0"/>
        <pt x="1195" y="101" on="0"/>
        <pt x="907" y="-20" on="0"/>
        <pt x="727" y="-16" on="1"/>
        <pt x="687" y="-15" on="0"/>
        <pt x="598" y="-10" on="0"/>
        <pt x="512" y="-4" on="0"/>
        <pt x="433" y="0" on="0"/>
        <pt x="403" y="0" on="1"/>
        <pt x="77" y="0" on="1"/>
        <pt x="77" y="134" on="1"/>
        <pt x="233" y="159" on="1"/>
        <pt x="233" y="718" on="1"/>
        <pt x="91" y="718" on="1"/>
      </contour>
      <contour>
        <pt x="568" y="860" on="1"/>
        <pt x="855" y="860" on="1"/>
        <pt x="855" y="718" on="1"/>
        <pt x="568" y="718" on="1"/>
        <pt x="568" y="151" on="1"/>
        <pt x="603" y="138" on="0"/>
        <pt x="690" y="131" on="0"/>
        <pt x="740" y="132" on="1"/>
        <pt x="830" y="133" on="0"/>
        <pt x="977" y="208" on="0"/>
        <pt x="1080" y="362" on="0"/>
        <pt x="1137" y="598" on="0"/>
        <pt x="1137" y="762" on="1"/>
        <pt x="1137" y="906" on="0"/>
        <pt x="1088" y="1140" on="0"/>
        <pt x="984" y="1305" on="0"/>
        <pt x="820" y="1394" on="0"/>
        <pt x="705" y="1394" on="1"/>
        <pt x="650" y="1394" on="0"/>
        <pt x="584" y="1381" on="0"/>
        <pt x="568" y="1378" on="1"/>
      </contour>
    </TTGlyph>
    <TTGlyph name="Euro" xMin="55" yMin="-28" xMax="1398" yMax="1541">
      <contour>
        <pt x="55" y="669" on="1"/>
        <pt x="234" y="669" on="1"/>
        <pt x="233" y="684" on="0"/>
        <pt x="233" y="714" on="0"/>
        <pt x="233" y="730" on="1"/>
        <pt x="233" y="811" on="0"/>
        <pt x="242" y="886" on="1"/>
        <pt x="72" y="886" on="1"/>
        <pt x="72" y="1026" on="1"/>
        <pt x="269" y="1026" on="1"/>
        <pt x="302" y="1150" on="0"/>
        <pt x="425" y="1342" on="0"/>
        <pt x="598" y="1473" on="0"/>
        <pt x="817" y="1541" on="0"/>
        <pt x="945" y="1541" on="1"/>
        <pt x="1034" y="1541" on="0"/>
        <pt x="1172" y="1517" on="0"/>
        <pt x="1281" y="1487" on="0"/>
        <pt x="1364" y="1460" on="0"/>
        <pt x="1398" y="1457" on="1"/>
        <pt x="1375" y="1088" on="1"/>
        <pt x="1198" y="1088" on="1"/>
        <pt x="1135" y="1332" on="1"/>
        <pt x="1122" y="1349" on="0"/>
        <pt x="1076" y="1373" on="0"/>
        <pt x="1019" y="1389" on="0"/>
        <pt x="955" y="1396" on="0"/>
        <pt x="924" y="1396" on="1"/>
        <pt x="793" y="1396" on="0"/>
        <pt x="640" y="1216" on="0"/>
        <pt x="614" y="1026" on="1"/>
        <pt x="1065" y="1026" on="1"/>
        <pt x="1065" y="886" on="1"/>
        <pt x="601" y="886" on="1"/>
        <pt x="599" y="861" on="0"/>
        <pt x="599" y="809" on="0"/>
        <pt x="599" y="782" on="1"/>
        <pt x="599" y="752" on="0"/>
        <pt x="600" y="696" on="0"/>
        <pt x="601" y="669" on="1"/>
        <pt x="1038" y="669" on="1"/>
        <pt x="1038" y="527" on="1"/>
        <pt x="613" y="527" on="1"/>
        <pt x="641" y="314" on="0"/>
        <pt x="799" y="106" on="0"/>
        <pt x="935" y="106" on="1"/>
        <pt x="997" y="106" on="0"/>
        <pt x="1101" y="142" on="0"/>
        <pt x="1144" y="190" on="1"/>
        <pt x="1237" y="385" on="1"/>
        <pt x="1393" y="358" on="1"/>
        <pt x="1371" y="61" on="1"/>
        <pt x="1338" y="59" on="0"/>
        <pt x="1251" y="31" on="0"/>
        <pt x="1133" y="-1" on="0"/>
        <pt x="980" y="-28" on="0"/>
        <pt x="882" y="-28" on="1"/>
        <pt x="754" y="-28" on="0"/>
        <pt x="542" y="49" on="0"/>
        <pt x="381" y="192" on="0"/>
        <pt x="274" y="398" on="0"/>
        <pt x="250" y="527" on="1"/>
        <pt x="55" y="527" on="1"/>
      </contour>
    </TTGlyph>
    <TTGlyph name="F" xMin="73" yMin="0" xMax="1235" yMax="1522">
      <contour>
        <pt x="77" y="134" on="1"/>
        <pt x="233" y="159" on="1"/>
        <pt x="233" y="1353" on="1"/>
        <pt x="73" y="1381" on="1"/>
        <pt x="73" y="1522" on="1"/>
        <pt x="1212" y="1522" on="1"/>
        <pt x="1235" y="1145" on="1"/>
        <pt x="1054" y="1145" on="1"/>
        <pt x="975" y="1363" on="1"/>
        <pt x="572" y="1386" on="1"/>
        <pt x="572" y="824" on="1"/>
        <pt x="842" y="828" on="1"/>
        <pt x="885" y="1006" on="1"/>
        <pt x="1034" y="1006" on="1"/>
        <pt x="1034" y="473" on="1"/>
        <pt x="886" y="473" on="1"/>
        <pt x="842" y="655" on="1"/>
        <pt x="572" y="663" on="1"/>
        <pt x="572" y="160" on="1"/>
        <pt x="875" y="134" on="1"/>
        <pt x="875" y="0" on="1"/>
        <pt x="77" y="0" on="1"/>
      </contour>
    </TTGlyph>
    <TTGlyph name="G" xMin="66" yMin="-23" xMax="1491" yMax="1541">
      <contour>
        <pt x="800" y="-23" on="1"/>
        <pt x="623" y="-23" on="0"/>
        <pt x="349" y="95" on="0"/>
        <pt x="162" y="301" on="0"/>
        <pt x="66" y="582" on="0"/>
        <pt x="66" y="745" on="1"/>
        <pt x="66" y="935" on="0"/>
        <pt x="180" y="1231" on="0"/>
        <pt x="388" y="1435" on="0"/>
        <pt x="681" y="1541" on="0"/>
        <pt x="860" y="1541" on="1"/>
        <pt x="941" y="1541" on="0"/>
        <pt x="1101" y="1526" on="0"/>
        <pt x="1239" y="1505" on="0"/>
        <pt x="1345" y="1483" on="0"/>
        <pt x="1372" y="1477" on="1"/>
        <pt x="1348" y="1088" on="1"/>
        <pt x="1114" y="1088" on="1"/>
        <pt x="1053" y="1349" on="1"/>
        <pt x="1046" y="1356" on="0"/>
        <pt x="1019" y="1375" on="0"/>
        <pt x="971" y="1392" on="0"/>
        <pt x="900" y="1403" on="0"/>
        <pt x="851" y="1403" on="1"/>
        <pt x="758" y="1403" on="0"/>
        <pt x="612" y="1324" on="0"/>
        <pt x="510" y="1168" on="0"/>
        <pt x="456" y="936" on="0"/>
        <pt x="456" y="783" on="1"/>
        <pt x="456" y="643" on="0"/>
        <pt x="498" y="401" on="0"/>
        <pt x="589" y="222" on="0"/>
        <pt x="731" y="120" on="0"/>
        <pt x="831" y="120" on="1"/>
        <pt x="865" y="120" on="0"/>
        <pt x="933" y="129" on="0"/>
        <pt x="992" y="146" on="0"/>
        <pt x="1040" y="172" on="0"/>
        <pt x="1056" y="189" on="1"/>
        <pt x="1056" y="610" on="1"/>
        <pt x="863" y="633" on="1"/>
        <pt x="863" y="783" on="1"/>
        <pt x="1491" y="783" on="1"/>
        <pt x="1491" y="633" on="1"/>
        <pt x="1387" y="614" on="1"/>
        <pt x="1387" y="82" on="1"/>
        <pt x="1347" y="80" on="0"/>
        <pt x="1231" y="47" on="0"/>
        <pt x="1082" y="8" on="0"/>
        <pt x="902" y="-23" on="0"/>
      </contour>
    </TTGlyph>
    <TTGlyph name="Gbreve" xMin="71" yMin="-23" xMax="1496" yMax="2004">
      <component glyphName="breve.cap" x="319" y="0" flags="0x4"/>
      <component glyphName="G" x="5" y="0" flags="0x4"/>
    </TTGlyph>
    <TTGlyph name="Gcaron" xMin="66" yMin="-23" xMax="1491" yMax="2014">
      <component glyphName="G" x="0" y="0" flags="0x204"/>
      <component glyphName="caron.cap" x="521" y="0" flags="0x4"/>
    </TTGlyph>
    <TTGlyph name="Gcircumflex" xMin="71" yMin="-23" xMax="1496" yMax="2008">
      <component glyphName="G" x="5" y="0" flags="0x4"/>
      <component glyphName="circumflex.cap" x="309" y="0" flags="0x4"/>
    </TTGlyph>
    <TTGlyph name="Gcommaaccent" xMin="71" yMin="-560" xMax="1496" yMax="1541">
      <component glyphName="commaaccent" x="458" y="0" flags="0x4"/>
      <component glyphName="G" x="5" y="0" flags="0x4"/>
    </TTGlyph>
    <TTGlyph name="Gdotaccent" xMin="71" yMin="-23" xMax="1496" yMax="1998">
      <component glyphName="dotaccent.cap" x="546" y="0" flags="0x4"/>
      <component glyphName="G" x="5" y="0" flags="0x4"/>
    </TTGlyph>
    <TTGlyph name="H" xMin="81" yMin="0" xMax="1635" yMax="1522">
      <contour>
        <pt x="81" y="134" on="1"/>
        <pt x="233" y="159" on="1"/>
        <pt x="233" y="1353" on="1"/>
        <pt x="85" y="1381" on="1"/>
        <pt x="85" y="1522" on="1"/>
        <pt x="737" y="1522" on="1"/>
        <pt x="737" y="1381" on="1"/>
        <pt x="570" y="1353" on="1"/>
        <pt x="570" y="861" on="1"/>
        <pt x="1145" y="861" on="1"/>
        <pt x="1145" y="1352" on="1"/>
        <pt x="990" y="1381" on="1"/>
        <pt x="990" y="1522" on="1"/>
        <pt x="1635" y="1522" on="1"/>
        <pt x="1635" y="1381" on="1"/>
        <pt x="1483" y="1353" on="1"/>
        <pt x="1483" y="159" on="1"/>
        <pt x="1635" y="134" on="1"/>
        <pt x="1635" y="0" on="1"/>
        <pt x="992" y="0" on="1"/>
        <pt x="992" y="134" on="1"/>
        <pt x="1145" y="160" on="1"/>
        <pt x="1145" y="692" on="1"/>
        <pt x="570" y="692" on="1"/>
        <pt x="570" y="160" on="1"/>
        <pt x="737" y="134" on="1"/>
        <pt x="737" y="0" on="1"/>
        <pt x="81" y="0" on="1"/>
      </contour>
    </TTGlyph>
    <TTGlyph name="Hbar" xMin="54" yMin="0" xMax="1680" yMax="1522">
      <contour>
        <pt x="54" y="1135" on="1"/>
        <pt x="233" y="1135" on="1"/>
        <pt x="233" y="1352" on="1"/>
        <pt x="76" y="1381" on="1"/>
        <pt x="76" y="1522" on="1"/>
        <pt x="736" y="1522" on="1"/>
        <pt x="736" y="1381" on="1"/>
        <pt x="571" y="1353" on="1"/>
        <pt x="571" y="1135" on="1"/>
        <pt x="1146" y="1135" on="1"/>
        <pt x="1146" y="1352" on="1"/>
        <pt x="991" y="1381" on="1"/>
        <pt x="991" y="1522" on="1"/>
        <pt x="1640" y="1522" on="1"/>
        <pt x="1640" y="1381" on="1"/>
        <pt x="1483" y="1353" on="1"/>
        <pt x="1483" y="1135" on="1"/>
        <pt x="1680" y="1135" on="1"/>
        <pt x="1680" y="1002" on="1"/>
        <pt x="1483" y="1002" on="1"/>
        <pt x="1483" y="160" on="1"/>
        <pt x="1639" y="134" on="1"/>
        <pt x="1639" y="0" on="1"/>
        <pt x="992" y="0" on="1"/>
        <pt x="992" y="134" on="1"/>
        <pt x="1146" y="160" on="1"/>
        <pt x="1146" y="588" on="1"/>
        <pt x="571" y="588" on="1"/>
        <pt x="571" y="160" on="1"/>
        <pt x="736" y="134" on="1"/>
        <pt x="736" y="0" on="1"/>
        <pt x="75" y="0" on="1"/>
        <pt x="75" y="134" on="1"/>
        <pt x="233" y="160" on="1"/>
        <pt x="233" y="1002" on="1"/>
        <pt x="54" y="1002" on="1"/>
      </contour>
      <contour>
        <pt x="1146" y="756" on="1"/>
        <pt x="1146" y="1002" on="1"/>
        <pt x="571" y="1002" on="1"/>
        <pt x="571" y="756" on="1"/>
      </contour>
    </TTGlyph>
    <TTGlyph name="Hcircumflex" xMin="81" yMin="0" xMax="1635" yMax="2008">
      <component glyphName="H" x="0" y="0" flags="0x204"/>
      <component glyphName="circumflex.cap" x="333" y="0" flags="0x4"/>
    </TTGlyph>
    <TTGlyph name="I" xMin="89" yMin="0" xMax="765" yMax="1522">
      <contour>
        <pt x="91" y="134" on="1"/>
        <pt x="256" y="160" on="1"/>
        <pt x="256" y="1352" on="1"/>
        <pt x="89" y="1381" on="1"/>
        <pt x="89" y="1522" on="1"/>
        <pt x="763" y="1522" on="1"/>
        <pt x="763" y="1381" on="1"/>
        <pt x="595" y="1353" on="1"/>
        <pt x="595" y="160" on="1"/>
        <pt x="765" y="132" on="1"/>
        <pt x="765" y="0" on="1"/>
        <pt x="91" y="0" on="1"/>
      </contour>
    </TTGlyph>
    <TTGlyph name="I.uc" xMin="89" yMin="0" xMax="765" yMax="1998">
      <component glyphName="I" x="0" y="0" flags="0x204"/>
      <component glyphName="dotaccent.cap" x="134" y="0" flags="0x4"/>
    </TTGlyph>
    <TTGlyph name="IJ" xMin="89" yMin="-393" xMax="1606" yMax="1522">
      <component glyphName="I" x="0" y="0" flags="0x4"/>
      <component glyphName="J" x="850" y="0" flags="0x4"/>
    </TTGlyph>
    <TTGlyph name="IJ_acutecomb" xMin="89" yMin="-393" xMax="1632" yMax="2014">
      <component glyphName="I" x="0" y="0" flags="0x4"/>
      <component glyphName="acute.cap" x="695" y="0" flags="0x4"/>
      <component glyphName="J" x="850" y="0" flags="0x4"/>
      <component glyphName="acute.cap" x="-148" y="0" flags="0x4"/>
    </TTGlyph>
    <TTGlyph name="Iacute" xMin="89" yMin="0" xMax="802" yMax="2014">
      <component glyphName="I" x="0" y="0" flags="0x204"/>
      <component glyphName="acute.cap" x="-135" y="0" flags="0x4"/>
    </TTGlyph>
    <TTGlyph name="Ibreve" xMin="51" yMin="0" xMax="802" yMax="2004">
      <component glyphName="I" x="0" y="0" flags="0x204"/>
      <component glyphName="breve.cap" x="-85" y="0" flags="0x4"/>
    </TTGlyph>
    <TTGlyph name="Icircumflex" xMin="23" yMin="0" xMax="824" yMax="2008">
      <component glyphName="I" x="0" y="0" flags="0x204"/>
      <component glyphName="circumflex.cap" x="-102" y="0" flags="0x4"/>
    </TTGlyph>
    <TTGlyph name="Idieresis" xMin="-9" yMin="0" xMax="859" yMax="1997">
      <component glyphName="I" x="0" y="0" flags="0x204"/>
      <component glyphName="dieresis.cap" x="-85" y="0" flags="0x4"/>
    </TTGlyph>
    <TTGlyph name="Idotaccent" xMin="89" yMin="0" xMax="765" yMax="1998">
      <component glyphName="I" x="0" y="0" flags="0x204"/>
      <component glyphName="dotaccent.cap" x="134" y="0" flags="0x4"/>
    </TTGlyph>
    <TTGlyph name="Igrave" xMin="51" yMin="0" xMax="765" yMax="2014">
      <component glyphName="I" x="0" y="0" flags="0x204"/>
      <component glyphName="grave.cap" x="-62" y="0" flags="0x4"/>
    </TTGlyph>
    <TTGlyph name="Imacron" xMin="89" yMin="0" xMax="765" yMax="1915">
      <component glyphName="I" x="0" y="0" flags="0x204"/>
      <component glyphName="macron.cap" x="84" y="0" flags="0x4"/>
    </TTGlyph>
    <TTGlyph name="Iogonek" xMin="89" yMin="-513" xMax="765" yMax="1522">
      <contour>
        <pt x="91" y="134" on="1"/>
        <pt x="256" y="160" on="1"/>
        <pt x="256" y="1352" on="1"/>
        <pt x="89" y="1381" on="1"/>
        <pt x="89" y="1522" on="1"/>
        <pt x="763" y="1522" on="1"/>
        <pt x="763" y="1381" on="1"/>
        <pt x="595" y="1353" on="1"/>
        <pt x="595" y="160" on="1"/>
        <pt x="765" y="132" on="1"/>
        <pt x="765" y="0" on="1"/>
        <pt x="588" y="0" on="1"/>
        <pt x="544" y="-19" on="0"/>
        <pt x="472" y="-73" on="0"/>
        <pt x="420" y="-134" on="0"/>
        <pt x="391" y="-195" on="0"/>
        <pt x="391" y="-220" on="1"/>
        <pt x="391" y="-274" on="0"/>
        <pt x="468" y="-330" on="0"/>
        <pt x="538" y="-330" on="1"/>
        <pt x="556" y="-330" on="0"/>
        <pt x="585" y="-327" on="0"/>
        <pt x="613" y="-321" on="0"/>
        <pt x="641" y="-311" on="0"/>
        <pt x="658" y="-304" on="1"/>
        <pt x="658" y="-445" on="1"/>
        <pt x="636" y="-461" on="0"/>
        <pt x="576" y="-486" on="0"/>
        <pt x="508" y="-504" on="0"/>
        <pt x="437" y="-513" on="0"/>
        <pt x="406" y="-513" on="1"/>
        <pt x="346" y="-513" on="0"/>
        <pt x="243" y="-487" on="0"/>
        <pt x="167" y="-435" on="0"/>
        <pt x="124" y="-359" on="0"/>
        <pt x="124" y="-309" on="1"/>
        <pt x="124" y="-265" on="0"/>
        <pt x="165" y="-176" on="0"/>
        <pt x="236" y="-94" on="0"/>
        <pt x="334" y="-24" on="0"/>
        <pt x="391" y="0" on="1"/>
        <pt x="91" y="0" on="1"/>
      </contour>
    </TTGlyph>
    <TTGlyph name="Itilde" xMin="-40" yMin="0" xMax="890" yMax="2009">
      <component glyphName="I" x="0" y="0" flags="0x204"/>
      <component glyphName="tilde.cap" x="-85" y="0" flags="0x4"/>
    </TTGlyph>
    <TTGlyph name="J" xMin="-37" yMin="-393" xMax="756" yMax="1522">
      <contour>
        <pt x="-37" y="-275" on="1"/>
        <pt x="-4" y="-264" on="0"/>
        <pt x="69" y="-218" on="0"/>
        <pt x="138" y="-148" on="0"/>
        <pt x="197" y="-56" on="0"/>
        <pt x="215" y="1" on="1"/>
        <pt x="225" y="34" on="0"/>
        <pt x="241" y="107" on="0"/>
        <pt x="251" y="204" on="0"/>
        <pt x="257" y="330" on="0"/>
        <pt x="257" y="415" on="1"/>
        <pt x="257" y="1352" on="1"/>
        <pt x="85" y="1381" on="1"/>
        <pt x="85" y="1522" on="1"/>
        <pt x="756" y="1522" on="1"/>
        <pt x="756" y="1381" on="1"/>
        <pt x="593" y="1353" on="1"/>
        <pt x="593" y="569" on="1"/>
        <pt x="593" y="388" on="0"/>
        <pt x="583" y="118" on="0"/>
        <pt x="565" y="41" on="1"/>
        <pt x="542" y="-44" on="0"/>
        <pt x="450" y="-187" on="0"/>
        <pt x="315" y="-297" on="0"/>
        <pt x="141" y="-374" on="0"/>
        <pt x="37" y="-393" on="1"/>
      </contour>
    </TTGlyph>
    <TTGlyph name="Jcircumflex" xMin="-37" yMin="-393" xMax="822" yMax="2008">
      <component glyphName="J" x="0" y="0" flags="0x4"/>
      <component glyphName="circumflex.cap" x="-104" y="0" flags="0x4"/>
    </TTGlyph>
    <TTGlyph name="K" xMin="75" yMin="0" xMax="1549" yMax="1522">
      <contour>
        <pt x="1147" y="0" on="1"/>
        <pt x="1126" y="0" on="0"/>
        <pt x="1070" y="77" on="0"/>
        <pt x="1003" y="200" on="0"/>
        <pt x="929" y="354" on="0"/>
        <pt x="852" y="509" on="0"/>
        <pt x="774" y="650" on="0"/>
        <pt x="737" y="698" on="1"/>
        <pt x="571" y="502" on="1"/>
        <pt x="571" y="159" on="1"/>
        <pt x="745" y="134" on="1"/>
        <pt x="745" y="0" on="1"/>
        <pt x="75" y="0" on="1"/>
        <pt x="75" y="134" on="1"/>
        <pt x="233" y="160" on="1"/>
        <pt x="233" y="1353" on="1"/>
        <pt x="76" y="1381" on="1"/>
        <pt x="76" y="1522" on="1"/>
        <pt x="719" y="1522" on="1"/>
        <pt x="719" y="1381" on="1"/>
        <pt x="571" y="1352" on="1"/>
        <pt x="571" y="712" on="1"/>
        <pt x="1071" y="1353" on="1"/>
        <pt x="908" y="1381" on="1"/>
        <pt x="907" y="1522" on="1"/>
        <pt x="1480" y="1522" on="1"/>
        <pt x="1480" y="1382" on="1"/>
        <pt x="1306" y="1353" on="1"/>
        <pt x="934" y="930" on="1"/>
        <pt x="981" y="888" on="0"/>
        <pt x="1084" y="746" on="0"/>
        <pt x="1188" y="581" on="0"/>
        <pt x="1287" y="410" on="0"/>
        <pt x="1371" y="267" on="0"/>
        <pt x="1438" y="169" on="0"/>
        <pt x="1457" y="160" on="1"/>
        <pt x="1549" y="134" on="1"/>
        <pt x="1549" y="0" on="1"/>
      </contour>
    </TTGlyph>
    <TTGlyph name="Kcommaaccent" xMin="75" yMin="-560" xMax="1549" yMax="1522">
      <component glyphName="commaaccent" x="458" y="0" flags="0x4"/>
      <component glyphName="K" x="0" y="0" flags="0x4"/>
    </TTGlyph>
    <TTGlyph name="L" xMin="77" yMin="0" xMax="1286" yMax="1522">
      <contour>
        <pt x="77" y="134" on="1"/>
        <pt x="233" y="160" on="1"/>
        <pt x="233" y="1352" on="1"/>
        <pt x="79" y="1381" on="1"/>
        <pt x="79" y="1522" on="1"/>
        <pt x="763" y="1522" on="1"/>
        <pt x="763" y="1381" on="1"/>
        <pt x="573" y="1352" on="1"/>
        <pt x="573" y="161" on="1"/>
        <pt x="967" y="183" on="1"/>
        <pt x="1099" y="570" on="1"/>
        <pt x="1286" y="542" on="1"/>
        <pt x="1227" y="0" on="1"/>
        <pt x="77" y="0" on="1"/>
      </contour>
    </TTGlyph>
    <TTGlyph name="Lacute" xMin="77" yMin="0" xMax="1286" yMax="2014">
      <component glyphName="acute.cap" x="-119" y="0" flags="0x4"/>
      <component glyphName="L" x="0" y="0" flags="0x4"/>
    </TTGlyph>
    <TTGlyph name="Lcaron" xMin="77" yMin="0" xMax="1286" yMax="1694">
      <component glyphName="L" x="0" y="0" flags="0x204"/>
      <component glyphName="caronvertical" x="833" y="0" flags="0x4"/>
    </TTGlyph>
    <TTGlyph name="Lcommaaccent" xMin="77" yMin="-560" xMax="1286" yMax="1522">
      <component glyphName="commaaccent" x="359" y="0" flags="0x4"/>
      <component glyphName="L" x="0" y="0" flags="0x4"/>
    </TTGlyph>
    <TTGlyph name="Ldot" xMin="77" yMin="0" xMax="1286" yMax="1522">
      <component glyphName="L" x="0" y="0" flags="0x4"/>
      <component glyphName="period" x="717" y="742" flags="0x4"/>
    </TTGlyph>
    <TTGlyph name="Lslash" xMin="44" yMin="0" xMax="1286" yMax="1522">
      <contour>
        <pt x="44" y="664" on="1"/>
        <pt x="233" y="741" on="1"/>
        <pt x="233" y="1352" on="1"/>
        <pt x="79" y="1381" on="1"/>
        <pt x="79" y="1522" on="1"/>
        <pt x="763" y="1522" on="1"/>
        <pt x="763" y="1381" on="1"/>
        <pt x="573" y="1352" on="1"/>
        <pt x="573" y="875" on="1"/>
        <pt x="915" y="1019" on="1"/>
        <pt x="915" y="863" on="1"/>
        <pt x="573" y="725" on="1"/>
        <pt x="573" y="161" on="1"/>
        <pt x="967" y="183" on="1"/>
        <pt x="1099" y="570" on="1"/>
        <pt x="1286" y="542" on="1"/>
        <pt x="1227" y="0" on="1"/>
        <pt x="77" y="0" on="1"/>
        <pt x="77" y="134" on="1"/>
        <pt x="233" y="160" on="1"/>
        <pt x="233" y="592" on="1"/>
        <pt x="44" y="517" on="1"/>
      </contour>
    </TTGlyph>
    <TTGlyph name="M" xMin="-5" yMin="0" xMax="2118" yMax="1522">
      <contour>
        <pt x="-5" y="134" on="1"/>
        <pt x="168" y="159" on="1"/>
        <pt x="307" y="1353" on="1"/>
        <pt x="106" y="1381" on="1"/>
        <pt x="106" y="1522" on="1"/>
        <pt x="768" y="1522" on="1"/>
        <pt x="1029" y="637" on="1"/>
        <pt x="1066" y="443" on="1"/>
        <pt x="1099" y="637" on="1"/>
        <pt x="1318" y="1522" on="1"/>
        <pt x="1987" y="1522" on="1"/>
        <pt x="1987" y="1381" on="1"/>
        <pt x="1770" y="1352" on="1"/>
        <pt x="1948" y="160" on="1"/>
        <pt x="2118" y="134" on="1"/>
        <pt x="2118" y="0" on="1"/>
        <pt x="1433" y="0" on="1"/>
        <pt x="1433" y="134" on="1"/>
        <pt x="1602" y="159" on="1"/>
        <pt x="1499" y="1040" on="1"/>
        <pt x="1460" y="1406" on="1"/>
        <pt x="1401" y="1123" on="1"/>
        <pt x="1126" y="58" on="1"/>
        <pt x="881" y="58" on="1"/>
        <pt x="558" y="1049" on="1"/>
        <pt x="470" y="1412" on="1"/>
        <pt x="446" y="1041" on="1"/>
        <pt x="381" y="160" on="1"/>
        <pt x="584" y="134" on="1"/>
        <pt x="584" y="0" on="1"/>
        <pt x="-5" y="0" on="1"/>
      </contour>
    </TTGlyph>
    <TTGlyph name="N" xMin="73" yMin="0" xMax="1613" yMax="1522">
      <contour>
        <pt x="73" y="134" on="1"/>
        <pt x="235" y="159" on="1"/>
        <pt x="235" y="1353" on="1"/>
        <pt x="73" y="1381" on="1"/>
        <pt x="73" y="1522" on="1"/>
        <pt x="572" y="1522" on="1"/>
        <pt x="1154" y="639" on="1"/>
        <pt x="1263" y="407" on="1"/>
        <pt x="1263" y="1354" on="1"/>
        <pt x="1087" y="1381" on="1"/>
        <pt x="1087" y="1522" on="1"/>
        <pt x="1613" y="1522" on="1"/>
        <pt x="1613" y="1381" on="1"/>
        <pt x="1455" y="1353" on="1"/>
        <pt x="1455" y="0" on="1"/>
        <pt x="1177" y="0" on="1"/>
        <pt x="564" y="937" on="1"/>
        <pt x="428" y="1211" on="1"/>
        <pt x="428" y="159" on="1"/>
        <pt x="638" y="134" on="1"/>
        <pt x="638" y="0" on="1"/>
        <pt x="73" y="0" on="1"/>
      </contour>
    </TTGlyph>
    <TTGlyph name="Nacute" xMin="73" yMin="0" xMax="1613" yMax="2014">
      <component glyphName="acute.cap" x="277" y="0" flags="0x4"/>
      <component glyphName="N" x="0" y="0" flags="0x4"/>
    </TTGlyph>
    <TTGlyph name="Ncaron" xMin="73" yMin="0" xMax="1613" yMax="2014">
      <component glyphName="caron.cap" x="509" y="0" flags="0x4"/>
      <component glyphName="N" x="0" y="0" flags="0x4"/>
    </TTGlyph>
    <TTGlyph name="Ncommaaccent" xMin="73" yMin="-560" xMax="1613" yMax="1522">
      <component glyphName="commaaccent" x="516" y="0" flags="0x4"/>
      <component glyphName="N" x="0" y="0" flags="0x4"/>
    </TTGlyph>
    <TTGlyph name="Ntilde" xMin="73" yMin="0" xMax="1613" yMax="2009">
      <component glyphName="tilde.cap" x="336" y="0" flags="0x4"/>
      <component glyphName="N" x="0" y="0" flags="0x4"/>
    </TTGlyph>
    <TTGlyph name="O" xMin="55" yMin="-25" xMax="1439" yMax="1541">
      <contour>
        <pt x="737" y="-23" on="1"/>
        <pt x="559" y="-25" on="0"/>
        <pt x="301" y="87" on="0"/>
        <pt x="135" y="292" on="0"/>
        <pt x="55" y="580" on="0"/>
        <pt x="55" y="755" on="1"/>
        <pt x="55" y="935" on="0"/>
        <pt x="156" y="1225" on="0"/>
        <pt x="341" y="1431" on="0"/>
        <pt x="601" y="1541" on="0"/>
        <pt x="760" y="1541" on="1"/>
        <pt x="938" y="1541" on="0"/>
        <pt x="1195" y="1434" on="0"/>
        <pt x="1360" y="1236" on="0"/>
        <pt x="1439" y="957" on="0"/>
        <pt x="1439" y="784" on="1"/>
        <pt x="1439" y="604" on="0"/>
        <pt x="1338" y="308" on="0"/>
        <pt x="1154" y="97" on="0"/>
        <pt x="895" y="-21" on="0"/>
      </contour>
      <contour>
        <pt x="747" y="1403" on="1"/>
        <pt x="672" y="1403" on="0"/>
        <pt x="553" y="1325" on="0"/>
        <pt x="471" y="1166" on="0"/>
        <pt x="427" y="922" on="0"/>
        <pt x="427" y="757" on="1"/>
        <pt x="427" y="593" on="0"/>
        <pt x="470" y="352" on="0"/>
        <pt x="553" y="194" on="0"/>
        <pt x="671" y="116" on="0"/>
        <pt x="746" y="116" on="1"/>
        <pt x="896" y="116" on="0"/>
        <pt x="1067" y="451" on="0"/>
        <pt x="1067" y="783" on="1"/>
        <pt x="1067" y="946" on="0"/>
        <pt x="1023" y="1181" on="0"/>
        <pt x="941" y="1332" on="0"/>
        <pt x="822" y="1403" on="0"/>
      </contour>
    </TTGlyph>
    <TTGlyph name="OE" xMin="62" yMin="-18" xMax="2106" yMax="1542">
      <contour>
        <pt x="992" y="0" on="1"/>
        <pt x="992" y="47" on="1"/>
        <pt x="936" y="15" on="0"/>
        <pt x="812" y="-15" on="0"/>
        <pt x="745" y="-16" on="1"/>
        <pt x="571" y="-18" on="0"/>
        <pt x="314" y="95" on="0"/>
        <pt x="145" y="299" on="0"/>
        <pt x="62" y="584" on="0"/>
        <pt x="62" y="756" on="1"/>
        <pt x="62" y="936" on="0"/>
        <pt x="161" y="1226" on="0"/>
        <pt x="345" y="1431" on="0"/>
        <pt x="606" y="1542" on="0"/>
        <pt x="768" y="1542" on="1"/>
        <pt x="829" y="1542" on="0"/>
        <pt x="941" y="1524" on="0"/>
        <pt x="992" y="1504" on="1"/>
        <pt x="992" y="1522" on="1"/>
        <pt x="1946" y="1522" on="1"/>
        <pt x="1974" y="1169" on="1"/>
        <pt x="1811" y="1169" on="1"/>
        <pt x="1742" y="1367" on="1"/>
        <pt x="1335" y="1387" on="1"/>
        <pt x="1335" y="854" on="1"/>
        <pt x="1592" y="861" on="1"/>
        <pt x="1626" y="1024" on="1"/>
        <pt x="1781" y="1024" on="1"/>
        <pt x="1781" y="519" on="1"/>
        <pt x="1626" y="519" on="1"/>
        <pt x="1593" y="691" on="1"/>
        <pt x="1335" y="697" on="1"/>
        <pt x="1335" y="145" on="1"/>
        <pt x="1799" y="172" on="1"/>
        <pt x="1942" y="426" on="1"/>
        <pt x="2106" y="377" on="1"/>
        <pt x="2036" y="0" on="1"/>
      </contour>
      <contour>
        <pt x="756" y="118" on="1"/>
        <pt x="837" y="118" on="0"/>
        <pt x="954" y="218" on="0"/>
        <pt x="992" y="309" on="1"/>
        <pt x="992" y="1257" on="1"/>
        <pt x="954" y="1339" on="0"/>
        <pt x="835" y="1408" on="0"/>
        <pt x="750" y="1408" on="1"/>
        <pt x="596" y="1408" on="0"/>
        <pt x="431" y="1082" on="0"/>
        <pt x="431" y="757" on="1"/>
        <pt x="431" y="602" on="0"/>
        <pt x="476" y="364" on="0"/>
        <pt x="560" y="202" on="0"/>
        <pt x="680" y="118" on="0"/>
      </contour>
    </TTGlyph>
    <TTGlyph name="Oacute" xMin="60" yMin="-25" xMax="1444" yMax="2014">
      <component glyphName="acute.cap" x="181" y="0" flags="0x4"/>
      <component glyphName="O" x="5" y="0" flags="0x4"/>
    </TTGlyph>
    <TTGlyph name="Obreve" xMin="60" yMin="-25" xMax="1444" yMax="2004">
      <component glyphName="breve.cap" x="245" y="0" flags="0x4"/>
      <component glyphName="O" x="5" y="0" flags="0x4"/>
    </TTGlyph>
    <TTGlyph name="Ocircumflex" xMin="60" yMin="-25" xMax="1444" yMax="2008">
      <component glyphName="O" x="5" y="0" flags="0x4"/>
      <component glyphName="circumflex.cap" x="228" y="0" flags="0x4"/>
    </TTGlyph>
    <TTGlyph name="Odieresis" xMin="60" yMin="-25" xMax="1444" yMax="1997">
      <component glyphName="dieresis.cap" x="245" y="0" flags="0x4"/>
      <component glyphName="O" x="5" y="0" flags="0x4"/>
    </TTGlyph>
    <TTGlyph name="Ograve" xMin="60" yMin="-25" xMax="1444" yMax="2014">
      <component glyphName="grave.cap" x="297" y="0" flags="0x4"/>
      <component glyphName="O" x="5" y="0" flags="0x4"/>
    </TTGlyph>
    <TTGlyph name="Ohungarumlaut" xMin="60" yMin="-25" xMax="1444" yMax="2014">
      <component glyphName="O" x="5" y="0" flags="0x4"/>
      <component glyphName="hungarumlaut.cap" x="245" y="0" flags="0x4"/>
    </TTGlyph>
    <TTGlyph name="Omacron" xMin="60" yMin="-25" xMax="1444" yMax="1915">
      <component glyphName="macron.cap" x="415" y="0" flags="0x4"/>
      <component glyphName="O" x="5" y="0" flags="0x4"/>
    </TTGlyph>
    <TTGlyph name="Omega" xMin="110" yMin="0" xMax="1821" yMax="1542">
      <contour>
        <pt x="1087" y="188" on="1"/>
        <pt x="1154" y="234" on="0"/>
        <pt x="1252" y="374" on="0"/>
        <pt x="1316" y="550" on="0"/>
        <pt x="1348" y="753" on="0"/>
        <pt x="1348" y="861" on="1"/>
        <pt x="1348" y="963" on="0"/>
        <pt x="1301" y="1125" on="0"/>
        <pt x="1205" y="1237" on="0"/>
        <pt x="1060" y="1296" on="0"/>
        <pt x="963" y="1296" on="1"/>
        <pt x="758" y="1296" on="0"/>
        <pt x="561" y="1060" on="0"/>
        <pt x="561" y="831" on="1"/>
        <pt x="561" y="722" on="0"/>
        <pt x="611" y="519" on="0"/>
        <pt x="693" y="350" on="0"/>
        <pt x="798" y="222" on="0"/>
        <pt x="852" y="188" on="1"/>
        <pt x="852" y="0" on="1"/>
        <pt x="156" y="0" on="1"/>
        <pt x="110" y="426" on="1"/>
        <pt x="269" y="426" on="1"/>
        <pt x="342" y="207" on="1"/>
        <pt x="680" y="196" on="1"/>
        <pt x="638" y="221" on="0"/>
        <pt x="544" y="303" on="0"/>
        <pt x="452" y="409" on="0"/>
        <pt x="369" y="537" on="0"/>
        <pt x="307" y="676" on="0"/>
        <pt x="271" y="823" on="0"/>
        <pt x="273" y="897" on="1"/>
        <pt x="275" y="1014" on="0"/>
        <pt x="332" y="1201" on="0"/>
        <pt x="429" y="1344" on="0"/>
        <pt x="560" y="1446" on="0"/>
        <pt x="713" y="1512" on="0"/>
        <pt x="882" y="1542" on="0"/>
        <pt x="969" y="1542" on="1"/>
        <pt x="1120" y="1542" on="0"/>
        <pt x="1371" y="1459" on="0"/>
        <pt x="1550" y="1297" on="0"/>
        <pt x="1646" y="1057" on="0"/>
        <pt x="1643" y="901" on="1"/>
        <pt x="1641" y="836" on="0"/>
        <pt x="1610" y="700" on="0"/>
        <pt x="1557" y="566" on="0"/>
        <pt x="1486" y="439" on="0"/>
        <pt x="1404" y="326" on="0"/>
        <pt x="1315" y="232" on="0"/>
        <pt x="1270" y="199" on="1"/>
        <pt x="1585" y="219" on="1"/>
        <pt x="1657" y="426" on="1"/>
        <pt x="1821" y="426" on="1"/>
        <pt x="1765" y="0" on="1"/>
        <pt x="1087" y="0" on="1"/>
      </contour>
    </TTGlyph>
    <TTGlyph name="Omegagreek" xMin="110" yMin="0" xMax="1821" yMax="1542">
      <component glyphName="Omega" x="0" y="0" flags="0x204"/>
    </TTGlyph>
    <TTGlyph name="Oslash" xMin="55" yMin="-240" xMax="1439" yMax="1743">
      <contour>
        <pt x="302" y="-197" on="1"/>
        <pt x="398" y="45" on="1"/>
        <pt x="309" y="89" on="0"/>
        <pt x="180" y="227" on="0"/>
        <pt x="96" y="409" on="0"/>
        <pt x="55" y="629" on="0"/>
        <pt x="55" y="755" on="1"/>
        <pt x="55" y="935" on="0"/>
        <pt x="156" y="1225" on="0"/>
        <pt x="341" y="1431" on="0"/>
        <pt x="601" y="1541" on="0"/>
        <pt x="760" y="1541" on="1"/>
        <pt x="812" y="1541" on="0"/>
        <pt x="907" y="1531" on="0"/>
        <pt x="951" y="1522" on="1"/>
        <pt x="1036" y="1743" on="1"/>
        <pt x="1179" y="1698" on="1"/>
        <pt x="1092" y="1475" on="1"/>
        <pt x="1182" y="1433" on="0"/>
        <pt x="1313" y="1301" on="0"/>
        <pt x="1398" y="1125" on="0"/>
        <pt x="1439" y="909" on="0"/>
        <pt x="1439" y="784" on="1"/>
        <pt x="1439" y="604" on="0"/>
        <pt x="1338" y="308" on="0"/>
        <pt x="1154" y="97" on="0"/>
        <pt x="895" y="-21" on="0"/>
        <pt x="737" y="-23" on="1"/>
        <pt x="634" y="-23" on="0"/>
        <pt x="547" y="-5" on="1"/>
        <pt x="454" y="-240" on="1"/>
      </contour>
      <contour>
        <pt x="747" y="1403" on="1"/>
        <pt x="672" y="1403" on="0"/>
        <pt x="553" y="1325" on="0"/>
        <pt x="471" y="1166" on="0"/>
        <pt x="427" y="922" on="0"/>
        <pt x="427" y="757" on="1"/>
        <pt x="427" y="583" on="0"/>
        <pt x="475" y="334" on="0"/>
        <pt x="521" y="255" on="1"/>
        <pt x="898" y="1356" on="1"/>
        <pt x="835" y="1403" on="0"/>
      </contour>
      <contour>
        <pt x="1067" y="783" on="1"/>
        <pt x="1067" y="949" on="0"/>
        <pt x="1022" y="1185" on="0"/>
        <pt x="979" y="1260" on="1"/>
        <pt x="603" y="161" on="1"/>
        <pt x="664" y="116" on="0"/>
        <pt x="746" y="116" on="1"/>
        <pt x="896" y="116" on="0"/>
        <pt x="1067" y="451" on="0"/>
      </contour>
    </TTGlyph>
    <TTGlyph name="Oslashacute" xMin="55" yMin="-240" xMax="1439" yMax="2014">
      <component glyphName="Oslash" x="0" y="0" flags="0x204"/>
      <component glyphName="acute.cap" x="204" y="0" flags="0x4"/>
    </TTGlyph>
    <TTGlyph name="Otilde" xMin="60" yMin="-25" xMax="1444" yMax="2009">
      <component glyphName="tilde.cap" x="245" y="0" flags="0x4"/>
      <component glyphName="O" x="5" y="0" flags="0x4"/>
    </TTGlyph>
    <TTGlyph name="P" xMin="77" yMin="0" xMax="1323" yMax="1534">
      <contour>
        <pt x="77" y="134" on="1"/>
        <pt x="233" y="159" on="1"/>
        <pt x="233" y="1353" on="1"/>
        <pt x="84" y="1381" on="1"/>
        <pt x="84" y="1522" on="1"/>
        <pt x="390" y="1522" on="1"/>
        <pt x="428" y="1522" on="0"/>
        <pt x="500" y="1526" on="0"/>
        <pt x="580" y="1530" on="0"/>
        <pt x="674" y="1534" on="0"/>
        <pt x="734" y="1534" on="1"/>
        <pt x="905" y="1534" on="0"/>
        <pt x="1132" y="1473" on="0"/>
        <pt x="1267" y="1358" on="0"/>
        <pt x="1323" y="1190" on="0"/>
        <pt x="1323" y="1082" on="1"/>
        <pt x="1323" y="952" on="0"/>
        <pt x="1241" y="747" on="0"/>
        <pt x="1084" y="606" on="0"/>
        <pt x="857" y="531" on="0"/>
        <pt x="713" y="531" on="1"/>
        <pt x="666" y="531" on="0"/>
        <pt x="584" y="535" on="0"/>
        <pt x="571" y="538" on="1"/>
        <pt x="571" y="160" on="1"/>
        <pt x="836" y="134" on="1"/>
        <pt x="836" y="0" on="1"/>
        <pt x="77" y="0" on="1"/>
      </contour>
      <contour>
        <pt x="570" y="679" on="1"/>
        <pt x="591" y="674" on="0"/>
        <pt x="651" y="669" on="0"/>
        <pt x="707" y="669" on="1"/>
        <pt x="761" y="669" on="0"/>
        <pt x="858" y="708" on="0"/>
        <pt x="931" y="801" on="0"/>
        <pt x="974" y="957" on="0"/>
        <pt x="974" y="1074" on="1"/>
        <pt x="974" y="1245" on="0"/>
        <pt x="836" y="1398" on="0"/>
        <pt x="701" y="1398" on="1"/>
        <pt x="672" y="1398" on="0"/>
        <pt x="633" y="1395" on="0"/>
        <pt x="604" y="1391" on="0"/>
        <pt x="582" y="1387" on="0"/>
        <pt x="570" y="1386" on="1"/>
      </contour>
    </TTGlyph>
    <TTGlyph name="Q" xMin="60" yMin="-391" xMax="1901" yMax="1541">
      <contour>
        <pt x="742" y="-23" on="1"/>
        <pt x="564" y="-25" on="0"/>
        <pt x="306" y="87" on="0"/>
        <pt x="140" y="292" on="0"/>
        <pt x="60" y="580" on="0"/>
        <pt x="60" y="755" on="1"/>
        <pt x="60" y="935" on="0"/>
        <pt x="161" y="1225" on="0"/>
        <pt x="346" y="1431" on="0"/>
        <pt x="606" y="1541" on="0"/>
        <pt x="765" y="1541" on="1"/>
        <pt x="943" y="1541" on="0"/>
        <pt x="1200" y="1434" on="0"/>
        <pt x="1365" y="1236" on="0"/>
        <pt x="1444" y="957" on="0"/>
        <pt x="1444" y="784" on="1"/>
        <pt x="1444" y="659" on="0"/>
        <pt x="1394" y="439" on="0"/>
        <pt x="1301" y="256" on="0"/>
        <pt x="1168" y="114" on="0"/>
        <pt x="1084" y="66" on="1"/>
        <pt x="1140" y="54" on="0"/>
        <pt x="1259" y="8" on="0"/>
        <pt x="1379" y="-48" on="0"/>
        <pt x="1499" y="-106" on="0"/>
        <pt x="1613" y="-154" on="0"/>
        <pt x="1718" y="-185" on="0"/>
        <pt x="1764" y="-185" on="1"/>
        <pt x="1766" y="-185" on="1"/>
        <pt x="1805" y="-185" on="0"/>
        <pt x="1853" y="-179" on="0"/>
        <pt x="1867" y="-176" on="1"/>
        <pt x="1901" y="-282" on="1"/>
        <pt x="1893" y="-290" on="0"/>
        <pt x="1860" y="-326" on="0"/>
        <pt x="1799" y="-363" on="0"/>
        <pt x="1704" y="-391" on="0"/>
        <pt x="1635" y="-391" on="1"/>
        <pt x="1624" y="-391" on="1"/>
        <pt x="1547" y="-391" on="0"/>
        <pt x="1409" y="-347" on="0"/>
        <pt x="1284" y="-276" on="0"/>
        <pt x="1168" y="-189" on="0"/>
        <pt x="1057" y="-104" on="0"/>
        <pt x="947" y="-30" on="0"/>
        <pt x="891" y="-7" on="1"/>
        <pt x="855" y="-15" on="0"/>
        <pt x="781" y="-22" on="0"/>
      </contour>
      <contour>
        <pt x="752" y="1403" on="1"/>
        <pt x="677" y="1403" on="0"/>
        <pt x="558" y="1325" on="0"/>
        <pt x="476" y="1166" on="0"/>
        <pt x="432" y="922" on="0"/>
        <pt x="432" y="757" on="1"/>
        <pt x="432" y="593" on="0"/>
        <pt x="475" y="352" on="0"/>
        <pt x="558" y="194" on="0"/>
        <pt x="676" y="116" on="0"/>
        <pt x="751" y="116" on="1"/>
        <pt x="901" y="116" on="0"/>
        <pt x="1072" y="451" on="0"/>
        <pt x="1072" y="783" on="1"/>
        <pt x="1072" y="946" on="0"/>
        <pt x="1028" y="1181" on="0"/>
        <pt x="946" y="1332" on="0"/>
        <pt x="827" y="1403" on="0"/>
      </contour>
    </TTGlyph>
    <TTGlyph name="R" xMin="77" yMin="0" xMax="1490" yMax="1535">
      <contour>
        <pt x="77" y="134" on="1"/>
        <pt x="233" y="159" on="1"/>
        <pt x="233" y="1353" on="1"/>
        <pt x="84" y="1381" on="1"/>
        <pt x="84" y="1522" on="1"/>
        <pt x="395" y="1522" on="1"/>
        <pt x="439" y="1522" on="0"/>
        <pt x="518" y="1526" on="0"/>
        <pt x="598" y="1531" on="0"/>
        <pt x="685" y="1535" on="0"/>
        <pt x="737" y="1535" on="1"/>
        <pt x="899" y="1535" on="0"/>
        <pt x="1123" y="1488" on="0"/>
        <pt x="1262" y="1388" on="0"/>
        <pt x="1323" y="1234" on="0"/>
        <pt x="1323" y="1128" on="1"/>
        <pt x="1323" y="1065" on="0"/>
        <pt x="1288" y="934" on="0"/>
        <pt x="1215" y="819" on="0"/>
        <pt x="1105" y="729" on="0"/>
        <pt x="1030" y="705" on="1"/>
        <pt x="1085" y="682" on="0"/>
        <pt x="1173" y="587" on="0"/>
        <pt x="1245" y="469" on="0"/>
        <pt x="1303" y="343" on="0"/>
        <pt x="1354" y="236" on="0"/>
        <pt x="1402" y="162" on="0"/>
        <pt x="1427" y="156" on="1"/>
        <pt x="1490" y="134" on="1"/>
        <pt x="1490" y="0" on="1"/>
        <pt x="1101" y="0" on="1"/>
        <pt x="1083" y="0" on="0"/>
        <pt x="1046" y="50" on="0"/>
        <pt x="1008" y="132" on="0"/>
        <pt x="969" y="239" on="0"/>
        <pt x="927" y="354" on="0"/>
        <pt x="884" y="468" on="0"/>
        <pt x="836" y="564" on="0"/>
        <pt x="785" y="635" on="0"/>
        <pt x="757" y="649" on="1"/>
        <pt x="730" y="649" on="0"/>
        <pt x="669" y="649" on="0"/>
        <pt x="616" y="650" on="0"/>
        <pt x="577" y="651" on="0"/>
        <pt x="571" y="651" on="1"/>
        <pt x="571" y="158" on="1"/>
        <pt x="753" y="134" on="1"/>
        <pt x="753" y="0" on="1"/>
        <pt x="77" y="0" on="1"/>
      </contour>
      <contour>
        <pt x="571" y="789" on="1"/>
        <pt x="580" y="786" on="0"/>
        <pt x="623" y="784" on="0"/>
        <pt x="672" y="784" on="0"/>
        <pt x="718" y="785" on="0"/>
        <pt x="731" y="785" on="1"/>
        <pt x="839" y="785" on="0"/>
        <pt x="964" y="945" on="0"/>
        <pt x="964" y="1115" on="1"/>
        <pt x="964" y="1184" on="0"/>
        <pt x="936" y="1290" on="0"/>
        <pt x="874" y="1362" on="0"/>
        <pt x="773" y="1399" on="0"/>
        <pt x="701" y="1399" on="1"/>
        <pt x="644" y="1399" on="0"/>
        <pt x="585" y="1392" on="0"/>
        <pt x="571" y="1389" on="1"/>
      </contour>
    </TTGlyph>
    <TTGlyph name="Racute" xMin="77" yMin="0" xMax="1490" yMax="2014">
      <component glyphName="R" x="0" y="0" flags="0x204"/>
      <component glyphName="acute.cap" x="156" y="0" flags="0x4"/>
    </TTGlyph>
    <TTGlyph name="Rcaron" xMin="77" yMin="0" xMax="1490" yMax="2014">
      <component glyphName="caron.cap" x="396" y="0" flags="0x4"/>
      <component glyphName="R" x="0" y="0" flags="0x4"/>
    </TTGlyph>
    <TTGlyph name="Rcommaaccent" xMin="77" yMin="-560" xMax="1490" yMax="1535">
      <component glyphName="commaaccent" x="449" y="0" flags="0x4"/>
      <component glyphName="R" x="0" y="0" flags="0x4"/>
    </TTGlyph>
    <TTGlyph name="S" xMin="111" yMin="-23" xMax="1186" yMax="1541">
      <contour>
        <pt x="610" y="-23" on="1"/>
        <pt x="517" y="-23" on="0"/>
        <pt x="356" y="4" on="0"/>
        <pt x="228" y="37" on="0"/>
        <pt x="136" y="66" on="0"/>
        <pt x="111" y="68" on="1"/>
        <pt x="128" y="448" on="1"/>
        <pt x="315" y="448" on="1"/>
        <pt x="366" y="194" on="1"/>
        <pt x="389" y="166" on="0"/>
        <pt x="512" y="121" on="0"/>
        <pt x="599" y="121" on="1"/>
        <pt x="728" y="121" on="0"/>
        <pt x="846" y="232" on="0"/>
        <pt x="846" y="328" on="1"/>
        <pt x="846" y="380" on="0"/>
        <pt x="800" y="463" on="0"/>
        <pt x="713" y="534" on="0"/>
        <pt x="587" y="600" on="0"/>
        <pt x="508" y="637" on="1"/>
        <pt x="469" y="655" on="0"/>
        <pt x="380" y="703" on="0"/>
        <pt x="294" y="765" on="0"/>
        <pt x="214" y="843" on="0"/>
        <pt x="154" y="940" on="0"/>
        <pt x="118" y="1057" on="0"/>
        <pt x="118" y="1127" on="1"/>
        <pt x="118" y="1210" on="0"/>
        <pt x="183" y="1360" on="0"/>
        <pt x="315" y="1474" on="0"/>
        <pt x="515" y="1541" on="0"/>
        <pt x="651" y="1541" on="1"/>
        <pt x="736" y="1541" on="0"/>
        <pt x="875" y="1520" on="0"/>
        <pt x="983" y="1494" on="0"/>
        <pt x="1060" y="1470" on="0"/>
        <pt x="1083" y="1468" on="1"/>
        <pt x="1070" y="1108" on="1"/>
        <pt x="888" y="1108" on="1"/>
        <pt x="839" y="1352" on="1"/>
        <pt x="832" y="1361" on="0"/>
        <pt x="800" y="1379" on="0"/>
        <pt x="753" y="1394" on="0"/>
        <pt x="694" y="1403" on="0"/>
        <pt x="661" y="1403" on="1"/>
        <pt x="601" y="1403" on="0"/>
        <pt x="517" y="1374" on="0"/>
        <pt x="463" y="1324" on="0"/>
        <pt x="439" y="1254" on="0"/>
        <pt x="439" y="1214" on="1"/>
        <pt x="439" y="1158" on="0"/>
        <pt x="494" y="1070" on="0"/>
        <pt x="590" y="995" on="0"/>
        <pt x="720" y="926" on="0"/>
        <pt x="795" y="889" on="1"/>
        <pt x="858" y="857" on="0"/>
        <pt x="996" y="778" on="0"/>
        <pt x="1111" y="670" on="0"/>
        <pt x="1186" y="528" on="0"/>
        <pt x="1186" y="435" on="1"/>
        <pt x="1186" y="384" on="0"/>
        <pt x="1162" y="277" on="0"/>
        <pt x="1107" y="175" on="0"/>
        <pt x="1019" y="85" on="0"/>
        <pt x="891" y="17" on="0"/>
        <pt x="720" y="-23" on="0"/>
      </contour>
    </TTGlyph>
    <TTGlyph name="Sacute" xMin="111" yMin="-23" xMax="1186" yMax="2014">
      <component glyphName="S" x="0" y="0" flags="0x204"/>
      <component glyphName="acute.cap" x="80" y="0" flags="0x4"/>
    </TTGlyph>
    <TTGlyph name="Scaron" xMin="111" yMin="-23" xMax="1186" yMax="2014">
      <component glyphName="S" x="0" y="0" flags="0x204"/>
      <component glyphName="caron.cap" x="318" y="0" flags="0x4"/>
    </TTGlyph>
    <TTGlyph name="Scircumflex" xMin="111" yMin="-23" xMax="1186" yMax="2008">
      <component glyphName="S" x="0" y="0" flags="0x204"/>
      <component glyphName="circumflex.cap" x="125" y="0" flags="0x4"/>
    </TTGlyph>
    <TTGlyph name="T" xMin="34" yMin="0" xMax="1420" yMax="1522">
      <contour>
        <pt x="308" y="134" on="1"/>
        <pt x="565" y="160" on="1"/>
        <pt x="565" y="1371" on="1"/>
        <pt x="307" y="1361" on="1"/>
        <pt x="224" y="917" on="1"/>
        <pt x="34" y="917" on="1"/>
        <pt x="64" y="1522" on="1"/>
        <pt x="1391" y="1522" on="1"/>
        <pt x="1420" y="917" on="1"/>
        <pt x="1237" y="917" on="1"/>
        <pt x="1149" y="1361" on="1"/>
        <pt x="907" y="1371" on="1"/>
        <pt x="907" y="161" on="1"/>
        <pt x="1187" y="134" on="1"/>
        <pt x="1187" y="0" on="1"/>
        <pt x="308" y="0" on="1"/>
      </contour>
    </TTGlyph>
    <TTGlyph name="Tbar" xMin="46" yMin="0" xMax="1432" yMax="1522">
      <contour>
        <pt x="358" y="749" on="1"/>
        <pt x="577" y="749" on="1"/>
        <pt x="577" y="1371" on="1"/>
        <pt x="319" y="1361" on="1"/>
        <pt x="236" y="917" on="1"/>
        <pt x="46" y="917" on="1"/>
        <pt x="76" y="1522" on="1"/>
        <pt x="1403" y="1522" on="1"/>
        <pt x="1432" y="917" on="1"/>
        <pt x="1249" y="917" on="1"/>
        <pt x="1161" y="1361" on="1"/>
        <pt x="919" y="1371" on="1"/>
        <pt x="919" y="749" on="1"/>
        <pt x="1133" y="749" on="1"/>
        <pt x="1133" y="598" on="1"/>
        <pt x="919" y="598" on="1"/>
        <pt x="919" y="161" on="1"/>
        <pt x="1199" y="134" on="1"/>
        <pt x="1199" y="0" on="1"/>
        <pt x="320" y="0" on="1"/>
        <pt x="320" y="134" on="1"/>
        <pt x="577" y="160" on="1"/>
        <pt x="577" y="598" on="1"/>
        <pt x="358" y="598" on="1"/>
      </contour>
    </TTGlyph>
    <TTGlyph name="Tcaron" xMin="34" yMin="0" xMax="1420" yMax="2014">
      <component glyphName="caron.cap" x="413" y="0" flags="0x4"/>
      <component glyphName="T" x="0" y="0" flags="0x4"/>
    </TTGlyph>
    <TTGlyph name="Thorn" xMin="73" yMin="0" xMax="1321" yMax="1522">
      <contour>
        <pt x="73" y="132" on="1"/>
        <pt x="232" y="158" on="1"/>
        <pt x="232" y="1354" on="1"/>
        <pt x="73" y="1384" on="1"/>
        <pt x="73" y="1522" on="1"/>
        <pt x="737" y="1522" on="1"/>
        <pt x="739" y="1384" on="1"/>
        <pt x="571" y="1354" on="1"/>
        <pt x="571" y="1173" on="1"/>
        <pt x="608" y="1176" on="0"/>
        <pt x="675" y="1183" on="0"/>
        <pt x="745" y="1189" on="0"/>
        <pt x="821" y="1193" on="0"/>
        <pt x="866" y="1193" on="1"/>
        <pt x="1089" y="1193" on="0"/>
        <pt x="1321" y="993" on="0"/>
        <pt x="1321" y="788" on="1"/>
        <pt x="1321" y="669" on="0"/>
        <pt x="1250" y="494" on="0"/>
        <pt x="1117" y="380" on="0"/>
        <pt x="926" y="325" on="0"/>
        <pt x="805" y="325" on="1"/>
        <pt x="729" y="325" on="0"/>
        <pt x="607" y="333" on="0"/>
        <pt x="571" y="337" on="1"/>
        <pt x="571" y="158" on="1"/>
        <pt x="780" y="132" on="1"/>
        <pt x="780" y="0" on="1"/>
        <pt x="73" y="0" on="1"/>
      </contour>
      <contour>
        <pt x="746" y="462" on="1"/>
        <pt x="793" y="462" on="0"/>
        <pt x="873" y="500" on="0"/>
        <pt x="931" y="578" on="0"/>
        <pt x="964" y="695" on="0"/>
        <pt x="964" y="774" on="1"/>
        <pt x="964" y="830" on="0"/>
        <pt x="939" y="931" on="0"/>
        <pt x="881" y="1006" on="0"/>
        <pt x="786" y="1048" on="0"/>
        <pt x="716" y="1047" on="1"/>
        <pt x="674" y="1047" on="0"/>
        <pt x="597" y="1037" on="0"/>
        <pt x="571" y="1032" on="1"/>
        <pt x="571" y="471" on="1"/>
        <pt x="620" y="463" on="0"/>
        <pt x="708" y="462" on="0"/>
      </contour>
    </TTGlyph>
    <TTGlyph name="U" xMin="30" yMin="-16" xMax="1499" yMax="1522">
      <contour>
        <pt x="787" y="-16" on="1"/>
        <pt x="628" y="-16" on="0"/>
        <pt x="392" y="56" on="0"/>
        <pt x="237" y="211" on="0"/>
        <pt x="160" y="454" on="0"/>
        <pt x="160" y="624" on="1"/>
        <pt x="160" y="1352" on="1"/>
        <pt x="30" y="1381" on="1"/>
        <pt x="30" y="1522" on="1"/>
        <pt x="680" y="1522" on="1"/>
        <pt x="680" y="1381" on="1"/>
        <pt x="511" y="1351" on="1"/>
        <pt x="511" y="595" on="1"/>
        <pt x="511" y="355" on="0"/>
        <pt x="672" y="126" on="0"/>
        <pt x="833" y="126" on="1"/>
        <pt x="915" y="126" on="0"/>
        <pt x="1034" y="192" on="0"/>
        <pt x="1111" y="313" on="0"/>
        <pt x="1147" y="484" on="0"/>
        <pt x="1147" y="590" on="1"/>
        <pt x="1147" y="1352" on="1"/>
        <pt x="975" y="1381" on="1"/>
        <pt x="975" y="1522" on="1"/>
        <pt x="1499" y="1522" on="1"/>
        <pt x="1499" y="1381" on="1"/>
        <pt x="1364" y="1352" on="1"/>
        <pt x="1364" y="607" on="1"/>
        <pt x="1364" y="439" on="0"/>
        <pt x="1276" y="202" on="0"/>
        <pt x="1122" y="53" on="0"/>
        <pt x="911" y="-16" on="0"/>
      </contour>
    </TTGlyph>
    <TTGlyph name="Uacute" xMin="30" yMin="-16" xMax="1499" yMax="2014">
      <component glyphName="acute.cap" x="226" y="0" flags="0x4"/>
      <component glyphName="U" x="0" y="0" flags="0x4"/>
    </TTGlyph>
    <TTGlyph name="Ubreve" xMin="30" yMin="-16" xMax="1499" yMax="2004">
      <component glyphName="breve.cap" x="290" y="0" flags="0x4"/>
      <component glyphName="U" x="0" y="0" flags="0x4"/>
    </TTGlyph>
    <TTGlyph name="Ucircumflex" xMin="30" yMin="-16" xMax="1499" yMax="2008">
      <component glyphName="U" x="0" y="0" flags="0x204"/>
      <component glyphName="circumflex.cap" x="278" y="0" flags="0x4"/>
    </TTGlyph>
    <TTGlyph name="Udieresis" xMin="30" yMin="-16" xMax="1499" yMax="1997">
      <component glyphName="dieresis.cap" x="291" y="0" flags="0x4"/>
      <component glyphName="U" x="0" y="0" flags="0x4"/>
    </TTGlyph>
    <TTGlyph name="Ugrave" xMin="30" yMin="-16" xMax="1499" yMax="2014">
      <component glyphName="grave.cap" x="343" y="0" flags="0x4"/>
      <component glyphName="U" x="0" y="0" flags="0x4"/>
    </TTGlyph>
    <TTGlyph name="Uhungarumlaut" xMin="30" yMin="-16" xMax="1499" yMax="2014">
      <component glyphName="U" x="0" y="0" flags="0x204"/>
      <component glyphName="hungarumlaut.cap" x="290" y="0" flags="0x4"/>
    </TTGlyph>
    <TTGlyph name="Umacron" xMin="30" yMin="-16" xMax="1499" yMax="1915">
      <component glyphName="macron.cap" x="460" y="0" flags="0x4"/>
      <component glyphName="U" x="0" y="0" flags="0x4"/>
    </TTGlyph>
    <TTGlyph name="Uogonek" xMin="30" yMin="-513" xMax="1499" yMax="1522">
      <contour>
        <pt x="787" y="-16" on="1"/>
        <pt x="628" y="-16" on="0"/>
        <pt x="392" y="56" on="0"/>
        <pt x="237" y="211" on="0"/>
        <pt x="160" y="454" on="0"/>
        <pt x="160" y="624" on="1"/>
        <pt x="160" y="1352" on="1"/>
        <pt x="30" y="1381" on="1"/>
        <pt x="30" y="1522" on="1"/>
        <pt x="680" y="1522" on="1"/>
        <pt x="680" y="1381" on="1"/>
        <pt x="511" y="1351" on="1"/>
        <pt x="511" y="595" on="1"/>
        <pt x="511" y="355" on="0"/>
        <pt x="672" y="126" on="0"/>
        <pt x="833" y="126" on="1"/>
        <pt x="915" y="126" on="0"/>
        <pt x="1034" y="192" on="0"/>
        <pt x="1111" y="313" on="0"/>
        <pt x="1147" y="484" on="0"/>
        <pt x="1147" y="590" on="1"/>
        <pt x="1147" y="1352" on="1"/>
        <pt x="975" y="1381" on="1"/>
        <pt x="975" y="1522" on="1"/>
        <pt x="1499" y="1522" on="1"/>
        <pt x="1499" y="1381" on="1"/>
        <pt x="1364" y="1352" on="1"/>
        <pt x="1364" y="607" on="1"/>
        <pt x="1364" y="485" on="0"/>
        <pt x="1317" y="293" on="0"/>
        <pt x="1231" y="150" on="0"/>
        <pt x="1109" y="53" on="0"/>
        <pt x="1035" y="25" on="1"/>
        <pt x="996" y="-4" on="0"/>
        <pt x="930" y="-63" on="0"/>
        <pt x="882" y="-123" on="0"/>
        <pt x="856" y="-183" on="0"/>
        <pt x="856" y="-211" on="1"/>
        <pt x="856" y="-263" on="0"/>
        <pt x="926" y="-330" on="0"/>
        <pt x="986" y="-330" on="1"/>
        <pt x="1022" y="-330" on="0"/>
        <pt x="1075" y="-318" on="0"/>
        <pt x="1110" y="-304" on="1"/>
        <pt x="1110" y="-444" on="1"/>
        <pt x="1088" y="-460" on="0"/>
        <pt x="1028" y="-486" on="0"/>
        <pt x="961" y="-504" on="0"/>
        <pt x="891" y="-513" on="0"/>
        <pt x="859" y="-513" on="1"/>
        <pt x="806" y="-513" on="0"/>
        <pt x="709" y="-491" on="0"/>
        <pt x="634" y="-442" on="0"/>
        <pt x="589" y="-364" on="0"/>
        <pt x="589" y="-309" on="1"/>
        <pt x="589" y="-266" on="0"/>
        <pt x="632" y="-179" on="0"/>
        <pt x="702" y="-101" on="0"/>
        <pt x="790" y="-36" on="0"/>
        <pt x="835" y="-14" on="1"/>
        <pt x="823" y="-15" on="0"/>
        <pt x="799" y="-16" on="0"/>
      </contour>
    </TTGlyph>
    <TTGlyph name="Uring" xMin="30" yMin="-16" xMax="1499" yMax="2014">
      <component glyphName="U" x="0" y="0" flags="0x204"/>
      <component glyphName="ring.cap" x="365" y="0" flags="0x4"/>
    </TTGlyph>
    <TTGlyph name="Utilde" xMin="30" yMin="-16" xMax="1499" yMax="2009">
      <component glyphName="tilde.cap" x="290" y="0" flags="0x4"/>
      <component glyphName="U" x="0" y="0" flags="0x4"/>
    </TTGlyph>
    <TTGlyph name="V" xMin="-36" yMin="-15" xMax="1463" yMax="1522">
      <contour>
        <pt x="86" y="1353" on="1"/>
        <pt x="-36" y="1381" on="1"/>
        <pt x="-36" y="1522" on="1"/>
        <pt x="624" y="1522" on="1"/>
        <pt x="624" y="1381" on="1"/>
        <pt x="452" y="1353" on="1"/>
        <pt x="736" y="453" on="1"/>
        <pt x="784" y="272" on="1"/>
        <pt x="824" y="454" on="1"/>
        <pt x="1104" y="1352" on="1"/>
        <pt x="949" y="1381" on="1"/>
        <pt x="949" y="1522" on="1"/>
        <pt x="1463" y="1522" on="1"/>
        <pt x="1463" y="1381" on="1"/>
        <pt x="1331" y="1353" on="1"/>
        <pt x="861" y="-15" on="1"/>
        <pt x="588" y="-15" on="1"/>
      </contour>
    </TTGlyph>
    <TTGlyph name="W" xMin="-39" yMin="-10" xMax="2133" yMax="1522">
      <contour>
        <pt x="81" y="1351" on="1"/>
        <pt x="-39" y="1381" on="1"/>
        <pt x="-39" y="1522" on="1"/>
        <pt x="603" y="1522" on="1"/>
        <pt x="603" y="1381" on="1"/>
        <pt x="435" y="1351" on="1"/>
        <pt x="682" y="444" on="1"/>
        <pt x="719" y="246" on="1"/>
        <pt x="754" y="444" on="1"/>
        <pt x="963" y="1176" on="1"/>
        <pt x="905" y="1352" on="1"/>
        <pt x="777" y="1381" on="1"/>
        <pt x="777" y="1522" on="1"/>
        <pt x="1444" y="1522" on="1"/>
        <pt x="1444" y="1381" on="1"/>
        <pt x="1254" y="1352" on="1"/>
        <pt x="1502" y="444" on="1"/>
        <pt x="1545" y="231" on="1"/>
        <pt x="1580" y="444" on="1"/>
        <pt x="1808" y="1352" on="1"/>
        <pt x="1630" y="1381" on="1"/>
        <pt x="1630" y="1522" on="1"/>
        <pt x="2133" y="1522" on="1"/>
        <pt x="2133" y="1381" on="1"/>
        <pt x="2004" y="1351" on="1"/>
        <pt x="1617" y="-10" on="1"/>
        <pt x="1314" y="-10" on="1"/>
        <pt x="1049" y="900" on="1"/>
        <pt x="796" y="-10" on="1"/>
        <pt x="499" y="-10" on="1"/>
      </contour>
    </TTGlyph>
    <TTGlyph name="Wacute" xMin="-43" yMin="-10" xMax="2129" yMax="2014">
      <component glyphName="acute.cap" x="492" y="0" flags="0x4"/>
      <component glyphName="W" x="-4" y="0" flags="0x4"/>
    </TTGlyph>
    <TTGlyph name="Wcircumflex" xMin="-43" yMin="-10" xMax="2129" yMax="2008">
      <component glyphName="W" x="-4" y="0" flags="0x4"/>
      <component glyphName="circumflex.cap" x="539" y="0" flags="0x4"/>
    </TTGlyph>
    <TTGlyph name="Wdieresis" xMin="-43" yMin="-10" xMax="2129" yMax="1997">
      <component glyphName="dieresis.cap" x="556" y="0" flags="0x4"/>
      <component glyphName="W" x="-4" y="0" flags="0x4"/>
    </TTGlyph>
    <TTGlyph name="Wgrave" xMin="-43" yMin="-10" xMax="2129" yMax="2014">
      <component glyphName="grave.cap" x="603" y="0" flags="0x4"/>
      <component glyphName="W" x="-4" y="0" flags="0x4"/>
    </TTGlyph>
    <TTGlyph name="X" xMin="10" yMin="0" xMax="1485" yMax="1522">
      <contour>
        <pt x="10" y="134" on="1"/>
        <pt x="180" y="159" on="1"/>
        <pt x="573" y="739" on="1"/>
        <pt x="164" y="1352" on="1"/>
        <pt x="26" y="1381" on="1"/>
        <pt x="26" y="1522" on="1"/>
        <pt x="717" y="1522" on="1"/>
        <pt x="717" y="1381" on="1"/>
        <pt x="562" y="1351" on="1"/>
        <pt x="820" y="919" on="1"/>
        <pt x="1089" y="1353" on="1"/>
        <pt x="922" y="1381" on="1"/>
        <pt x="922" y="1522" on="1"/>
        <pt x="1458" y="1522" on="1"/>
        <pt x="1458" y="1381" on="1"/>
        <pt x="1296" y="1353" on="1"/>
        <pt x="904" y="814" on="1"/>
        <pt x="1344" y="160" on="1"/>
        <pt x="1485" y="134" on="1"/>
        <pt x="1485" y="0" on="1"/>
        <pt x="794" y="0" on="1"/>
        <pt x="794" y="134" on="1"/>
        <pt x="948" y="160" on="1"/>
        <pt x="661" y="629" on="1"/>
        <pt x="393" y="159" on="1"/>
        <pt x="577" y="134" on="1"/>
        <pt x="577" y="0" on="1"/>
        <pt x="10" y="0" on="1"/>
      </contour>
    </TTGlyph>
    <TTGlyph name="Y" xMin="-35" yMin="0" xMax="1387" yMax="1522">
      <contour>
        <pt x="300" y="134" on="1"/>
        <pt x="509" y="159" on="1"/>
        <pt x="509" y="609" on="1"/>
        <pt x="85" y="1352" on="1"/>
        <pt x="-35" y="1381" on="1"/>
        <pt x="-35" y="1522" on="1"/>
        <pt x="603" y="1522" on="1"/>
        <pt x="603" y="1381" on="1"/>
        <pt x="468" y="1352" on="1"/>
        <pt x="707" y="871" on="1"/>
        <pt x="753" y="742" on="1"/>
        <pt x="804" y="869" on="1"/>
        <pt x="1023" y="1353" on="1"/>
        <pt x="870" y="1381" on="1"/>
        <pt x="870" y="1522" on="1"/>
        <pt x="1387" y="1522" on="1"/>
        <pt x="1387" y="1381" on="1"/>
        <pt x="1260" y="1355" on="1"/>
        <pt x="866" y="609" on="1"/>
        <pt x="866" y="160" on="1"/>
        <pt x="1083" y="134" on="1"/>
        <pt x="1083" y="0" on="1"/>
        <pt x="300" y="0" on="1"/>
      </contour>
    </TTGlyph>
    <TTGlyph name="Yacute" xMin="-46" yMin="0" xMax="1376" yMax="2014">
      <component glyphName="Y" x="-11" y="0" flags="0x4"/>
      <component glyphName="acute.cap" x="117" y="0" flags="0x4"/>
    </TTGlyph>
    <TTGlyph name="Ycircumflex" xMin="-46" yMin="0" xMax="1376" yMax="2008">
      <component glyphName="Y" x="-11" y="0" flags="0x4"/>
      <component glyphName="circumflex.cap" x="164" y="0" flags="0x4"/>
    </TTGlyph>
    <TTGlyph name="Ydieresis" xMin="-46" yMin="0" xMax="1376" yMax="1997">
      <component glyphName="Y" x="-11" y="0" flags="0x4"/>
      <component glyphName="dieresis.cap" x="180" y="0" flags="0x4"/>
    </TTGlyph>
    <TTGlyph name="Ygrave" xMin="-46" yMin="0" xMax="1376" yMax="2014">
      <component glyphName="Y" x="-11" y="0" flags="0x4"/>
      <component glyphName="grave.cap" x="227" y="0" flags="0x4"/>
    </TTGlyph>
    <TTGlyph name="Z" xMin="31" yMin="0" xMax="1284" yMax="1527">
      <contour>
        <pt x="31" y="120" on="1"/>
        <pt x="779" y="1261" on="1"/>
        <pt x="896" y="1394" on="1"/>
        <pt x="410" y="1367" on="1"/>
        <pt x="292" y="1091" on="1"/>
        <pt x="121" y="1116" on="1"/>
        <pt x="170" y="1527" on="1"/>
        <pt x="1223" y="1527" on="1"/>
        <pt x="1277" y="1406" on="1"/>
        <pt x="544" y="266" on="1"/>
        <pt x="407" y="139" on="1"/>
        <pt x="990" y="181" on="1"/>
        <pt x="1111" y="490" on="1"/>
        <pt x="1284" y="456" on="1"/>
        <pt x="1238" y="0" on="1"/>
        <pt x="102" y="0" on="1"/>
      </contour>
    </TTGlyph>
    <TTGlyph name="Zacute" xMin="31" yMin="0" xMax="1284" yMax="2014">
      <component glyphName="Z" x="0" y="0" flags="0x204"/>
      <component glyphName="acute.cap" x="142" y="0" flags="0x4"/>
    </TTGlyph>
    <TTGlyph name="Zcaron" xMin="31" yMin="0" xMax="1284" yMax="2014">
      <component glyphName="caron.cap" x="382" y="0" flags="0x4"/>
      <component glyphName="Z" x="0" y="0" flags="0x4"/>
    </TTGlyph>
    <TTGlyph name="Zdotaccent" xMin="31" yMin="0" xMax="1284" yMax="1998">
      <component glyphName="dotaccent.cap" x="424" y="0" flags="0x4"/>
      <component glyphName="Z" x="0" y="0" flags="0x4"/>
    </TTGlyph>
    <TTGlyph name="a" xMin="58" yMin="-25" xMax="1130" yMax="1164">
      <contour>
        <pt x="58" y="319" on="1"/>
        <pt x="58" y="416" on="0"/>
        <pt x="153" y="558" on="0"/>
        <pt x="326" y="652" on="0"/>
        <pt x="571" y="699" on="0"/>
        <pt x="721" y="701" on="1"/>
        <pt x="721" y="743" on="1"/>
        <pt x="721" y="795" on="0"/>
        <pt x="705" y="873" on="0"/>
        <pt x="660" y="925" on="0"/>
        <pt x="581" y="950" on="0"/>
        <pt x="518" y="950" on="1"/>
        <pt x="460" y="950" on="0"/>
        <pt x="359" y="934" on="0"/>
        <pt x="271" y="910" on="0"/>
        <pt x="198" y="882" on="0"/>
        <pt x="168" y="869" on="1"/>
        <pt x="167" y="869" on="1"/>
        <pt x="102" y="1004" on="1"/>
        <pt x="122" y="1021" on="0"/>
        <pt x="217" y="1075" on="0"/>
        <pt x="350" y="1127" on="0"/>
        <pt x="513" y="1164" on="0"/>
        <pt x="600" y="1164" on="1"/>
        <pt x="720" y="1164" on="0"/>
        <pt x="882" y="1118" on="0"/>
        <pt x="979" y="1018" on="0"/>
        <pt x="1021" y="860" on="0"/>
        <pt x="1021" y="748" on="1"/>
        <pt x="1021" y="135" on="1"/>
        <pt x="1130" y="135" on="1"/>
        <pt x="1130" y="8" on="1"/>
        <pt x="1111" y="4" on="0"/>
        <pt x="1049" y="-7" on="0"/>
        <pt x="976" y="-18" on="0"/>
        <pt x="900" y="-25" on="0"/>
        <pt x="867" y="-25" on="1"/>
        <pt x="829" y="-25" on="0"/>
        <pt x="777" y="-16" on="0"/>
        <pt x="746" y="10" on="0"/>
        <pt x="733" y="55" on="0"/>
        <pt x="733" y="90" on="1"/>
        <pt x="733" y="121" on="1"/>
        <pt x="713" y="98" on="0"/>
        <pt x="652" y="48" on="0"/>
        <pt x="570" y="5" on="0"/>
        <pt x="468" y="-23" on="0"/>
        <pt x="407" y="-23" on="1"/>
        <pt x="337" y="-23" on="0"/>
        <pt x="210" y="21" on="0"/>
        <pt x="114" y="107" on="0"/>
        <pt x="58" y="235" on="0"/>
      </contour>
      <contour>
        <pt x="562" y="165" on="1"/>
        <pt x="579" y="165" on="0"/>
        <pt x="621" y="174" on="0"/>
        <pt x="664" y="191" on="0"/>
        <pt x="705" y="215" on="0"/>
        <pt x="721" y="230" on="1"/>
        <pt x="721" y="566" on="1"/>
        <pt x="631" y="566" on="0"/>
        <pt x="509" y="530" on="0"/>
        <pt x="436" y="471" on="0"/>
        <pt x="405" y="396" on="0"/>
        <pt x="405" y="356" on="1"/>
        <pt x="405" y="262" on="0"/>
        <pt x="492" y="165" on="0"/>
      </contour>
    </TTGlyph>
    <TTGlyph name="aacute" xMin="58" yMin="-25" xMax="1130" yMax="1837">
      <component glyphName="a" x="0" y="0" flags="0x4"/>
      <component glyphName="acute" x="229" y="0" flags="0x4"/>
    </TTGlyph>
    <TTGlyph name="abreve" xMin="58" yMin="-25" xMax="1130" yMax="1764">
      <component glyphName="a" x="0" y="0" flags="0x4"/>
      <component glyphName="breve" x="59" y="0" flags="0x4"/>
    </TTGlyph>
    <TTGlyph name="acircumflex" xMin="58" yMin="-25" xMax="1130" yMax="1792">
      <component glyphName="a" x="0" y="0" flags="0x4"/>
      <component glyphName="circumflex" x="53" y="0" flags="0x4"/>
    </TTGlyph>
    <TTGlyph name="acute" xMin="157" yMin="1307" xMax="710" yMax="1837">
      <contour>
        <pt x="157" y="1407" on="1"/>
        <pt x="515" y="1837" on="1"/>
        <pt x="516" y="1837" on="1"/>
        <pt x="710" y="1662" on="1"/>
        <pt x="693" y="1633" on="0"/>
        <pt x="632" y="1563" on="0"/>
        <pt x="555" y="1491" on="0"/>
        <pt x="468" y="1421" on="0"/>
        <pt x="384" y="1361" on="0"/>
        <pt x="308" y="1317" on="0"/>
        <pt x="280" y="1307" on="1"/>
        <pt x="278" y="1307" on="1"/>
      </contour>
    </TTGlyph>
    <TTGlyph name="acute.cap" xMin="418" yMin="1614" xMax="937" yMax="2014">
      <contour>
        <pt x="418" y="1702" on="1"/>
        <pt x="731" y="2014" on="1"/>
        <pt x="732" y="2014" on="1"/>
        <pt x="937" y="1866" on="1"/>
        <pt x="897" y="1818" on="0"/>
        <pt x="785" y="1733" on="0"/>
        <pt x="670" y="1666" on="0"/>
        <pt x="567" y="1621" on="0"/>
        <pt x="536" y="1614" on="1"/>
        <pt x="535" y="1614" on="1"/>
      </contour>
    </TTGlyph>
    <TTGlyph name="adieresis" xMin="58" yMin="-25" xMax="1130" yMax="1688">
      <component glyphName="a" x="0" y="0" flags="0x4"/>
      <component glyphName="dieresis" x="59" y="0" flags="0x4"/>
    </TTGlyph>
    <TTGlyph name="ae" xMin="59" yMin="-23" xMax="1716" yMax="1167">
      <contour>
        <pt x="1262" y="-23" on="1"/>
        <pt x="1101" y="-23" on="0"/>
        <pt x="883" y="86" on="0"/>
        <pt x="818" y="183" on="1"/>
        <pt x="791" y="142" on="0"/>
        <pt x="707" y="68" on="0"/>
        <pt x="600" y="11" on="0"/>
        <pt x="474" y="-23" on="0"/>
        <pt x="405" y="-23" on="1"/>
        <pt x="336" y="-23" on="0"/>
        <pt x="210" y="18" on="0"/>
        <pt x="115" y="100" on="0"/>
        <pt x="59" y="225" on="0"/>
        <pt x="59" y="309" on="1"/>
        <pt x="59" y="408" on="0"/>
        <pt x="155" y="554" on="0"/>
        <pt x="330" y="651" on="0"/>
        <pt x="574" y="699" on="0"/>
        <pt x="721" y="701" on="1"/>
        <pt x="721" y="744" on="1"/>
        <pt x="721" y="796" on="0"/>
        <pt x="704" y="872" on="0"/>
        <pt x="658" y="922" on="0"/>
        <pt x="578" y="946" on="0"/>
        <pt x="515" y="946" on="1"/>
        <pt x="458" y="946" on="0"/>
        <pt x="358" y="931" on="0"/>
        <pt x="269" y="908" on="0"/>
        <pt x="192" y="879" on="0"/>
        <pt x="159" y="865" on="1"/>
        <pt x="93" y="1004" on="1"/>
        <pt x="114" y="1023" on="0"/>
        <pt x="213" y="1077" on="0"/>
        <pt x="349" y="1128" on="0"/>
        <pt x="513" y="1164" on="0"/>
        <pt x="600" y="1164" on="1"/>
        <pt x="727" y="1164" on="0"/>
        <pt x="882" y="1111" on="0"/>
        <pt x="923" y="1053" on="1"/>
        <pt x="992" y="1109" on="0"/>
        <pt x="1169" y="1167" on="0"/>
        <pt x="1275" y="1167" on="1"/>
        <pt x="1488" y="1167" on="0"/>
        <pt x="1710" y="951" on="0"/>
        <pt x="1715" y="753" on="1"/>
        <pt x="1716" y="684" on="0"/>
        <pt x="1708" y="582" on="0"/>
        <pt x="1700" y="542" on="1"/>
        <pt x="1051" y="542" on="1"/>
        <pt x="1057" y="447" on="0"/>
        <pt x="1105" y="310" on="0"/>
        <pt x="1182" y="222" on="0"/>
        <pt x="1286" y="180" on="0"/>
        <pt x="1349" y="180" on="1"/>
        <pt x="1391" y="180" on="0"/>
        <pt x="1477" y="196" on="0"/>
        <pt x="1556" y="220" on="0"/>
        <pt x="1623" y="250" on="0"/>
        <pt x="1646" y="264" on="1"/>
        <pt x="1700" y="141" on="1"/>
        <pt x="1676" y="115" on="0"/>
        <pt x="1586" y="57" on="0"/>
        <pt x="1469" y="9" on="0"/>
        <pt x="1333" y="-23" on="0"/>
      </contour>
      <contour>
        <pt x="557" y="165" on="1"/>
        <pt x="589" y="165" on="0"/>
        <pt x="652" y="186" on="0"/>
        <pt x="708" y="220" on="0"/>
        <pt x="753" y="262" on="0"/>
        <pt x="767" y="284" on="1"/>
        <pt x="744" y="346" on="0"/>
        <pt x="721" y="488" on="0"/>
        <pt x="721" y="568" on="1"/>
        <pt x="721" y="571" on="1"/>
        <pt x="632" y="571" on="0"/>
        <pt x="512" y="533" on="0"/>
        <pt x="440" y="471" on="0"/>
        <pt x="409" y="394" on="0"/>
        <pt x="409" y="354" on="1"/>
        <pt x="409" y="303" on="0"/>
        <pt x="431" y="232" on="0"/>
        <pt x="470" y="186" on="0"/>
        <pt x="524" y="165" on="0"/>
      </contour>
      <contour>
        <pt x="1236" y="1026" on="1"/>
        <pt x="1197" y="1026" on="0"/>
        <pt x="1130" y="998" on="0"/>
        <pt x="1080" y="921" on="0"/>
        <pt x="1050" y="786" on="0"/>
        <pt x="1048" y="679" on="1"/>
        <pt x="1392" y="679" on="1"/>
        <pt x="1393" y="695" on="0"/>
        <pt x="1394" y="747" on="0"/>
        <pt x="1394" y="763" on="1"/>
        <pt x="1394" y="819" on="0"/>
        <pt x="1378" y="915" on="0"/>
        <pt x="1342" y="986" on="0"/>
        <pt x="1281" y="1026" on="0"/>
      </contour>
    </TTGlyph>
    <TTGlyph name="aeacute" xMin="59" yMin="-23" xMax="1716" yMax="1837">
      <component glyphName="acute" x="557" y="0" flags="0x4"/>
      <component glyphName="ae" x="0" y="0" flags="0x4"/>
    </TTGlyph>
    <TTGlyph name="afii10017" xMin="-42" yMin="0" xMax="1474" yMax="1529">
      <component glyphName="A" x="0" y="0" flags="0x204"/>
    </TTGlyph>
    <TTGlyph name="afii10018" xMin="51" yMin="-16" xMax="1357" yMax="1522">
      <contour>
        <pt x="51" y="134" on="1"/>
        <pt x="233" y="159" on="1"/>
        <pt x="233" y="1353" on="1"/>
        <pt x="52" y="1381" on="1"/>
        <pt x="52" y="1522" on="1"/>
        <pt x="1228" y="1522" on="1"/>
        <pt x="1249" y="1109" on="1"/>
        <pt x="1053" y="1109" on="1"/>
        <pt x="987" y="1357" on="1"/>
        <pt x="569" y="1374" on="1"/>
        <pt x="569" y="902" on="1"/>
        <pt x="819" y="902" on="1"/>
        <pt x="1092" y="902" on="0"/>
        <pt x="1357" y="683" on="0"/>
        <pt x="1357" y="466" on="1"/>
        <pt x="1357" y="349" on="0"/>
        <pt x="1277" y="169" on="0"/>
        <pt x="1134" y="47" on="0"/>
        <pt x="935" y="-16" on="0"/>
        <pt x="816" y="-16" on="1"/>
        <pt x="804" y="-16" on="0"/>
        <pt x="746" y="-14" on="0"/>
        <pt x="671" y="-10" on="0"/>
        <pt x="585" y="-6" on="0"/>
        <pt x="504" y="-2" on="0"/>
        <pt x="434" y="0" on="0"/>
        <pt x="413" y="0" on="1"/>
        <pt x="51" y="0" on="1"/>
      </contour>
      <contour>
        <pt x="569" y="756" on="1"/>
        <pt x="569" y="145" on="1"/>
        <pt x="580" y="141" on="0"/>
        <pt x="605" y="134" on="0"/>
        <pt x="639" y="128" on="0"/>
        <pt x="684" y="125" on="0"/>
        <pt x="715" y="125" on="1"/>
        <pt x="796" y="125" on="0"/>
        <pt x="908" y="174" on="0"/>
        <pt x="977" y="260" on="0"/>
        <pt x="1008" y="378" on="0"/>
        <pt x="1008" y="448" on="1"/>
        <pt x="1008" y="611" on="0"/>
        <pt x="862" y="756" on="0"/>
        <pt x="723" y="756" on="1"/>
      </contour>
    </TTGlyph>
    <TTGlyph name="afii10019" xMin="77" yMin="-12" xMax="1395" yMax="1535">
      <component glyphName="B" x="0" y="0" flags="0x204"/>
    </TTGlyph>
    <TTGlyph name="afii10020" xMin="49" yMin="0" xMax="1219" yMax="1522">
      <contour>
        <pt x="610" y="161" on="1"/>
        <pt x="927" y="134" on="1"/>
        <pt x="927" y="0" on="1"/>
        <pt x="49" y="0" on="1"/>
        <pt x="49" y="134" on="1"/>
        <pt x="271" y="161" on="1"/>
        <pt x="271" y="1351" on="1"/>
        <pt x="53" y="1384" on="1"/>
        <pt x="53" y="1522" on="1"/>
        <pt x="1194" y="1522" on="1"/>
        <pt x="1219" y="929" on="1"/>
        <pt x="1022" y="929" on="1"/>
        <pt x="948" y="1353" on="1"/>
        <pt x="610" y="1374" on="1"/>
      </contour>
    </TTGlyph>
    <TTGlyph name="afii10021" xMin="38" yMin="-410" xMax="1494" yMax="1522">
      <contour>
        <pt x="38" y="-410" on="1"/>
        <pt x="39" y="-396" on="0"/>
        <pt x="42" y="-318" on="0"/>
        <pt x="45" y="-214" on="0"/>
        <pt x="48" y="-92" on="0"/>
        <pt x="52" y="24" on="0"/>
        <pt x="55" y="125" on="0"/>
        <pt x="57" y="158" on="1"/>
        <pt x="62" y="154" on="1"/>
        <pt x="62" y="160" on="1"/>
        <pt x="205" y="160" on="1"/>
        <pt x="234" y="202" on="0"/>
        <pt x="317" y="373" on="0"/>
        <pt x="393" y="644" on="0"/>
        <pt x="447" y="1021" on="0"/>
        <pt x="447" y="1269" on="1"/>
        <pt x="447" y="1353" on="1"/>
        <pt x="235" y="1381" on="1"/>
        <pt x="235" y="1522" on="1"/>
        <pt x="1494" y="1522" on="1"/>
        <pt x="1494" y="1381" on="1"/>
        <pt x="1299" y="1353" on="1"/>
        <pt x="1299" y="160" on="1"/>
        <pt x="1493" y="160" on="1"/>
        <pt x="1493" y="136" on="0"/>
        <pt x="1491" y="37" on="0"/>
        <pt x="1487" y="-85" on="0"/>
        <pt x="1482" y="-215" on="0"/>
        <pt x="1478" y="-325" on="0"/>
        <pt x="1473" y="-400" on="0"/>
        <pt x="1472" y="-406" on="1"/>
        <pt x="1287" y="-406" on="1"/>
        <pt x="1286" y="-390" on="0"/>
        <pt x="1276" y="-323" on="0"/>
        <pt x="1259" y="-238" on="0"/>
        <pt x="1238" y="-146" on="0"/>
        <pt x="1219" y="-67" on="0"/>
        <pt x="1201" y="-9" on="0"/>
        <pt x="1196" y="0" on="1"/>
        <pt x="334" y="0" on="1"/>
        <pt x="326" y="-8" on="0"/>
        <pt x="307" y="-63" on="0"/>
        <pt x="285" y="-141" on="0"/>
        <pt x="264" y="-231" on="0"/>
        <pt x="245" y="-317" on="0"/>
        <pt x="231" y="-389" on="0"/>
        <pt x="228" y="-410" on="1"/>
      </contour>
      <contour>
        <pt x="614" y="1257" on="1"/>
        <pt x="615" y="1033" on="0"/>
        <pt x="578" y="674" on="0"/>
        <pt x="522" y="400" on="0"/>
        <pt x="458" y="212" on="0"/>
        <pt x="431" y="160" on="1"/>
        <pt x="965" y="160" on="1"/>
        <pt x="966" y="1367" on="1"/>
        <pt x="614" y="1367" on="1"/>
      </contour>
    </TTGlyph>
    <TTGlyph name="afii10022" xMin="74" yMin="0" xMax="1318" yMax="1522">
      <component glyphName="E" x="0" y="0" flags="0x204"/>
    </TTGlyph>
    <TTGlyph name="afii10023" xMin="74" yMin="0" xMax="1318" yMax="1997">
      <component glyphName="dieresis.cap" x="190" y="0" flags="0x4"/>
      <component glyphName="E" x="0" y="0" flags="0x4"/>
    </TTGlyph>
    <TTGlyph name="afii10024" xMin="2" yMin="0" xMax="2173" yMax="1522">
      <contour>
        <pt x="1816" y="0" on="1"/>
        <pt x="1785" y="0" on="0"/>
        <pt x="1726" y="60" on="0"/>
        <pt x="1668" y="158" on="0"/>
        <pt x="1611" y="284" on="0"/>
        <pt x="1552" y="415" on="0"/>
        <pt x="1491" y="541" on="0"/>
        <pt x="1426" y="639" on="0"/>
        <pt x="1356" y="699" on="0"/>
        <pt x="1318" y="699" on="1"/>
        <pt x="1250" y="699" on="1"/>
        <pt x="1250" y="160" on="1"/>
        <pt x="1425" y="132" on="1"/>
        <pt x="1425" y="0" on="1"/>
        <pt x="754" y="0" on="1"/>
        <pt x="754" y="134" on="1"/>
        <pt x="925" y="161" on="1"/>
        <pt x="925" y="699" on="1"/>
        <pt x="858" y="699" on="1"/>
        <pt x="820" y="699" on="0"/>
        <pt x="750" y="639" on="0"/>
        <pt x="685" y="541" on="0"/>
        <pt x="624" y="415" on="0"/>
        <pt x="565" y="284" on="0"/>
        <pt x="507" y="158" on="0"/>
        <pt x="449" y="60" on="0"/>
        <pt x="390" y="0" on="0"/>
        <pt x="359" y="0" on="1"/>
        <pt x="2" y="0" on="1"/>
        <pt x="2" y="134" on="1"/>
        <pt x="86" y="160" on="1"/>
        <pt x="112" y="169" on="0"/>
        <pt x="171" y="261" on="0"/>
        <pt x="240" y="393" on="0"/>
        <pt x="320" y="546" on="0"/>
        <pt x="415" y="685" on="0"/>
        <pt x="526" y="793" on="0"/>
        <pt x="591" y="814" on="1"/>
        <pt x="207" y="1353" on="1"/>
        <pt x="40" y="1381" on="1"/>
        <pt x="40" y="1522" on="1"/>
        <pt x="591" y="1522" on="1"/>
        <pt x="591" y="1381" on="1"/>
        <pt x="453" y="1353" on="1"/>
        <pt x="785" y="825" on="1"/>
        <pt x="925" y="825" on="1"/>
        <pt x="925" y="1353" on="1"/>
        <pt x="763" y="1381" on="1"/>
        <pt x="763" y="1522" on="1"/>
        <pt x="1412" y="1522" on="1"/>
        <pt x="1412" y="1381" on="1"/>
        <pt x="1250" y="1353" on="1"/>
        <pt x="1250" y="825" on="1"/>
        <pt x="1391" y="825" on="1"/>
        <pt x="1721" y="1352" on="1"/>
        <pt x="1585" y="1381" on="1"/>
        <pt x="1585" y="1522" on="1"/>
        <pt x="2140" y="1522" on="1"/>
        <pt x="2140" y="1381" on="1"/>
        <pt x="1968" y="1353" on="1"/>
        <pt x="1584" y="814" on="1"/>
        <pt x="1649" y="793" on="0"/>
        <pt x="1760" y="685" on="0"/>
        <pt x="1855" y="545" on="0"/>
        <pt x="1936" y="393" on="0"/>
        <pt x="2005" y="261" on="0"/>
        <pt x="2064" y="169" on="0"/>
        <pt x="2090" y="160" on="1"/>
        <pt x="2173" y="134" on="1"/>
        <pt x="2173" y="0" on="1"/>
      </contour>
    </TTGlyph>
    <TTGlyph name="afii10025" xMin="87" yMin="-12" xMax="1204" yMax="1538">
      <contour>
        <pt x="295" y="459" on="1"/>
        <pt x="368" y="179" on="1"/>
        <pt x="397" y="158" on="0"/>
        <pt x="501" y="124" on="0"/>
        <pt x="584" y="124" on="1"/>
        <pt x="642" y="124" on="0"/>
        <pt x="729" y="171" on="0"/>
        <pt x="786" y="254" on="0"/>
        <pt x="815" y="368" on="0"/>
        <pt x="815" y="434" on="1"/>
        <pt x="815" y="486" on="0"/>
        <pt x="793" y="587" on="0"/>
        <pt x="734" y="667" on="0"/>
        <pt x="633" y="716" on="0"/>
        <pt x="555" y="716" on="1"/>
        <pt x="420" y="716" on="1"/>
        <pt x="420" y="869" on="1"/>
        <pt x="534" y="869" on="1"/>
        <pt x="586" y="869" on="0"/>
        <pt x="685" y="901" on="0"/>
        <pt x="762" y="973" on="0"/>
        <pt x="809" y="1087" on="0"/>
        <pt x="809" y="1169" on="1"/>
        <pt x="809" y="1231" on="0"/>
        <pt x="772" y="1320" on="0"/>
        <pt x="708" y="1376" on="0"/>
        <pt x="621" y="1402" on="0"/>
        <pt x="572" y="1402" on="1"/>
        <pt x="488" y="1402" on="0"/>
        <pt x="397" y="1359" on="0"/>
        <pt x="384" y="1330" on="1"/>
        <pt x="336" y="1139" on="1"/>
        <pt x="149" y="1139" on="1"/>
        <pt x="120" y="1475" on="1"/>
        <pt x="152" y="1477" on="0"/>
        <pt x="264" y="1497" on="0"/>
        <pt x="395" y="1520" on="0"/>
        <pt x="532" y="1538" on="0"/>
        <pt x="590" y="1538" on="1"/>
        <pt x="726" y="1538" on="0"/>
        <pt x="940" y="1496" on="0"/>
        <pt x="1088" y="1409" on="0"/>
        <pt x="1166" y="1278" on="0"/>
        <pt x="1166" y="1190" on="1"/>
        <pt x="1166" y="1102" on="0"/>
        <pt x="1103" y="969" on="0"/>
        <pt x="1001" y="876" on="0"/>
        <pt x="873" y="818" on="0"/>
        <pt x="807" y="805" on="1"/>
        <pt x="909" y="802" on="0"/>
        <pt x="1059" y="743" on="0"/>
        <pt x="1157" y="648" on="0"/>
        <pt x="1204" y="524" on="0"/>
        <pt x="1204" y="456" on="1"/>
        <pt x="1204" y="352" on="0"/>
        <pt x="1140" y="179" on="0"/>
        <pt x="989" y="56" on="0"/>
        <pt x="739" y="-12" on="0"/>
        <pt x="553" y="-12" on="1"/>
        <pt x="466" y="-12" on="0"/>
        <pt x="324" y="10" on="0"/>
        <pt x="210" y="38" on="0"/>
        <pt x="121" y="67" on="0"/>
        <pt x="87" y="73" on="1"/>
        <pt x="137" y="459" on="1"/>
      </contour>
    </TTGlyph>
    <TTGlyph name="afii10026" xMin="77" yMin="0" xMax="1670" yMax="1522">
      <contour>
        <pt x="1178" y="1310" on="1"/>
        <pt x="1178" y="1353" on="1"/>
        <pt x="1016" y="1381" on="1"/>
        <pt x="1016" y="1522" on="1"/>
        <pt x="1664" y="1522" on="1"/>
        <pt x="1664" y="1381" on="1"/>
        <pt x="1512" y="1353" on="1"/>
        <pt x="1512" y="160" on="1"/>
        <pt x="1670" y="134" on="1"/>
        <pt x="1670" y="0" on="1"/>
        <pt x="1014" y="0" on="1"/>
        <pt x="1014" y="134" on="1"/>
        <pt x="1178" y="160" on="1"/>
        <pt x="1178" y="1077" on="1"/>
        <pt x="1085" y="893" on="1"/>
        <pt x="567" y="217" on="1"/>
        <pt x="567" y="160" on="1"/>
        <pt x="738" y="134" on="1"/>
        <pt x="738" y="0" on="1"/>
        <pt x="77" y="0" on="1"/>
        <pt x="77" y="134" on="1"/>
        <pt x="233" y="160" on="1"/>
        <pt x="233" y="1353" on="1"/>
        <pt x="81" y="1381" on="1"/>
        <pt x="81" y="1522" on="1"/>
        <pt x="741" y="1522" on="1"/>
        <pt x="741" y="1382" on="1"/>
        <pt x="567" y="1353" on="1"/>
        <pt x="567" y="447" on="1"/>
        <pt x="669" y="631" on="1"/>
      </contour>
    </TTGlyph>
    <TTGlyph name="afii10027" xMin="77" yMin="0" xMax="1670" yMax="2014">
      <component glyphName="breve.rcap" x="363" y="0" flags="0x4"/>
      <component glyphName="afii10026" x="0" y="0" flags="0x4"/>
    </TTGlyph>
    <TTGlyph name="afii10028" xMin="80" yMin="0" xMax="1489" yMax="1522">
      <contour>
        <pt x="1133" y="0" on="1"/>
        <pt x="1102" y="0" on="0"/>
        <pt x="1044" y="60" on="0"/>
        <pt x="987" y="158" on="0"/>
        <pt x="931" y="284" on="0"/>
        <pt x="873" y="415" on="0"/>
        <pt x="813" y="541" on="0"/>
        <pt x="750" y="639" on="0"/>
        <pt x="681" y="699" on="0"/>
        <pt x="643" y="699" on="1"/>
        <pt x="567" y="699" on="1"/>
        <pt x="567" y="160" on="1"/>
        <pt x="743" y="132" on="1"/>
        <pt x="743" y="0" on="1"/>
        <pt x="80" y="0" on="1"/>
        <pt x="80" y="134" on="1"/>
        <pt x="233" y="161" on="1"/>
        <pt x="233" y="1353" on="1"/>
        <pt x="80" y="1381" on="1"/>
        <pt x="80" y="1522" on="1"/>
        <pt x="715" y="1522" on="1"/>
        <pt x="715" y="1381" on="1"/>
        <pt x="567" y="1352" on="1"/>
        <pt x="567" y="825" on="1"/>
        <pt x="705" y="825" on="1"/>
        <pt x="1043" y="1352" on="1"/>
        <pt x="902" y="1381" on="1"/>
        <pt x="902" y="1522" on="1"/>
        <pt x="1457" y="1522" on="1"/>
        <pt x="1457" y="1381" on="1"/>
        <pt x="1286" y="1353" on="1"/>
        <pt x="902" y="818" on="1"/>
        <pt x="950" y="805" on="0"/>
        <pt x="1037" y="738" on="0"/>
        <pt x="1115" y="645" on="0"/>
        <pt x="1184" y="533" on="0"/>
        <pt x="1246" y="420" on="0"/>
        <pt x="1301" y="312" on="0"/>
        <pt x="1350" y="225" on="0"/>
        <pt x="1393" y="167" on="0"/>
        <pt x="1413" y="160" on="1"/>
        <pt x="1489" y="134" on="1"/>
        <pt x="1489" y="0" on="1"/>
      </contour>
    </TTGlyph>
    <TTGlyph name="afii10029" xMin="57" yMin="-14" xMax="1534" yMax="1522">
      <contour>
        <pt x="1331" y="1352" on="1"/>
        <pt x="1331" y="159" on="1"/>
        <pt x="1534" y="134" on="1"/>
        <pt x="1534" y="0" on="1"/>
        <pt x="783" y="0" on="1"/>
        <pt x="783" y="134" on="1"/>
        <pt x="1000" y="160" on="1"/>
        <pt x="999" y="1352" on="1"/>
        <pt x="638" y="1352" on="1"/>
        <pt x="638" y="1201" on="1"/>
        <pt x="638" y="1020" on="0"/>
        <pt x="619" y="697" on="0"/>
        <pt x="582" y="427" on="0"/>
        <pt x="527" y="216" on="0"/>
        <pt x="492" y="148" on="1"/>
        <pt x="447" y="63" on="0"/>
        <pt x="324" y="-14" on="0"/>
        <pt x="237" y="-14" on="1"/>
        <pt x="191" y="-14" on="0"/>
        <pt x="107" y="-6" on="0"/>
        <pt x="80" y="-1" on="1"/>
        <pt x="57" y="200" on="1"/>
        <pt x="73" y="199" on="0"/>
        <pt x="106" y="196" on="0"/>
        <pt x="145" y="194" on="0"/>
        <pt x="191" y="193" on="0"/>
        <pt x="221" y="193" on="1"/>
        <pt x="264" y="193" on="0"/>
        <pt x="326" y="231" on="0"/>
        <pt x="352" y="286" on="1"/>
        <pt x="368" y="321" on="0"/>
        <pt x="399" y="404" on="0"/>
        <pt x="426" y="515" on="0"/>
        <pt x="448" y="659" on="0"/>
        <pt x="464" y="848" on="0"/>
        <pt x="473" y="1091" on="0"/>
        <pt x="473" y="1245" on="1"/>
        <pt x="473" y="1352" on="1"/>
        <pt x="223" y="1381" on="1"/>
        <pt x="223" y="1522" on="1"/>
        <pt x="1518" y="1522" on="1"/>
        <pt x="1518" y="1381" on="1"/>
      </contour>
    </TTGlyph>
    <TTGlyph name="afii10030" xMin="-5" yMin="0" xMax="2118" yMax="1522">
      <component glyphName="M" x="0" y="0" flags="0x4"/>
    </TTGlyph>
    <TTGlyph name="afii10031" xMin="81" yMin="0" xMax="1635" yMax="1522">
      <component glyphName="H" x="0" y="0" flags="0x204"/>
    </TTGlyph>
    <TTGlyph name="afii10032" xMin="56" yMin="-25" xMax="1440" yMax="1541">
      <component glyphName="O" x="1" y="0" flags="0x4"/>
    </TTGlyph>
    <TTGlyph name="afii10033" xMin="73" yMin="0" xMax="1596" yMax="1522">
      <contour>
        <pt x="77" y="134" on="1"/>
        <pt x="233" y="160" on="1"/>
        <pt x="233" y="1353" on="1"/>
        <pt x="73" y="1381" on="1"/>
        <pt x="73" y="1522" on="1"/>
        <pt x="1584" y="1522" on="1"/>
        <pt x="1584" y="1382" on="1"/>
        <pt x="1423" y="1353" on="1"/>
        <pt x="1423" y="160" on="1"/>
        <pt x="1596" y="134" on="1"/>
        <pt x="1596" y="0" on="1"/>
        <pt x="939" y="0" on="1"/>
        <pt x="939" y="134" on="1"/>
        <pt x="1087" y="160" on="1"/>
        <pt x="1087" y="1368" on="1"/>
        <pt x="569" y="1368" on="1"/>
        <pt x="569" y="160" on="1"/>
        <pt x="735" y="134" on="1"/>
        <pt x="735" y="0" on="1"/>
        <pt x="77" y="0" on="1"/>
      </contour>
    </TTGlyph>
    <TTGlyph name="afii10034" xMin="77" yMin="0" xMax="1323" yMax="1534">
      <component glyphName="P" x="0" y="0" flags="0x204"/>
    </TTGlyph>
    <TTGlyph name="afii10035" xMin="55" yMin="-23" xMax="1284" yMax="1538">
      <component glyphName="C" x="0" y="0" flags="0x204"/>
    </TTGlyph>
    <TTGlyph name="afii10036" xMin="54" yMin="0" xMax="1440" yMax="1522">
      <component glyphName="T" x="20" y="0" flags="0x4"/>
    </TTGlyph>
    <TTGlyph name="afii10037" xMin="-12" yMin="-23" xMax="1361" yMax="1522">
      <contour>
        <pt x="464" y="-23" on="1"/>
        <pt x="433" y="-23" on="0"/>
        <pt x="365" y="-17" on="0"/>
        <pt x="300" y="-7" on="0"/>
        <pt x="246" y="7" on="0"/>
        <pt x="228" y="15" on="1"/>
        <pt x="228" y="201" on="1"/>
        <pt x="377" y="201" on="1"/>
        <pt x="426" y="201" on="0"/>
        <pt x="492" y="210" on="0"/>
        <pt x="535" y="234" on="0"/>
        <pt x="561" y="278" on="0"/>
        <pt x="570" y="313" on="1"/>
        <pt x="103" y="1353" on="1"/>
        <pt x="-12" y="1381" on="1"/>
        <pt x="-12" y="1522" on="1"/>
        <pt x="646" y="1522" on="1"/>
        <pt x="646" y="1381" on="1"/>
        <pt x="474" y="1352" on="1"/>
        <pt x="723" y="714" on="1"/>
        <pt x="774" y="555" on="1"/>
        <pt x="826" y="716" on="1"/>
        <pt x="1040" y="1354" on="1"/>
        <pt x="897" y="1381" on="1"/>
        <pt x="897" y="1522" on="1"/>
        <pt x="1361" y="1522" on="1"/>
        <pt x="1361" y="1381" on="1"/>
        <pt x="1250" y="1352" on="1"/>
        <pt x="855" y="329" on="1"/>
        <pt x="830" y="267" on="0"/>
        <pt x="771" y="142" on="0"/>
        <pt x="683" y="41" on="0"/>
        <pt x="556" y="-23" on="0"/>
      </contour>
    </TTGlyph>
    <TTGlyph name="afii10038" xMin="15" yMin="-44" xMax="1694" yMax="1566">
      <contour>
        <pt x="518" y="95" on="1"/>
        <pt x="693" y="119" on="1"/>
        <pt x="693" y="259" on="1"/>
        <pt x="549" y="260" on="0"/>
        <pt x="337" y="301" on="0"/>
        <pt x="186" y="371" on="0"/>
        <pt x="90" y="467" on="0"/>
        <pt x="35" y="581" on="0"/>
        <pt x="15" y="708" on="0"/>
        <pt x="15" y="774" on="1"/>
        <pt x="15" y="880" on="0"/>
        <pt x="93" y="1059" on="0"/>
        <pt x="258" y="1190" on="0"/>
        <pt x="515" y="1267" on="0"/>
        <pt x="693" y="1273" on="1"/>
        <pt x="693" y="1400" on="1"/>
        <pt x="516" y="1431" on="1"/>
        <pt x="516" y="1566" on="1"/>
        <pt x="1188" y="1566" on="1"/>
        <pt x="1188" y="1431" on="1"/>
        <pt x="1015" y="1400" on="1"/>
        <pt x="1015" y="1275" on="1"/>
        <pt x="1161" y="1273" on="0"/>
        <pt x="1375" y="1234" on="0"/>
        <pt x="1526" y="1165" on="0"/>
        <pt x="1621" y="1071" on="0"/>
        <pt x="1675" y="958" on="0"/>
        <pt x="1694" y="832" on="0"/>
        <pt x="1694" y="765" on="1"/>
        <pt x="1694" y="658" on="0"/>
        <pt x="1609" y="477" on="0"/>
        <pt x="1440" y="342" on="0"/>
        <pt x="1185" y="262" on="0"/>
        <pt x="1015" y="258" on="1"/>
        <pt x="1015" y="118" on="1"/>
        <pt x="1190" y="94" on="1"/>
        <pt x="1190" y="-44" on="1"/>
        <pt x="518" y="-44" on="1"/>
      </contour>
      <contour>
        <pt x="1342" y="761" on="1"/>
        <pt x="1342" y="828" on="0"/>
        <pt x="1320" y="960" on="0"/>
        <pt x="1250" y="1069" on="0"/>
        <pt x="1121" y="1145" on="0"/>
        <pt x="1015" y="1157" on="1"/>
        <pt x="1015" y="371" on="1"/>
        <pt x="1122" y="378" on="0"/>
        <pt x="1251" y="443" on="0"/>
        <pt x="1320" y="547" on="0"/>
        <pt x="1342" y="683" on="0"/>
      </contour>
      <contour>
        <pt x="367" y="785" on="1"/>
        <pt x="367" y="719" on="0"/>
        <pt x="389" y="583" on="0"/>
        <pt x="458" y="469" on="0"/>
        <pt x="587" y="387" on="0"/>
        <pt x="693" y="374" on="1"/>
        <pt x="693" y="1161" on="1"/>
        <pt x="585" y="1153" on="0"/>
        <pt x="457" y="1091" on="0"/>
        <pt x="388" y="992" on="0"/>
        <pt x="367" y="861" on="0"/>
      </contour>
    </TTGlyph>
    <TTGlyph name="afii10039" xMin="10" yMin="0" xMax="1485" yMax="1522">
      <component glyphName="X" x="0" y="0" flags="0x204"/>
    </TTGlyph>
    <TTGlyph name="afii10040" xMin="62" yMin="-406" xMax="1668" yMax="1522">
      <contour>
        <pt x="1428" y="-406" on="1"/>
        <pt x="1427" y="-390" on="0"/>
        <pt x="1421" y="-324" on="0"/>
        <pt x="1412" y="-241" on="0"/>
        <pt x="1400" y="-151" on="0"/>
        <pt x="1388" y="-71" on="0"/>
        <pt x="1376" y="-11" on="0"/>
        <pt x="1371" y="0" on="1"/>
        <pt x="62" y="0" on="1"/>
        <pt x="62" y="134" on="1"/>
        <pt x="233" y="160" on="1"/>
        <pt x="233" y="1353" on="1"/>
        <pt x="76" y="1381" on="1"/>
        <pt x="76" y="1522" on="1"/>
        <pt x="750" y="1522" on="1"/>
        <pt x="750" y="1381" on="1"/>
        <pt x="569" y="1352" on="1"/>
        <pt x="569" y="148" on="1"/>
        <pt x="1084" y="148" on="1"/>
        <pt x="1084" y="1353" on="1"/>
        <pt x="935" y="1381" on="1"/>
        <pt x="935" y="1522" on="1"/>
        <pt x="1576" y="1522" on="1"/>
        <pt x="1576" y="1381" on="1"/>
        <pt x="1419" y="1353" on="1"/>
        <pt x="1419" y="160" on="1"/>
        <pt x="1668" y="160" on="1"/>
        <pt x="1668" y="136" on="0"/>
        <pt x="1661" y="37" on="0"/>
        <pt x="1649" y="-85" on="0"/>
        <pt x="1636" y="-215" on="0"/>
        <pt x="1623" y="-325" on="0"/>
        <pt x="1614" y="-400" on="0"/>
        <pt x="1612" y="-406" on="1"/>
        <pt x="1428" y="-406" on="1"/>
      </contour>
    </TTGlyph>
    <TTGlyph name="afii10041" xMin="24" yMin="0" xMax="1436" yMax="1522">
      <contour>
        <pt x="728" y="134" on="1"/>
        <pt x="937" y="161" on="1"/>
        <pt x="937" y="648" on="1"/>
        <pt x="905" y="625" on="0"/>
        <pt x="824" y="591" on="0"/>
        <pt x="735" y="568" on="0"/>
        <pt x="643" y="556" on="0"/>
        <pt x="599" y="556" on="1"/>
        <pt x="491" y="556" on="0"/>
        <pt x="320" y="598" on="0"/>
        <pt x="203" y="703" on="0"/>
        <pt x="141" y="881" on="0"/>
        <pt x="141" y="1018" on="1"/>
        <pt x="141" y="1350" on="1"/>
        <pt x="24" y="1380" on="1"/>
        <pt x="24" y="1522" on="1"/>
        <pt x="618" y="1522" on="1"/>
        <pt x="618" y="1380" on="1"/>
        <pt x="477" y="1350" on="1"/>
        <pt x="477" y="1096" on="1"/>
        <pt x="477" y="976" on="0"/>
        <pt x="497" y="836" on="0"/>
        <pt x="548" y="762" on="0"/>
        <pt x="635" y="741" on="0"/>
        <pt x="703" y="741" on="1"/>
        <pt x="773" y="741" on="0"/>
        <pt x="899" y="778" on="0"/>
        <pt x="937" y="810" on="1"/>
        <pt x="937" y="1354" on="1"/>
        <pt x="778" y="1381" on="1"/>
        <pt x="778" y="1522" on="1"/>
        <pt x="1436" y="1522" on="1"/>
        <pt x="1436" y="1381" on="1"/>
        <pt x="1273" y="1353" on="1"/>
        <pt x="1273" y="160" on="1"/>
        <pt x="1436" y="132" on="1"/>
        <pt x="1436" y="0" on="1"/>
        <pt x="728" y="0" on="1"/>
      </contour>
    </TTGlyph>
    <TTGlyph name="afii10042" xMin="62" yMin="0" xMax="2293" yMax="1522">
      <contour>
        <pt x="569" y="1353" on="1"/>
        <pt x="569" y="160" on="1"/>
        <pt x="1015" y="160" on="1"/>
        <pt x="1015" y="1354" on="1"/>
        <pt x="872" y="1381" on="1"/>
        <pt x="872" y="1522" on="1"/>
        <pt x="1495" y="1522" on="1"/>
        <pt x="1495" y="1381" on="1"/>
        <pt x="1348" y="1353" on="1"/>
        <pt x="1348" y="160" on="1"/>
        <pt x="1788" y="160" on="1"/>
        <pt x="1788" y="1353" on="1"/>
        <pt x="1645" y="1381" on="1"/>
        <pt x="1645" y="1522" on="1"/>
        <pt x="2279" y="1522" on="1"/>
        <pt x="2279" y="1381" on="1"/>
        <pt x="2122" y="1353" on="1"/>
        <pt x="2122" y="161" on="1"/>
        <pt x="2293" y="134" on="1"/>
        <pt x="2293" y="0" on="1"/>
        <pt x="62" y="0" on="1"/>
        <pt x="62" y="134" on="1"/>
        <pt x="233" y="161" on="1"/>
        <pt x="233" y="1354" on="1"/>
        <pt x="76" y="1381" on="1"/>
        <pt x="76" y="1522" on="1"/>
        <pt x="727" y="1522" on="1"/>
        <pt x="727" y="1381" on="1"/>
      </contour>
    </TTGlyph>
    <TTGlyph name="afii10043" xMin="62" yMin="-406" xMax="2378" yMax="1522">
      <contour>
        <pt x="62" y="134" on="1"/>
        <pt x="233" y="161" on="1"/>
        <pt x="233" y="1354" on="1"/>
        <pt x="76" y="1381" on="1"/>
        <pt x="76" y="1522" on="1"/>
        <pt x="727" y="1522" on="1"/>
        <pt x="727" y="1381" on="1"/>
        <pt x="569" y="1353" on="1"/>
        <pt x="569" y="160" on="1"/>
        <pt x="1015" y="160" on="1"/>
        <pt x="1015" y="1354" on="1"/>
        <pt x="872" y="1381" on="1"/>
        <pt x="872" y="1522" on="1"/>
        <pt x="1495" y="1522" on="1"/>
        <pt x="1495" y="1381" on="1"/>
        <pt x="1348" y="1353" on="1"/>
        <pt x="1348" y="160" on="1"/>
        <pt x="1788" y="160" on="1"/>
        <pt x="1788" y="1353" on="1"/>
        <pt x="1645" y="1381" on="1"/>
        <pt x="1645" y="1522" on="1"/>
        <pt x="2279" y="1522" on="1"/>
        <pt x="2279" y="1381" on="1"/>
        <pt x="2122" y="1353" on="1"/>
        <pt x="2122" y="160" on="1"/>
        <pt x="2131" y="160" on="1"/>
        <pt x="2378" y="160" on="1"/>
        <pt x="2378" y="136" on="0"/>
        <pt x="2371" y="37" on="0"/>
        <pt x="2359" y="-85" on="0"/>
        <pt x="2346" y="-215" on="0"/>
        <pt x="2333" y="-325" on="0"/>
        <pt x="2324" y="-400" on="0"/>
        <pt x="2322" y="-406" on="1"/>
        <pt x="2137" y="-406" on="1"/>
        <pt x="2137" y="-390" on="0"/>
        <pt x="2131" y="-324" on="0"/>
        <pt x="2122" y="-241" on="0"/>
        <pt x="2110" y="-151" on="0"/>
        <pt x="2097" y="-71" on="0"/>
        <pt x="2085" y="-11" on="0"/>
        <pt x="2080" y="0" on="1"/>
        <pt x="62" y="0" on="1"/>
      </contour>
    </TTGlyph>
    <TTGlyph name="afii10044" xMin="54" yMin="-16" xMax="1706" yMax="1522">
      <contour>
        <pt x="299" y="0" on="1"/>
        <pt x="299" y="134" on="1"/>
        <pt x="585" y="161" on="1"/>
        <pt x="585" y="1376" on="1"/>
        <pt x="326" y="1357" on="1"/>
        <pt x="252" y="935" on="1"/>
        <pt x="54" y="935" on="1"/>
        <pt x="87" y="1522" on="1"/>
        <pt x="1136" y="1522" on="1"/>
        <pt x="1136" y="1386" on="1"/>
        <pt x="924" y="1352" on="1"/>
        <pt x="924" y="906" on="1"/>
        <pt x="1168" y="906" on="1"/>
        <pt x="1306" y="906" on="0"/>
        <pt x="1508" y="847" on="0"/>
        <pt x="1641" y="736" on="0"/>
        <pt x="1706" y="573" on="0"/>
        <pt x="1706" y="470" on="1"/>
        <pt x="1706" y="353" on="0"/>
        <pt x="1630" y="172" on="0"/>
        <pt x="1489" y="48" on="0"/>
        <pt x="1288" y="-16" on="0"/>
        <pt x="1164" y="-16" on="1"/>
        <pt x="1152" y="-16" on="0"/>
        <pt x="1095" y="-14" on="0"/>
        <pt x="1022" y="-10" on="0"/>
        <pt x="937" y="-6" on="0"/>
        <pt x="858" y="-2" on="0"/>
        <pt x="789" y="0" on="0"/>
        <pt x="768" y="0" on="1"/>
      </contour>
      <contour>
        <pt x="924" y="752" on="1"/>
        <pt x="924" y="144" on="1"/>
        <pt x="951" y="136" on="0"/>
        <pt x="1018" y="125" on="0"/>
        <pt x="1072" y="125" on="1"/>
        <pt x="1149" y="125" on="0"/>
        <pt x="1257" y="174" on="0"/>
        <pt x="1325" y="260" on="0"/>
        <pt x="1356" y="378" on="0"/>
        <pt x="1356" y="448" on="1"/>
        <pt x="1356" y="609" on="0"/>
        <pt x="1216" y="752" on="0"/>
        <pt x="1084" y="752" on="1"/>
      </contour>
    </TTGlyph>
    <TTGlyph name="afii10045" xMin="76" yMin="-16" xMax="2057" yMax="1522">
      <component glyphName="I" x="1292" y="0" flags="0x4"/>
      <component glyphName="afii10046" x="0" y="0" flags="0x4"/>
    </TTGlyph>
    <TTGlyph name="afii10046" xMin="76" yMin="-16" xMax="1349" yMax="1522">
      <contour>
        <pt x="76" y="0" on="1"/>
        <pt x="76" y="134" on="1"/>
        <pt x="233" y="157" on="1"/>
        <pt x="234" y="1358" on="1"/>
        <pt x="80" y="1389" on="1"/>
        <pt x="80" y="1522" on="1"/>
        <pt x="786" y="1522" on="1"/>
        <pt x="786" y="1389" on="1"/>
        <pt x="570" y="1356" on="1"/>
        <pt x="570" y="919" on="1"/>
        <pt x="828" y="918" on="1"/>
        <pt x="958" y="918" on="0"/>
        <pt x="1153" y="857" on="0"/>
        <pt x="1284" y="742" on="0"/>
        <pt x="1349" y="578" on="0"/>
        <pt x="1349" y="475" on="1"/>
        <pt x="1349" y="358" on="0"/>
        <pt x="1265" y="175" on="0"/>
        <pt x="1117" y="49" on="0"/>
        <pt x="917" y="-16" on="0"/>
        <pt x="801" y="-16" on="1"/>
        <pt x="759" y="-16" on="0"/>
        <pt x="660" y="-11" on="0"/>
        <pt x="552" y="-5" on="0"/>
        <pt x="438" y="0" on="0"/>
        <pt x="382" y="0" on="1"/>
      </contour>
      <contour>
        <pt x="570" y="768" on="1"/>
        <pt x="570" y="144" on="1"/>
        <pt x="596" y="136" on="0"/>
        <pt x="663" y="125" on="0"/>
        <pt x="717" y="125" on="1"/>
        <pt x="794" y="125" on="0"/>
        <pt x="901" y="176" on="0"/>
        <pt x="967" y="265" on="0"/>
        <pt x="997" y="386" on="0"/>
        <pt x="997" y="456" on="1"/>
        <pt x="997" y="618" on="0"/>
        <pt x="862" y="769" on="0"/>
        <pt x="729" y="769" on="1"/>
      </contour>
    </TTGlyph>
    <TTGlyph name="afii10047" xMin="91" yMin="-23" xMax="1332" yMax="1538">
      <contour>
        <pt x="361" y="882" on="1"/>
        <pt x="950" y="867" on="1"/>
        <pt x="939" y="978" on="0"/>
        <pt x="883" y="1171" on="0"/>
        <pt x="790" y="1314" on="0"/>
        <pt x="661" y="1397" on="0"/>
        <pt x="578" y="1397" on="1"/>
        <pt x="529" y="1397" on="0"/>
        <pt x="462" y="1382" on="0"/>
        <pt x="415" y="1359" on="0"/>
        <pt x="385" y="1330" on="0"/>
        <pt x="374" y="1316" on="1"/>
        <pt x="303" y="1103" on="1"/>
        <pt x="101" y="1101" on="1"/>
        <pt x="94" y="1460" on="1"/>
        <pt x="137" y="1463" on="0"/>
        <pt x="229" y="1488" on="0"/>
        <pt x="346" y="1516" on="0"/>
        <pt x="498" y="1538" on="0"/>
        <pt x="602" y="1538" on="1"/>
        <pt x="776" y="1538" on="0"/>
        <pt x="1048" y="1424" on="0"/>
        <pt x="1234" y="1218" on="0"/>
        <pt x="1332" y="931" on="0"/>
        <pt x="1332" y="759" on="1"/>
        <pt x="1332" y="578" on="0"/>
        <pt x="1221" y="288" on="0"/>
        <pt x="1017" y="86" on="0"/>
        <pt x="730" y="-23" on="0"/>
        <pt x="553" y="-23" on="1"/>
        <pt x="467" y="-23" on="0"/>
        <pt x="338" y="-1" on="0"/>
        <pt x="234" y="25" on="0"/>
        <pt x="147" y="48" on="0"/>
        <pt x="104" y="49" on="1"/>
        <pt x="91" y="412" on="1"/>
        <pt x="307" y="427" on="1"/>
        <pt x="387" y="193" on="1"/>
        <pt x="397" y="181" on="0"/>
        <pt x="422" y="154" on="0"/>
        <pt x="463" y="132" on="0"/>
        <pt x="525" y="117" on="0"/>
        <pt x="573" y="117" on="1"/>
        <pt x="655" y="117" on="0"/>
        <pt x="793" y="189" on="0"/>
        <pt x="893" y="332" on="0"/>
        <pt x="952" y="545" on="0"/>
        <pt x="956" y="686" on="1"/>
        <pt x="925" y="686" on="0"/>
        <pt x="820" y="683" on="0"/>
        <pt x="695" y="680" on="0"/>
        <pt x="564" y="677" on="0"/>
        <pt x="452" y="674" on="0"/>
        <pt x="372" y="671" on="0"/>
        <pt x="361" y="671" on="1"/>
      </contour>
    </TTGlyph>
    <TTGlyph name="afii10048" xMin="77" yMin="-19" xMax="2207" yMax="1541">
      <contour>
        <pt x="1523" y="-19" on="1"/>
        <pt x="1355" y="-19" on="0"/>
        <pt x="1106" y="81" on="0"/>
        <pt x="940" y="266" on="0"/>
        <pt x="854" y="528" on="0"/>
        <pt x="849" y="690" on="1"/>
        <pt x="571" y="690" on="1"/>
        <pt x="571" y="160" on="1"/>
        <pt x="737" y="134" on="1"/>
        <pt x="737" y="0" on="1"/>
        <pt x="77" y="0" on="1"/>
        <pt x="77" y="134" on="1"/>
        <pt x="233" y="160" on="1"/>
        <pt x="233" y="1353" on="1"/>
        <pt x="81" y="1381" on="1"/>
        <pt x="81" y="1522" on="1"/>
        <pt x="731" y="1522" on="1"/>
        <pt x="731" y="1381" on="1"/>
        <pt x="570" y="1353" on="1"/>
        <pt x="570" y="862" on="1"/>
        <pt x="853" y="862" on="1"/>
        <pt x="869" y="1023" on="0"/>
        <pt x="985" y="1276" on="0"/>
        <pt x="1167" y="1450" on="0"/>
        <pt x="1406" y="1541" on="0"/>
        <pt x="1544" y="1541" on="1"/>
        <pt x="1716" y="1541" on="0"/>
        <pt x="1967" y="1433" on="0"/>
        <pt x="2130" y="1235" on="0"/>
        <pt x="2207" y="956" on="0"/>
        <pt x="2206" y="785" on="1"/>
        <pt x="2204" y="599" on="0"/>
        <pt x="2104" y="301" on="0"/>
        <pt x="1924" y="93" on="0"/>
        <pt x="1674" y="-19" on="0"/>
      </contour>
      <contour>
        <pt x="1535" y="118" on="1"/>
        <pt x="1683" y="118" on="0"/>
        <pt x="1836" y="451" on="0"/>
        <pt x="1836" y="784" on="1"/>
        <pt x="1836" y="1100" on="0"/>
        <pt x="1677" y="1403" on="0"/>
        <pt x="1532" y="1403" on="1"/>
        <pt x="1460" y="1403" on="0"/>
        <pt x="1343" y="1327" on="0"/>
        <pt x="1262" y="1168" on="0"/>
        <pt x="1218" y="923" on="0"/>
        <pt x="1218" y="754" on="1"/>
        <pt x="1218" y="439" on="0"/>
        <pt x="1382" y="118" on="0"/>
      </contour>
    </TTGlyph>
    <TTGlyph name="afii10049" xMin="7" yMin="0" xMax="1424" yMax="1536">
      <contour>
        <pt x="7" y="134" on="1"/>
        <pt x="78" y="160" on="1"/>
        <pt x="104" y="166" on="0"/>
        <pt x="150" y="240" on="0"/>
        <pt x="197" y="347" on="0"/>
        <pt x="249" y="473" on="0"/>
        <pt x="317" y="591" on="0"/>
        <pt x="404" y="686" on="0"/>
        <pt x="461" y="708" on="1"/>
        <pt x="389" y="728" on="0"/>
        <pt x="278" y="811" on="0"/>
        <pt x="202" y="922" on="0"/>
        <pt x="163" y="1053" on="0"/>
        <pt x="163" y="1121" on="1"/>
        <pt x="163" y="1231" on="0"/>
        <pt x="228" y="1388" on="0"/>
        <pt x="368" y="1489" on="0"/>
        <pt x="587" y="1536" on="0"/>
        <pt x="742" y="1536" on="1"/>
        <pt x="796" y="1536" on="0"/>
        <pt x="881" y="1532" on="0"/>
        <pt x="958" y="1526" on="0"/>
        <pt x="1036" y="1522" on="0"/>
        <pt x="1082" y="1522" on="1"/>
        <pt x="1412" y="1522" on="1"/>
        <pt x="1412" y="1381" on="1"/>
        <pt x="1252" y="1353" on="1"/>
        <pt x="1252" y="159" on="1"/>
        <pt x="1424" y="134" on="1"/>
        <pt x="1424" y="0" on="1"/>
        <pt x="738" y="0" on="1"/>
        <pt x="737" y="134" on="1"/>
        <pt x="916" y="158" on="1"/>
        <pt x="916" y="650" on="1"/>
        <pt x="905" y="650" on="0"/>
        <pt x="854" y="650" on="0"/>
        <pt x="792" y="651" on="0"/>
        <pt x="727" y="652" on="0"/>
        <pt x="701" y="652" on="1"/>
        <pt x="665" y="628" on="0"/>
        <pt x="603" y="512" on="0"/>
        <pt x="547" y="367" on="0"/>
        <pt x="497" y="212" on="0"/>
        <pt x="450" y="83" on="0"/>
        <pt x="404" y="0" on="0"/>
        <pt x="382" y="0" on="1"/>
        <pt x="7" y="0" on="1"/>
      </contour>
      <contour>
        <pt x="916" y="1388" on="1"/>
        <pt x="906" y="1389" on="0"/>
        <pt x="884" y="1393" on="0"/>
        <pt x="852" y="1396" on="0"/>
        <pt x="805" y="1399" on="0"/>
        <pt x="771" y="1399" on="1"/>
        <pt x="708" y="1399" on="0"/>
        <pt x="613" y="1368" on="0"/>
        <pt x="550" y="1301" on="0"/>
        <pt x="519" y="1194" on="0"/>
        <pt x="519" y="1119" on="1"/>
        <pt x="519" y="948" on="0"/>
        <pt x="657" y="785" on="0"/>
        <pt x="788" y="785" on="1"/>
        <pt x="801" y="785" on="0"/>
        <pt x="838" y="786" on="0"/>
        <pt x="875" y="787" on="0"/>
        <pt x="907" y="791" on="0"/>
        <pt x="916" y="794" on="1"/>
      </contour>
    </TTGlyph>
    <TTGlyph name="afii10050" xMin="34" yMin="0" xMax="1138" yMax="1881">
      <contour>
        <pt x="38" y="1522" on="1"/>
        <pt x="882" y="1522" on="1"/>
        <pt x="959" y="1881" on="1"/>
        <pt x="1138" y="1881" on="1"/>
        <pt x="1118" y="1355" on="1"/>
        <pt x="587" y="1371" on="1"/>
        <pt x="587" y="161" on="1"/>
        <pt x="904" y="134" on="1"/>
        <pt x="904" y="0" on="1"/>
        <pt x="34" y="0" on="1"/>
        <pt x="34" y="134" on="1"/>
        <pt x="248" y="160" on="1"/>
        <pt x="248" y="1352" on="1"/>
        <pt x="38" y="1384" on="1"/>
      </contour>
    </TTGlyph>
    <TTGlyph name="afii10051" xMin="52" yMin="-418" xMax="1755" yMax="1522">
      <contour>
        <pt x="1018" y="-238" on="1"/>
        <pt x="1027" y="-240" on="0"/>
        <pt x="1049" y="-246" on="0"/>
        <pt x="1082" y="-250" on="0"/>
        <pt x="1126" y="-253" on="0"/>
        <pt x="1157" y="-253" on="1"/>
        <pt x="1288" y="-253" on="0"/>
        <pt x="1407" y="27" on="0"/>
        <pt x="1407" y="305" on="1"/>
        <pt x="1407" y="410" on="0"/>
        <pt x="1381" y="562" on="0"/>
        <pt x="1322" y="660" on="0"/>
        <pt x="1229" y="707" on="0"/>
        <pt x="1162" y="707" on="1"/>
        <pt x="1076" y="707" on="0"/>
        <pt x="957" y="666" on="0"/>
        <pt x="915" y="640" on="1"/>
        <pt x="914" y="640" on="1"/>
        <pt x="914" y="167" on="1"/>
        <pt x="1155" y="138" on="1"/>
        <pt x="1155" y="0" on="1"/>
        <pt x="304" y="0" on="1"/>
        <pt x="304" y="138" on="1"/>
        <pt x="575" y="167" on="1"/>
        <pt x="575" y="1376" on="1"/>
        <pt x="304" y="1357" on="1"/>
        <pt x="239" y="1030" on="1"/>
        <pt x="52" y="1030" on="1"/>
        <pt x="79" y="1522" on="1"/>
        <pt x="1474" y="1522" on="1"/>
        <pt x="1496" y="1030" on="1"/>
        <pt x="1307" y="1030" on="1"/>
        <pt x="1245" y="1357" on="1"/>
        <pt x="914" y="1376" on="1"/>
        <pt x="914" y="793" on="1"/>
        <pt x="915" y="794" on="1"/>
        <pt x="935" y="807" on="0"/>
        <pt x="1008" y="837" on="0"/>
        <pt x="1097" y="863" on="0"/>
        <pt x="1195" y="881" on="0"/>
        <pt x="1241" y="881" on="1"/>
        <pt x="1500" y="881" on="0"/>
        <pt x="1755" y="625" on="0"/>
        <pt x="1755" y="354" on="1"/>
        <pt x="1755" y="178" on="0"/>
        <pt x="1678" y="-107" on="0"/>
        <pt x="1535" y="-308" on="0"/>
        <pt x="1332" y="-418" on="0"/>
        <pt x="1207" y="-418" on="1"/>
        <pt x="1146" y="-418" on="0"/>
        <pt x="1053" y="-397" on="0"/>
        <pt x="1031" y="-389" on="1"/>
        <pt x="1018" y="-238" on="1"/>
      </contour>
    </TTGlyph>
    <TTGlyph name="afii10052" xMin="49" yMin="0" xMax="1219" yMax="2014">
      <component glyphName="acute.cap" x="30" y="0" flags="0x4"/>
      <component glyphName="afii10020" x="0" y="0" flags="0x4"/>
    </TTGlyph>
    <TTGlyph name="afii10053" xMin="55" yMin="-23" xMax="1296" yMax="1538">
      <contour>
        <pt x="1013" y="671" on="1"/>
        <pt x="1002" y="671" on="0"/>
        <pt x="928" y="674" on="0"/>
        <pt x="823" y="676" on="0"/>
        <pt x="700" y="680" on="0"/>
        <pt x="579" y="682" on="0"/>
        <pt x="472" y="684" on="0"/>
        <pt x="436" y="685" on="1"/>
        <pt x="444" y="570" on="0"/>
        <pt x="497" y="364" on="0"/>
        <pt x="589" y="210" on="0"/>
        <pt x="720" y="119" on="0"/>
        <pt x="807" y="119" on="1"/>
        <pt x="855" y="119" on="0"/>
        <pt x="926" y="130" on="0"/>
        <pt x="975" y="148" on="0"/>
        <pt x="1008" y="172" on="0"/>
        <pt x="1019" y="185" on="1"/>
        <pt x="1109" y="408" on="1"/>
        <pt x="1296" y="399" on="1"/>
        <pt x="1277" y="56" on="1"/>
        <pt x="1234" y="53" on="0"/>
        <pt x="1144" y="28" on="0"/>
        <pt x="1031" y="-1" on="0"/>
        <pt x="883" y="-23" on="0"/>
        <pt x="781" y="-23" on="1"/>
        <pt x="602" y="-23" on="0"/>
        <pt x="331" y="90" on="0"/>
        <pt x="148" y="295" on="0"/>
        <pt x="55" y="581" on="0"/>
        <pt x="55" y="754" on="1"/>
        <pt x="55" y="935" on="0"/>
        <pt x="170" y="1225" on="0"/>
        <pt x="379" y="1429" on="0"/>
        <pt x="671" y="1538" on="0"/>
        <pt x="847" y="1538" on="1"/>
        <pt x="920" y="1538" on="0"/>
        <pt x="1052" y="1522" on="0"/>
        <pt x="1166" y="1500" on="0"/>
        <pt x="1260" y="1479" on="0"/>
        <pt x="1296" y="1474" on="1"/>
        <pt x="1272" y="1073" on="1"/>
        <pt x="1053" y="1073" on="1"/>
        <pt x="992" y="1338" on="1"/>
        <pt x="982" y="1350" on="0"/>
        <pt x="956" y="1373" on="0"/>
        <pt x="915" y="1389" on="0"/>
        <pt x="857" y="1399" on="0"/>
        <pt x="815" y="1399" on="1"/>
        <pt x="735" y="1399" on="0"/>
        <pt x="602" y="1334" on="0"/>
        <pt x="502" y="1201" on="0"/>
        <pt x="441" y="1001" on="0"/>
        <pt x="434" y="866" on="1"/>
        <pt x="469" y="867" on="0"/>
        <pt x="577" y="870" on="0"/>
        <pt x="698" y="873" on="0"/>
        <pt x="822" y="877" on="0"/>
        <pt x="927" y="880" on="0"/>
        <pt x="1002" y="882" on="0"/>
        <pt x="1013" y="882" on="1"/>
        <pt x="1013" y="671" on="1"/>
      </contour>
    </TTGlyph>
    <TTGlyph name="afii10054" xMin="111" yMin="-23" xMax="1186" yMax="1541">
      <component glyphName="S" x="0" y="0" flags="0x204"/>
    </TTGlyph>
    <TTGlyph name="afii10055" xMin="89" yMin="0" xMax="765" yMax="1522">
      <component glyphName="I" x="0" y="0" flags="0x204"/>
    </TTGlyph>
    <TTGlyph name="afii10057" xMin="-37" yMin="-393" xMax="756" yMax="1522">
      <component glyphName="J" x="0" y="0" flags="0x4"/>
    </TTGlyph>
    <TTGlyph name="afii10058" xMin="57" yMin="-16" xMax="2109" yMax="1522">
      <contour>
        <pt x="783" y="0" on="1"/>
        <pt x="783" y="134" on="1"/>
        <pt x="1000" y="160" on="1"/>
        <pt x="999" y="1352" on="1"/>
        <pt x="638" y="1352" on="1"/>
        <pt x="638" y="1201" on="1"/>
        <pt x="638" y="1020" on="0"/>
        <pt x="618" y="698" on="0"/>
        <pt x="581" y="430" on="0"/>
        <pt x="526" y="220" on="0"/>
        <pt x="490" y="152" on="1"/>
        <pt x="445" y="67" on="0"/>
        <pt x="324" y="-14" on="0"/>
        <pt x="237" y="-14" on="1"/>
        <pt x="191" y="-14" on="0"/>
        <pt x="107" y="-6" on="0"/>
        <pt x="80" y="-1" on="1"/>
        <pt x="57" y="200" on="1"/>
        <pt x="73" y="199" on="0"/>
        <pt x="106" y="196" on="0"/>
        <pt x="145" y="194" on="0"/>
        <pt x="191" y="193" on="0"/>
        <pt x="221" y="193" on="1"/>
        <pt x="264" y="193" on="0"/>
        <pt x="326" y="231" on="0"/>
        <pt x="352" y="286" on="1"/>
        <pt x="368" y="321" on="0"/>
        <pt x="399" y="406" on="0"/>
        <pt x="426" y="516" on="0"/>
        <pt x="448" y="657" on="0"/>
        <pt x="464" y="840" on="0"/>
        <pt x="473" y="1068" on="0"/>
        <pt x="473" y="1210" on="1"/>
        <pt x="473" y="1355" on="1"/>
        <pt x="248" y="1381" on="1"/>
        <pt x="248" y="1522" on="1"/>
        <pt x="1331" y="1522" on="1"/>
        <pt x="1331" y="1517" on="1"/>
        <pt x="1333" y="1522" on="1"/>
        <pt x="1520" y="1522" on="1"/>
        <pt x="1520" y="1381" on="1"/>
        <pt x="1331" y="1352" on="1"/>
        <pt x="1331" y="844" on="1"/>
        <pt x="1333" y="848" on="1"/>
        <pt x="1343" y="850" on="0"/>
        <pt x="1406" y="857" on="0"/>
        <pt x="1483" y="863" on="0"/>
        <pt x="1562" y="867" on="0"/>
        <pt x="1588" y="867" on="1"/>
        <pt x="1848" y="867" on="0"/>
        <pt x="2109" y="648" on="0"/>
        <pt x="2109" y="450" on="1"/>
        <pt x="2109" y="338" on="0"/>
        <pt x="2034" y="165" on="0"/>
        <pt x="1894" y="46" on="0"/>
        <pt x="1695" y="-16" on="0"/>
        <pt x="1571" y="-16" on="1"/>
        <pt x="1559" y="-16" on="0"/>
        <pt x="1503" y="-14" on="0"/>
        <pt x="1429" y="-10" on="0"/>
        <pt x="1345" y="-6" on="0"/>
        <pt x="1265" y="-2" on="0"/>
        <pt x="1197" y="0" on="0"/>
        <pt x="1176" y="0" on="1"/>
      </contour>
      <contour>
        <pt x="1331" y="705" on="1"/>
        <pt x="1331" y="143" on="1"/>
        <pt x="1333" y="145" on="1"/>
        <pt x="1359" y="137" on="0"/>
        <pt x="1422" y="125" on="0"/>
        <pt x="1478" y="125" on="1"/>
        <pt x="1556" y="125" on="0"/>
        <pt x="1663" y="171" on="0"/>
        <pt x="1729" y="253" on="0"/>
        <pt x="1759" y="363" on="0"/>
        <pt x="1759" y="428" on="1"/>
        <pt x="1759" y="579" on="0"/>
        <pt x="1623" y="713" on="0"/>
        <pt x="1490" y="713" on="1"/>
        <pt x="1475" y="713" on="0"/>
        <pt x="1429" y="711" on="0"/>
        <pt x="1381" y="709" on="0"/>
        <pt x="1341" y="705" on="0"/>
        <pt x="1333" y="704" on="1"/>
      </contour>
    </TTGlyph>
    <TTGlyph name="afii10059" xMin="77" yMin="-19" xMax="2222" yMax="1522">
      <contour>
        <pt x="949" y="138" on="1"/>
        <pt x="1112" y="166" on="1"/>
        <pt x="1112" y="696" on="1"/>
        <pt x="569" y="696" on="1"/>
        <pt x="569" y="165" on="1"/>
        <pt x="740" y="138" on="1"/>
        <pt x="740" y="0" on="1"/>
        <pt x="77" y="0" on="1"/>
        <pt x="77" y="134" on="1"/>
        <pt x="233" y="159" on="1"/>
        <pt x="233" y="1353" on="1"/>
        <pt x="81" y="1381" on="1"/>
        <pt x="81" y="1522" on="1"/>
        <pt x="740" y="1522" on="1"/>
        <pt x="740" y="1381" on="1"/>
        <pt x="569" y="1353" on="1"/>
        <pt x="569" y="857" on="1"/>
        <pt x="1112" y="857" on="1"/>
        <pt x="1113" y="1357" on="1"/>
        <pt x="950" y="1389" on="1"/>
        <pt x="950" y="1522" on="1"/>
        <pt x="1607" y="1522" on="1"/>
        <pt x="1607" y="1389" on="1"/>
        <pt x="1448" y="1357" on="1"/>
        <pt x="1448" y="869" on="1"/>
        <pt x="1702" y="869" on="1"/>
        <pt x="1823" y="869" on="0"/>
        <pt x="2016" y="812" on="0"/>
        <pt x="2150" y="705" on="0"/>
        <pt x="2222" y="549" on="0"/>
        <pt x="2222" y="450" on="1"/>
        <pt x="2222" y="333" on="0"/>
        <pt x="2145" y="157" on="0"/>
        <pt x="2006" y="40" on="0"/>
        <pt x="1813" y="-19" on="0"/>
        <pt x="1697" y="-19" on="1"/>
        <pt x="1682" y="-19" on="0"/>
        <pt x="1619" y="-16" on="0"/>
        <pt x="1538" y="-12" on="0"/>
        <pt x="1449" y="-7" on="0"/>
        <pt x="1364" y="-3" on="0"/>
        <pt x="1293" y="0" on="0"/>
        <pt x="1272" y="0" on="1"/>
        <pt x="949" y="0" on="1"/>
      </contour>
      <contour>
        <pt x="1448" y="719" on="1"/>
        <pt x="1448" y="146" on="1"/>
        <pt x="1474" y="140" on="0"/>
        <pt x="1546" y="125" on="0"/>
        <pt x="1594" y="125" on="1"/>
        <pt x="1671" y="125" on="0"/>
        <pt x="1778" y="172" on="0"/>
        <pt x="1844" y="254" on="0"/>
        <pt x="1874" y="366" on="0"/>
        <pt x="1874" y="431" on="1"/>
        <pt x="1874" y="584" on="0"/>
        <pt x="1737" y="719" on="0"/>
        <pt x="1605" y="719" on="1"/>
      </contour>
    </TTGlyph>
    <TTGlyph name="afii10060" xMin="49" yMin="0" xMax="1884" yMax="1522">
      <contour>
        <pt x="926" y="791" on="1"/>
        <pt x="964" y="810" on="0"/>
        <pt x="1051" y="843" on="0"/>
        <pt x="1143" y="867" on="0"/>
        <pt x="1238" y="881" on="0"/>
        <pt x="1284" y="881" on="1"/>
        <pt x="1407" y="881" on="0"/>
        <pt x="1580" y="838" on="0"/>
        <pt x="1689" y="733" on="0"/>
        <pt x="1739" y="557" on="0"/>
        <pt x="1739" y="425" on="1"/>
        <pt x="1739" y="159" on="1"/>
        <pt x="1884" y="134" on="1"/>
        <pt x="1884" y="0" on="1"/>
        <pt x="1277" y="0" on="1"/>
        <pt x="1277" y="134" on="1"/>
        <pt x="1404" y="160" on="1"/>
        <pt x="1404" y="346" on="1"/>
        <pt x="1404" y="446" on="0"/>
        <pt x="1389" y="582" on="0"/>
        <pt x="1344" y="663" on="0"/>
        <pt x="1263" y="698" on="0"/>
        <pt x="1198" y="698" on="1"/>
        <pt x="1147" y="698" on="0"/>
        <pt x="1069" y="687" on="0"/>
        <pt x="1006" y="670" on="0"/>
        <pt x="952" y="648" on="0"/>
        <pt x="926" y="638" on="1"/>
        <pt x="925" y="638" on="1"/>
        <pt x="925" y="160" on="1"/>
        <pt x="1111" y="134" on="1"/>
        <pt x="1111" y="0" on="1"/>
        <pt x="332" y="0" on="1"/>
        <pt x="332" y="134" on="1"/>
        <pt x="585" y="160" on="1"/>
        <pt x="585" y="1375" on="1"/>
        <pt x="302" y="1357" on="1"/>
        <pt x="237" y="1030" on="1"/>
        <pt x="49" y="1030" on="1"/>
        <pt x="77" y="1522" on="1"/>
        <pt x="1478" y="1522" on="1"/>
        <pt x="1499" y="1030" on="1"/>
        <pt x="1320" y="1030" on="1"/>
        <pt x="1247" y="1355" on="1"/>
        <pt x="925" y="1374" on="1"/>
        <pt x="925" y="789" on="1"/>
        <pt x="926" y="791" on="1"/>
      </contour>
    </TTGlyph>
    <TTGlyph name="afii10061" xMin="80" yMin="0" xMax="1489" yMax="2014">
      <component glyphName="acute.cap" x="194" y="0" flags="0x4"/>
      <component glyphName="afii10028" x="0" y="0" flags="0x4"/>
    </TTGlyph>
    <TTGlyph name="afii10062" xMin="-12" yMin="-23" xMax="1361" yMax="2014">
      <component glyphName="breve.rcap" x="203" y="0" flags="0x4"/>
      <component glyphName="afii10037" x="0" y="0" flags="0x4"/>
    </TTGlyph>
    <TTGlyph name="afii10065" xMin="58" yMin="-25" xMax="1130" yMax="1164">
      <component glyphName="a" x="0" y="0" flags="0x4"/>
    </TTGlyph>
    <TTGlyph name="afii10066" xMin="45" yMin="-16" xMax="1149" yMax="1778">
      <contour>
        <pt x="607" y="-16" on="1"/>
        <pt x="330" y="-16" on="0"/>
        <pt x="45" y="382" on="0"/>
        <pt x="45" y="771" on="1"/>
        <pt x="45" y="908" on="0"/>
        <pt x="94" y="1140" on="0"/>
        <pt x="186" y="1327" on="0"/>
        <pt x="320" y="1468" on="0"/>
        <pt x="404" y="1516" on="1"/>
        <pt x="449" y="1543" on="0"/>
        <pt x="559" y="1587" on="0"/>
        <pt x="670" y="1619" on="0"/>
        <pt x="773" y="1640" on="0"/>
        <pt x="811" y="1644" on="1"/>
        <pt x="848" y="1649" on="0"/>
        <pt x="898" y="1674" on="0"/>
        <pt x="909" y="1709" on="1"/>
        <pt x="931" y="1778" on="1"/>
        <pt x="1100" y="1778" on="1"/>
        <pt x="1085" y="1588" on="1"/>
        <pt x="1082" y="1548" on="0"/>
        <pt x="1065" y="1488" on="0"/>
        <pt x="1033" y="1447" on="0"/>
        <pt x="982" y="1425" on="0"/>
        <pt x="945" y="1423" on="1"/>
        <pt x="878" y="1421" on="0"/>
        <pt x="744" y="1412" on="0"/>
        <pt x="621" y="1396" on="0"/>
        <pt x="516" y="1369" on="0"/>
        <pt x="479" y="1348" on="1"/>
        <pt x="449" y="1336" on="0"/>
        <pt x="393" y="1291" on="0"/>
        <pt x="346" y="1211" on="0"/>
        <pt x="313" y="1089" on="0"/>
        <pt x="307" y="1001" on="1"/>
        <pt x="320" y="1017" on="0"/>
        <pt x="383" y="1072" on="0"/>
        <pt x="481" y="1125" on="0"/>
        <pt x="612" y="1163" on="0"/>
        <pt x="694" y="1163" on="1"/>
        <pt x="825" y="1163" on="0"/>
        <pt x="1000" y="1081" on="0"/>
        <pt x="1105" y="931" on="0"/>
        <pt x="1149" y="720" on="0"/>
        <pt x="1149" y="591" on="1"/>
        <pt x="1149" y="458" on="0"/>
        <pt x="1076" y="235" on="0"/>
        <pt x="938" y="74" on="0"/>
        <pt x="736" y="-16" on="0"/>
      </contour>
      <contour>
        <pt x="608" y="118" on="1"/>
        <pt x="671" y="118" on="0"/>
        <pt x="750" y="178" on="0"/>
        <pt x="794" y="295" on="0"/>
        <pt x="810" y="465" on="0"/>
        <pt x="810" y="576" on="1"/>
        <pt x="810" y="701" on="0"/>
        <pt x="787" y="861" on="0"/>
        <pt x="736" y="954" on="0"/>
        <pt x="655" y="989" on="0"/>
        <pt x="598" y="989" on="1"/>
        <pt x="559" y="989" on="0"/>
        <pt x="492" y="971" on="0"/>
        <pt x="438" y="943" on="0"/>
        <pt x="396" y="908" on="0"/>
        <pt x="380" y="891" on="1"/>
        <pt x="380" y="670" on="0"/>
        <pt x="402" y="373" on="0"/>
        <pt x="455" y="194" on="0"/>
        <pt x="542" y="118" on="0"/>
      </contour>
    </TTGlyph>
    <TTGlyph name="afii10067" xMin="88" yMin="-12" xMax="1317" yMax="1153">
      <contour>
        <pt x="90" y="134" on="1"/>
        <pt x="223" y="159" on="1"/>
        <pt x="223" y="981" on="1"/>
        <pt x="88" y="1007" on="1"/>
        <pt x="88" y="1138" on="1"/>
        <pt x="349" y="1138" on="1"/>
        <pt x="377" y="1138" on="0"/>
        <pt x="467" y="1143" on="0"/>
        <pt x="572" y="1148" on="0"/>
        <pt x="681" y="1153" on="0"/>
        <pt x="728" y="1153" on="1"/>
        <pt x="882" y="1153" on="0"/>
        <pt x="1073" y="1111" on="0"/>
        <pt x="1180" y="1041" on="0"/>
        <pt x="1218" y="946" on="0"/>
        <pt x="1218" y="894" on="1"/>
        <pt x="1218" y="801" on="0"/>
        <pt x="1114" y="658" on="0"/>
        <pt x="1002" y="623" on="1"/>
        <pt x="1080" y="616" on="0"/>
        <pt x="1198" y="564" on="0"/>
        <pt x="1277" y="489" on="0"/>
        <pt x="1317" y="400" on="0"/>
        <pt x="1317" y="356" on="1"/>
        <pt x="1317" y="273" on="0"/>
        <pt x="1259" y="137" on="0"/>
        <pt x="1121" y="41" on="0"/>
        <pt x="890" y="-12" on="0"/>
        <pt x="717" y="-12" on="1"/>
        <pt x="672" y="-12" on="0"/>
        <pt x="560" y="-8" on="0"/>
        <pt x="451" y="-4" on="0"/>
        <pt x="359" y="0" on="0"/>
        <pt x="334" y="0" on="1"/>
        <pt x="90" y="0" on="1"/>
      </contour>
      <contour>
        <pt x="542" y="143" on="1"/>
        <pt x="550" y="139" on="0"/>
        <pt x="588" y="134" on="0"/>
        <pt x="633" y="131" on="0"/>
        <pt x="678" y="130" on="0"/>
        <pt x="694" y="130" on="1"/>
        <pt x="767" y="130" on="0"/>
        <pt x="865" y="158" on="0"/>
        <pt x="924" y="211" on="0"/>
        <pt x="949" y="284" on="0"/>
        <pt x="949" y="329" on="1"/>
        <pt x="949" y="432" on="0"/>
        <pt x="834" y="533" on="0"/>
        <pt x="701" y="533" on="1"/>
        <pt x="542" y="533" on="1"/>
      </contour>
      <contour>
        <pt x="676" y="668" on="1"/>
        <pt x="741" y="668" on="0"/>
        <pt x="825" y="704" on="0"/>
        <pt x="873" y="761" on="0"/>
        <pt x="891" y="834" on="0"/>
        <pt x="891" y="871" on="1"/>
        <pt x="891" y="904" on="0"/>
        <pt x="873" y="958" on="0"/>
        <pt x="827" y="995" on="0"/>
        <pt x="749" y="1016" on="0"/>
        <pt x="689" y="1016" on="1"/>
        <pt x="542" y="1016" on="1"/>
        <pt x="542" y="668" on="1"/>
      </contour>
    </TTGlyph>
    <TTGlyph name="afii10068" xMin="74" yMin="0" xMax="1035" yMax="1137">
      <contour>
        <pt x="74" y="134" on="1"/>
        <pt x="220" y="154" on="1"/>
        <pt x="220" y="982" on="1"/>
        <pt x="78" y="1007" on="1"/>
        <pt x="78" y="1137" on="1"/>
        <pt x="1025" y="1137" on="1"/>
        <pt x="1035" y="680" on="1"/>
        <pt x="849" y="680" on="1"/>
        <pt x="785" y="983" on="1"/>
        <pt x="549" y="1006" on="1"/>
        <pt x="549" y="154" on="1"/>
        <pt x="808" y="134" on="1"/>
        <pt x="808" y="0" on="1"/>
        <pt x="74" y="0" on="1"/>
      </contour>
    </TTGlyph>
    <TTGlyph name="afii10069" xMin="31" yMin="-406" xMax="1335" yMax="1138">
      <contour>
        <pt x="31" y="-406" on="1"/>
        <pt x="31" y="-384" on="0"/>
        <pt x="31" y="-303" on="0"/>
        <pt x="32" y="-201" on="0"/>
        <pt x="34" y="-88" on="0"/>
        <pt x="36" y="21" on="0"/>
        <pt x="38" y="117" on="0"/>
        <pt x="39" y="150" on="1"/>
        <pt x="89" y="142" on="1"/>
        <pt x="141" y="142" on="1"/>
        <pt x="160" y="148" on="0"/>
        <pt x="207" y="179" on="0"/>
        <pt x="254" y="246" on="0"/>
        <pt x="299" y="362" on="0"/>
        <pt x="334" y="544" on="0"/>
        <pt x="355" y="804" on="0"/>
        <pt x="355" y="982" on="1"/>
        <pt x="162" y="1007" on="1"/>
        <pt x="162" y="1138" on="1"/>
        <pt x="1326" y="1138" on="1"/>
        <pt x="1326" y="1007" on="1"/>
        <pt x="1148" y="982" on="1"/>
        <pt x="1148" y="141" on="1"/>
        <pt x="1335" y="141" on="1"/>
        <pt x="1335" y="131" on="0"/>
        <pt x="1333" y="49" on="0"/>
        <pt x="1328" y="-64" on="0"/>
        <pt x="1323" y="-194" on="0"/>
        <pt x="1318" y="-309" on="0"/>
        <pt x="1312" y="-394" on="0"/>
        <pt x="1310" y="-406" on="1"/>
        <pt x="1138" y="-406" on="1"/>
        <pt x="1136" y="-391" on="0"/>
        <pt x="1125" y="-329" on="0"/>
        <pt x="1108" y="-250" on="0"/>
        <pt x="1088" y="-162" on="0"/>
        <pt x="1067" y="-82" on="0"/>
        <pt x="1048" y="-17" on="0"/>
        <pt x="1040" y="-1" on="1"/>
        <pt x="1040" y="0" on="1"/>
        <pt x="317" y="0" on="1"/>
        <pt x="308" y="-19" on="0"/>
        <pt x="288" y="-87" on="0"/>
        <pt x="268" y="-168" on="0"/>
        <pt x="250" y="-255" on="0"/>
        <pt x="235" y="-332" on="0"/>
        <pt x="225" y="-392" on="0"/>
        <pt x="223" y="-406" on="1"/>
      </contour>
      <contour>
        <pt x="525" y="989" on="1"/>
        <pt x="525" y="888" on="1"/>
        <pt x="525" y="758" on="0"/>
        <pt x="506" y="524" on="0"/>
        <pt x="473" y="330" on="0"/>
        <pt x="428" y="183" on="0"/>
        <pt x="402" y="141" on="1"/>
        <pt x="822" y="141" on="1"/>
        <pt x="822" y="989" on="1"/>
      </contour>
    </TTGlyph>
    <TTGlyph name="afii10070" xMin="67" yMin="-23" xMax="1065" yMax="1167">
      <component glyphName="e" x="0" y="0" flags="0x204"/>
    </TTGlyph>
    <TTGlyph name="afii10071" xMin="67" yMin="-23" xMax="1065" yMax="1688">
      <component glyphName="dieresis" x="88" y="0" flags="0x4"/>
      <component glyphName="e" x="0" y="0" flags="0x4"/>
    </TTGlyph>
    <TTGlyph name="afii10072" xMin="-17" yMin="0" xMax="2031" yMax="1138">
      <contour>
        <pt x="1697" y="0" on="1"/>
        <pt x="1663" y="0" on="0"/>
        <pt x="1606" y="45" on="0"/>
        <pt x="1557" y="120" on="0"/>
        <pt x="1513" y="215" on="0"/>
        <pt x="1470" y="314" on="0"/>
        <pt x="1426" y="409" on="0"/>
        <pt x="1376" y="484" on="0"/>
        <pt x="1318" y="529" on="0"/>
        <pt x="1283" y="529" on="1"/>
        <pt x="1167" y="530" on="1"/>
        <pt x="1167" y="160" on="1"/>
        <pt x="1334" y="134" on="1"/>
        <pt x="1334" y="0" on="1"/>
        <pt x="702" y="0" on="1"/>
        <pt x="702" y="134" on="1"/>
        <pt x="847" y="159" on="1"/>
        <pt x="847" y="530" on="1"/>
        <pt x="730" y="530" on="1"/>
        <pt x="695" y="530" on="0"/>
        <pt x="638" y="484" on="0"/>
        <pt x="589" y="409" on="0"/>
        <pt x="544" y="314" on="0"/>
        <pt x="501" y="215" on="0"/>
        <pt x="457" y="120" on="0"/>
        <pt x="408" y="45" on="0"/>
        <pt x="351" y="0" on="0"/>
        <pt x="317" y="0" on="1"/>
        <pt x="-17" y="0" on="1"/>
        <pt x="-17" y="137" on="1"/>
        <pt x="75" y="160" on="1"/>
        <pt x="99" y="168" on="0"/>
        <pt x="146" y="231" on="0"/>
        <pt x="198" y="320" on="0"/>
        <pt x="257" y="424" on="0"/>
        <pt x="326" y="525" on="0"/>
        <pt x="409" y="610" on="0"/>
        <pt x="460" y="635" on="1"/>
        <pt x="201" y="982" on="1"/>
        <pt x="41" y="1007" on="1"/>
        <pt x="41" y="1138" on="1"/>
        <pt x="586" y="1138" on="1"/>
        <pt x="586" y="1007" on="1"/>
        <pt x="446" y="983" on="1"/>
        <pt x="645" y="663" on="1"/>
        <pt x="847" y="663" on="1"/>
        <pt x="847" y="982" on="1"/>
        <pt x="722" y="1007" on="1"/>
        <pt x="722" y="1138" on="1"/>
        <pt x="1302" y="1138" on="1"/>
        <pt x="1303" y="1007" on="1"/>
        <pt x="1167" y="981" on="1"/>
        <pt x="1167" y="663" on="1"/>
        <pt x="1369" y="663" on="1"/>
        <pt x="1567" y="983" on="1"/>
        <pt x="1428" y="1007" on="1"/>
        <pt x="1428" y="1138" on="1"/>
        <pt x="1974" y="1138" on="1"/>
        <pt x="1974" y="1007" on="1"/>
        <pt x="1812" y="982" on="1"/>
        <pt x="1554" y="635" on="1"/>
        <pt x="1605" y="610" on="0"/>
        <pt x="1688" y="524" on="0"/>
        <pt x="1758" y="424" on="0"/>
        <pt x="1816" y="319" on="0"/>
        <pt x="1868" y="230" on="0"/>
        <pt x="1915" y="168" on="0"/>
        <pt x="1939" y="160" on="1"/>
        <pt x="2031" y="137" on="1"/>
        <pt x="2031" y="0" on="1"/>
        <pt x="1697" y="0" on="1"/>
      </contour>
    </TTGlyph>
    <TTGlyph name="afii10073" xMin="75" yMin="-16" xMax="1088" yMax="1161">
      <contour>
        <pt x="98" y="329" on="1"/>
        <pt x="291" y="329" on="1"/>
        <pt x="331" y="174" on="1"/>
        <pt x="341" y="159" on="0"/>
        <pt x="378" y="138" on="0"/>
        <pt x="425" y="124" on="0"/>
        <pt x="480" y="117" on="0"/>
        <pt x="509" y="117" on="1"/>
        <pt x="568" y="117" on="0"/>
        <pt x="649" y="152" on="0"/>
        <pt x="698" y="209" on="0"/>
        <pt x="720" y="283" on="0"/>
        <pt x="720" y="321" on="1"/>
        <pt x="720" y="360" on="0"/>
        <pt x="703" y="433" on="0"/>
        <pt x="661" y="488" on="0"/>
        <pt x="587" y="521" on="0"/>
        <pt x="530" y="521" on="1"/>
        <pt x="522" y="521" on="0"/>
        <pt x="489" y="516" on="0"/>
        <pt x="452" y="510" on="0"/>
        <pt x="419" y="503" on="0"/>
        <pt x="411" y="501" on="1"/>
        <pt x="414" y="667" on="1"/>
        <pt x="491" y="675" on="1"/>
        <pt x="579" y="689" on="0"/>
        <pt x="680" y="789" on="0"/>
        <pt x="680" y="879" on="1"/>
        <pt x="680" y="952" on="0"/>
        <pt x="603" y="1029" on="0"/>
        <pt x="508" y="1029" on="1"/>
        <pt x="470" y="1029" on="0"/>
        <pt x="409" y="1013" on="0"/>
        <pt x="364" y="989" on="0"/>
        <pt x="335" y="958" on="0"/>
        <pt x="329" y="943" on="1"/>
        <pt x="300" y="798" on="1"/>
        <pt x="94" y="798" on="1"/>
        <pt x="94" y="1106" on="1"/>
        <pt x="146" y="1106" on="0"/>
        <pt x="240" y="1123" on="0"/>
        <pt x="343" y="1144" on="0"/>
        <pt x="467" y="1161" on="0"/>
        <pt x="549" y="1161" on="1"/>
        <pt x="673" y="1161" on="0"/>
        <pt x="852" y="1125" on="0"/>
        <pt x="967" y="1056" on="0"/>
        <pt x="1021" y="955" on="0"/>
        <pt x="1021" y="890" on="1"/>
        <pt x="1021" y="849" on="0"/>
        <pt x="989" y="768" on="0"/>
        <pt x="929" y="696" on="0"/>
        <pt x="841" y="635" on="0"/>
        <pt x="785" y="614" on="1"/>
        <pt x="861" y="606" on="0"/>
        <pt x="974" y="560" on="0"/>
        <pt x="1049" y="490" on="0"/>
        <pt x="1086" y="399" on="0"/>
        <pt x="1087" y="346" on="1"/>
        <pt x="1088" y="263" on="0"/>
        <pt x="1025" y="129" on="0"/>
        <pt x="893" y="35" on="0"/>
        <pt x="690" y="-16" on="0"/>
        <pt x="552" y="-16" on="1"/>
        <pt x="459" y="-16" on="0"/>
        <pt x="304" y="2" on="0"/>
        <pt x="184" y="27" on="0"/>
        <pt x="99" y="53" on="0"/>
        <pt x="75" y="60" on="1"/>
      </contour>
    </TTGlyph>
    <TTGlyph name="afii10074" xMin="91" yMin="0" xMax="1494" yMax="1138">
      <contour>
        <pt x="91" y="134" on="1"/>
        <pt x="223" y="153" on="1"/>
        <pt x="223" y="982" on="1"/>
        <pt x="93" y="1008" on="1"/>
        <pt x="93" y="1138" on="1"/>
        <pt x="694" y="1138" on="1"/>
        <pt x="694" y="1007" on="1"/>
        <pt x="549" y="982" on="1"/>
        <pt x="549" y="392" on="1"/>
        <pt x="665" y="544" on="1"/>
        <pt x="1030" y="922" on="1"/>
        <pt x="1030" y="981" on="1"/>
        <pt x="885" y="1007" on="1"/>
        <pt x="885" y="1138" on="1"/>
        <pt x="1485" y="1138" on="1"/>
        <pt x="1485" y="1007" on="1"/>
        <pt x="1356" y="982" on="1"/>
        <pt x="1356" y="154" on="1"/>
        <pt x="1494" y="133" on="1"/>
        <pt x="1494" y="0" on="1"/>
        <pt x="885" y="0" on="1"/>
        <pt x="885" y="133" on="1"/>
        <pt x="1030" y="155" on="1"/>
        <pt x="1030" y="740" on="1"/>
        <pt x="919" y="586" on="1"/>
        <pt x="549" y="203" on="1"/>
        <pt x="549" y="146" on="1"/>
        <pt x="682" y="135" on="1"/>
        <pt x="681" y="0" on="1"/>
        <pt x="91" y="0" on="1"/>
      </contour>
    </TTGlyph>
    <TTGlyph name="afii10075" xMin="91" yMin="0" xMax="1494" yMax="1728">
      <component glyphName="afii10074" x="0" y="0" flags="0x204"/>
      <component glyphName="breve.r" x="276" y="0" flags="0x4"/>
    </TTGlyph>
    <TTGlyph name="afii10076" xMin="90" yMin="0" xMax="1406" yMax="1138">
      <contour>
        <pt x="1072" y="0" on="1"/>
        <pt x="1038" y="0" on="0"/>
        <pt x="981" y="45" on="0"/>
        <pt x="932" y="120" on="0"/>
        <pt x="888" y="215" on="0"/>
        <pt x="845" y="314" on="0"/>
        <pt x="800" y="409" on="0"/>
        <pt x="751" y="484" on="0"/>
        <pt x="693" y="529" on="0"/>
        <pt x="659" y="529" on="1"/>
        <pt x="547" y="530" on="1"/>
        <pt x="547" y="153" on="1"/>
        <pt x="705" y="134" on="1"/>
        <pt x="705" y="0" on="1"/>
        <pt x="90" y="0" on="1"/>
        <pt x="90" y="134" on="1"/>
        <pt x="222" y="153" on="1"/>
        <pt x="222" y="982" on="1"/>
        <pt x="92" y="1007" on="1"/>
        <pt x="92" y="1138" on="1"/>
        <pt x="676" y="1138" on="1"/>
        <pt x="676" y="1007" on="1"/>
        <pt x="547" y="981" on="1"/>
        <pt x="547" y="663" on="1"/>
        <pt x="741" y="663" on="1"/>
        <pt x="939" y="983" on="1"/>
        <pt x="799" y="1007" on="1"/>
        <pt x="799" y="1138" on="1"/>
        <pt x="1345" y="1138" on="1"/>
        <pt x="1345" y="1007" on="1"/>
        <pt x="1184" y="982" on="1"/>
        <pt x="926" y="636" on="1"/>
        <pt x="977" y="611" on="0"/>
        <pt x="1061" y="526" on="0"/>
        <pt x="1131" y="425" on="0"/>
        <pt x="1190" y="320" on="0"/>
        <pt x="1243" y="231" on="0"/>
        <pt x="1290" y="168" on="0"/>
        <pt x="1314" y="160" on="1"/>
        <pt x="1406" y="137" on="1"/>
        <pt x="1406" y="0" on="1"/>
        <pt x="1072" y="0" on="1"/>
      </contour>
    </TTGlyph>
    <TTGlyph name="afii10077" xMin="8" yMin="-14" xMax="1261" yMax="1138">
      <contour>
        <pt x="135" y="1138" on="1"/>
        <pt x="1261" y="1138" on="1"/>
        <pt x="1261" y="1004" on="1"/>
        <pt x="1083" y="975" on="1"/>
        <pt x="1083" y="153" on="1"/>
        <pt x="1250" y="134" on="1"/>
        <pt x="1250" y="0" on="1"/>
        <pt x="606" y="0" on="1"/>
        <pt x="606" y="134" on="1"/>
        <pt x="756" y="153" on="1"/>
        <pt x="756" y="986" on="1"/>
        <pt x="477" y="986" on="1"/>
        <pt x="477" y="882" on="1"/>
        <pt x="477" y="747" on="0"/>
        <pt x="455" y="509" on="0"/>
        <pt x="421" y="315" on="0"/>
        <pt x="376" y="170" on="0"/>
        <pt x="354" y="128" on="1"/>
        <pt x="341" y="98" on="0"/>
        <pt x="306" y="46" on="0"/>
        <pt x="255" y="8" on="0"/>
        <pt x="184" y="-14" on="0"/>
        <pt x="135" y="-14" on="1"/>
        <pt x="104" y="-14" on="0"/>
        <pt x="47" y="-6" on="0"/>
        <pt x="26" y="-1" on="1"/>
        <pt x="8" y="204" on="1"/>
        <pt x="31" y="199" on="0"/>
        <pt x="93" y="194" on="0"/>
        <pt x="137" y="194" on="1"/>
        <pt x="178" y="194" on="0"/>
        <pt x="246" y="320" on="0"/>
        <pt x="295" y="536" on="0"/>
        <pt x="322" y="822" on="0"/>
        <pt x="322" y="982" on="1"/>
        <pt x="135" y="1007" on="1"/>
      </contour>
    </TTGlyph>
    <TTGlyph name="afii10078" xMin="-17" yMin="0" xMax="1867" yMax="1138">
      <contour>
        <pt x="-17" y="134" on="1"/>
        <pt x="137" y="154" on="1"/>
        <pt x="244" y="982" on="1"/>
        <pt x="67" y="1007" on="1"/>
        <pt x="67" y="1138" on="1"/>
        <pt x="680" y="1138" on="1"/>
        <pt x="899" y="550" on="1"/>
        <pt x="939" y="395" on="1"/>
        <pt x="969" y="550" on="1"/>
        <pt x="1143" y="1138" on="1"/>
        <pt x="1775" y="1138" on="1"/>
        <pt x="1775" y="1007" on="1"/>
        <pt x="1579" y="982" on="1"/>
        <pt x="1718" y="154" on="1"/>
        <pt x="1867" y="134" on="1"/>
        <pt x="1867" y="0" on="1"/>
        <pt x="1234" y="0" on="1"/>
        <pt x="1234" y="134" on="1"/>
        <pt x="1386" y="156" on="1"/>
        <pt x="1320" y="740" on="1"/>
        <pt x="1284" y="1009" on="1"/>
        <pt x="1212" y="743" on="1"/>
        <pt x="999" y="79" on="1"/>
        <pt x="759" y="79" on="1"/>
        <pt x="498" y="748" on="1"/>
        <pt x="412" y="1011" on="1"/>
        <pt x="388" y="749" on="1"/>
        <pt x="342" y="154" on="1"/>
        <pt x="513" y="134" on="1"/>
        <pt x="513" y="0" on="1"/>
        <pt x="-17" y="0" on="1"/>
      </contour>
    </TTGlyph>
    <TTGlyph name="afii10079" xMin="88" yMin="0" xMax="1458" yMax="1138">
      <contour>
        <pt x="90" y="134" on="1"/>
        <pt x="223" y="154" on="1"/>
        <pt x="223" y="981" on="1"/>
        <pt x="88" y="1007" on="1"/>
        <pt x="88" y="1138" on="1"/>
        <pt x="687" y="1138" on="1"/>
        <pt x="687" y="1007" on="1"/>
        <pt x="550" y="982" on="1"/>
        <pt x="550" y="664" on="1"/>
        <pt x="998" y="664" on="1"/>
        <pt x="998" y="982" on="1"/>
        <pt x="860" y="1007" on="1"/>
        <pt x="860" y="1138" on="1"/>
        <pt x="1457" y="1138" on="1"/>
        <pt x="1457" y="1007" on="1"/>
        <pt x="1325" y="981" on="1"/>
        <pt x="1325" y="154" on="1"/>
        <pt x="1458" y="134" on="1"/>
        <pt x="1458" y="0" on="1"/>
        <pt x="858" y="0" on="1"/>
        <pt x="858" y="134" on="1"/>
        <pt x="998" y="154" on="1"/>
        <pt x="998" y="517" on="1"/>
        <pt x="550" y="517" on="1"/>
        <pt x="550" y="154" on="1"/>
        <pt x="690" y="134" on="1"/>
        <pt x="690" y="0" on="1"/>
        <pt x="90" y="0" on="1"/>
      </contour>
    </TTGlyph>
    <TTGlyph name="afii10080" xMin="63" yMin="-23" xMax="1180" yMax="1168">
      <component glyphName="o" x="0" y="0" flags="0x204"/>
    </TTGlyph>
    <TTGlyph name="afii10081" xMin="87" yMin="0" xMax="1416" yMax="1138">
      <contour>
        <pt x="91" y="134" on="1"/>
        <pt x="223" y="159" on="1"/>
        <pt x="223" y="982" on="1"/>
        <pt x="87" y="1007" on="1"/>
        <pt x="87" y="1138" on="1"/>
        <pt x="1416" y="1138" on="1"/>
        <pt x="1416" y="1007" on="1"/>
        <pt x="1279" y="981" on="1"/>
        <pt x="1279" y="159" on="1"/>
        <pt x="1412" y="134" on="1"/>
        <pt x="1412" y="0" on="1"/>
        <pt x="815" y="0" on="1"/>
        <pt x="815" y="134" on="1"/>
        <pt x="953" y="159" on="1"/>
        <pt x="953" y="1000" on="1"/>
        <pt x="550" y="1000" on="1"/>
        <pt x="550" y="159" on="1"/>
        <pt x="682" y="134" on="1"/>
        <pt x="682" y="0" on="1"/>
        <pt x="91" y="0" on="1"/>
      </contour>
    </TTGlyph>
    <TTGlyph name="afii10082" xMin="61" yMin="-496" xMax="1245" yMax="1168">
      <component glyphName="p" x="4" y="0" flags="0x4"/>
    </TTGlyph>
    <TTGlyph name="afii10083" xMin="74" yMin="-23" xMax="1011" yMax="1168">
      <component glyphName="c" x="0" y="0" flags="0x204"/>
    </TTGlyph>
    <TTGlyph name="afii10084" xMin="45" yMin="0" xMax="1275" yMax="1137">
      <contour>
        <pt x="251" y="134" on="1"/>
        <pt x="502" y="160" on="1"/>
        <pt x="502" y="1006" on="1"/>
        <pt x="303" y="983" on="1"/>
        <pt x="242" y="663" on="1"/>
        <pt x="45" y="663" on="1"/>
        <pt x="63" y="1137" on="1"/>
        <pt x="1256" y="1137" on="1"/>
        <pt x="1275" y="663" on="1"/>
        <pt x="1080" y="663" on="1"/>
        <pt x="1015" y="983" on="1"/>
        <pt x="829" y="1006" on="1"/>
        <pt x="829" y="159" on="1"/>
        <pt x="1088" y="134" on="1"/>
        <pt x="1088" y="0" on="1"/>
        <pt x="251" y="0" on="1"/>
      </contour>
    </TTGlyph>
    <TTGlyph name="afii10085" xMin="-25" yMin="-510" xMax="1206" yMax="1138">
      <component glyphName="y" x="1" y="0" flags="0x4"/>
    </TTGlyph>
    <TTGlyph name="afii10086" xMin="69" yMin="-497" xMax="1801" yMax="1680">
      <contour>
        <pt x="1240" y="-25" on="1"/>
        <pt x="1199" y="-25" on="0"/>
        <pt x="1120" y="-9" on="0"/>
        <pt x="1093" y="5" on="1"/>
        <pt x="1098" y="-113" on="1"/>
        <pt x="1098" y="-338" on="1"/>
        <pt x="1261" y="-367" on="1"/>
        <pt x="1261" y="-497" on="1"/>
        <pt x="619" y="-497" on="1"/>
        <pt x="619" y="-367" on="1"/>
        <pt x="777" y="-338" on="1"/>
        <pt x="777" y="-113" on="1"/>
        <pt x="783" y="80" on="1"/>
        <pt x="738" y="33" on="0"/>
        <pt x="608" y="-25" on="0"/>
        <pt x="517" y="-25" on="1"/>
        <pt x="426" y="-25" on="0"/>
        <pt x="264" y="39" on="0"/>
        <pt x="141" y="176" on="0"/>
        <pt x="69" y="390" on="0"/>
        <pt x="69" y="540" on="1"/>
        <pt x="69" y="677" on="0"/>
        <pt x="144" y="907" on="0"/>
        <pt x="287" y="1073" on="0"/>
        <pt x="495" y="1166" on="0"/>
        <pt x="629" y="1166" on="1"/>
        <pt x="648" y="1166" on="0"/>
        <pt x="691" y="1161" on="0"/>
        <pt x="733" y="1153" on="0"/>
        <pt x="770" y="1141" on="0"/>
        <pt x="784" y="1135" on="1"/>
        <pt x="777" y="1292" on="1"/>
        <pt x="777" y="1485" on="1"/>
        <pt x="630" y="1509" on="1"/>
        <pt x="630" y="1631" on="1"/>
        <pt x="1023" y="1680" on="1"/>
        <pt x="1027" y="1680" on="1"/>
        <pt x="1092" y="1638" on="1"/>
        <pt x="1092" y="1292" on="1"/>
        <pt x="1087" y="1062" on="1"/>
        <pt x="1132" y="1108" on="0"/>
        <pt x="1261" y="1166" on="0"/>
        <pt x="1352" y="1166" on="1"/>
        <pt x="1443" y="1166" on="0"/>
        <pt x="1606" y="1102" on="0"/>
        <pt x="1729" y="965" on="0"/>
        <pt x="1801" y="751" on="0"/>
        <pt x="1801" y="601" on="1"/>
        <pt x="1801" y="464" on="0"/>
        <pt x="1726" y="234" on="0"/>
        <pt x="1583" y="68" on="0"/>
        <pt x="1374" y="-25" on="0"/>
      </contour>
      <contour>
        <pt x="1227" y="995" on="1"/>
        <pt x="1185" y="995" on="0"/>
        <pt x="1115" y="969" on="0"/>
        <pt x="1092" y="949" on="1"/>
        <pt x="1092" y="173" on="1"/>
        <pt x="1097" y="166" on="0"/>
        <pt x="1118" y="148" on="0"/>
        <pt x="1148" y="133" on="0"/>
        <pt x="1188" y="123" on="0"/>
        <pt x="1211" y="123" on="1"/>
        <pt x="1258" y="123" on="0"/>
        <pt x="1348" y="169" on="0"/>
        <pt x="1418" y="275" on="0"/>
        <pt x="1460" y="449" on="0"/>
        <pt x="1460" y="577" on="1"/>
        <pt x="1460" y="681" on="0"/>
        <pt x="1424" y="837" on="0"/>
        <pt x="1362" y="942" on="0"/>
        <pt x="1276" y="995" on="0"/>
      </contour>
      <contour>
        <pt x="642" y="150" on="1"/>
        <pt x="685" y="150" on="0"/>
        <pt x="755" y="176" on="0"/>
        <pt x="777" y="198" on="1"/>
        <pt x="777" y="972" on="1"/>
        <pt x="772" y="979" on="0"/>
        <pt x="751" y="997" on="0"/>
        <pt x="721" y="1012" on="0"/>
        <pt x="682" y="1022" on="0"/>
        <pt x="659" y="1022" on="1"/>
        <pt x="611" y="1022" on="0"/>
        <pt x="521" y="974" on="0"/>
        <pt x="452" y="865" on="0"/>
        <pt x="410" y="688" on="0"/>
        <pt x="410" y="560" on="1"/>
        <pt x="410" y="456" on="0"/>
        <pt x="445" y="302" on="0"/>
        <pt x="507" y="200" on="0"/>
        <pt x="592" y="150" on="0"/>
      </contour>
    </TTGlyph>
    <TTGlyph name="afii10087" xMin="4" yMin="0" xMax="1262" yMax="1138">
      <component glyphName="x" x="0" y="0" flags="0x204"/>
    </TTGlyph>
    <TTGlyph name="afii10088" xMin="91" yMin="-406" xMax="1493" yMax="1138">
      <contour>
        <pt x="1261" y="-406" on="1"/>
        <pt x="1259" y="-391" on="0"/>
        <pt x="1250" y="-325" on="0"/>
        <pt x="1239" y="-242" on="0"/>
        <pt x="1225" y="-151" on="0"/>
        <pt x="1212" y="-71" on="0"/>
        <pt x="1199" y="-11" on="0"/>
        <pt x="1194" y="0" on="1"/>
        <pt x="92" y="0" on="1"/>
        <pt x="92" y="133" on="1"/>
        <pt x="223" y="159" on="1"/>
        <pt x="223" y="982" on="1"/>
        <pt x="91" y="1007" on="1"/>
        <pt x="91" y="1138" on="1"/>
        <pt x="689" y="1138" on="1"/>
        <pt x="689" y="1007" on="1"/>
        <pt x="550" y="982" on="1"/>
        <pt x="550" y="147" on="1"/>
        <pt x="949" y="147" on="1"/>
        <pt x="949" y="982" on="1"/>
        <pt x="815" y="1007" on="1"/>
        <pt x="815" y="1138" on="1"/>
        <pt x="1399" y="1138" on="1"/>
        <pt x="1399" y="1007" on="1"/>
        <pt x="1278" y="982" on="1"/>
        <pt x="1278" y="147" on="1"/>
        <pt x="1279" y="148" on="1"/>
        <pt x="1493" y="148" on="1"/>
        <pt x="1493" y="140" on="0"/>
        <pt x="1489" y="87" on="0"/>
        <pt x="1481" y="10" on="0"/>
        <pt x="1472" y="-85" on="0"/>
        <pt x="1462" y="-182" on="0"/>
        <pt x="1451" y="-275" on="0"/>
        <pt x="1442" y="-350" on="0"/>
        <pt x="1435" y="-400" on="0"/>
        <pt x="1433" y="-406" on="1"/>
        <pt x="1261" y="-406" on="1"/>
      </contour>
    </TTGlyph>
    <TTGlyph name="afii10089" xMin="6" yMin="0" xMax="1281" yMax="1138">
      <contour>
        <pt x="530" y="383" on="1"/>
        <pt x="435" y="383" on="0"/>
        <pt x="280" y="424" on="0"/>
        <pt x="170" y="523" on="0"/>
        <pt x="111" y="690" on="0"/>
        <pt x="111" y="815" on="1"/>
        <pt x="111" y="982" on="1"/>
        <pt x="6" y="1007" on="1"/>
        <pt x="6" y="1138" on="1"/>
        <pt x="549" y="1138" on="1"/>
        <pt x="549" y="1007" on="1"/>
        <pt x="443" y="982" on="1"/>
        <pt x="443" y="868" on="1"/>
        <pt x="443" y="766" on="0"/>
        <pt x="458" y="638" on="0"/>
        <pt x="500" y="567" on="0"/>
        <pt x="574" y="542" on="0"/>
        <pt x="633" y="542" on="1"/>
        <pt x="701" y="542" on="0"/>
        <pt x="801" y="574" on="0"/>
        <pt x="827" y="593" on="1"/>
        <pt x="827" y="981" on="1"/>
        <pt x="707" y="1007" on="1"/>
        <pt x="707" y="1138" on="1"/>
        <pt x="1279" y="1138" on="1"/>
        <pt x="1279" y="1007" on="1"/>
        <pt x="1148" y="982" on="1"/>
        <pt x="1148" y="159" on="1"/>
        <pt x="1281" y="134" on="1"/>
        <pt x="1281" y="0" on="1"/>
        <pt x="651" y="0" on="1"/>
        <pt x="651" y="134" on="1"/>
        <pt x="827" y="160" on="1"/>
        <pt x="827" y="458" on="1"/>
        <pt x="795" y="444" on="0"/>
        <pt x="735" y="417" on="0"/>
        <pt x="666" y="396" on="0"/>
        <pt x="584" y="383" on="0"/>
      </contour>
    </TTGlyph>
    <TTGlyph name="afii10090" xMin="84" yMin="0" xMax="2050" yMax="1138">
      <contour>
        <pt x="84" y="127" on="1"/>
        <pt x="223" y="154" on="1"/>
        <pt x="223" y="980" on="1"/>
        <pt x="88" y="1007" on="1"/>
        <pt x="88" y="1138" on="1"/>
        <pt x="681" y="1138" on="1"/>
        <pt x="681" y="1007" on="1"/>
        <pt x="542" y="982" on="1"/>
        <pt x="542" y="143" on="1"/>
        <pt x="903" y="143" on="1"/>
        <pt x="903" y="982" on="1"/>
        <pt x="770" y="1007" on="1"/>
        <pt x="770" y="1138" on="1"/>
        <pt x="1348" y="1138" on="1"/>
        <pt x="1348" y="1007" on="1"/>
        <pt x="1220" y="982" on="1"/>
        <pt x="1220" y="143" on="1"/>
        <pt x="1580" y="143" on="1"/>
        <pt x="1580" y="982" on="1"/>
        <pt x="1444" y="1007" on="1"/>
        <pt x="1444" y="1138" on="1"/>
        <pt x="2033" y="1138" on="1"/>
        <pt x="2033" y="1007" on="1"/>
        <pt x="1899" y="982" on="1"/>
        <pt x="1899" y="153" on="1"/>
        <pt x="2050" y="127" on="1"/>
        <pt x="2050" y="0" on="1"/>
        <pt x="84" y="0" on="1"/>
      </contour>
    </TTGlyph>
    <TTGlyph name="afii10091" xMin="84" yMin="-410" xMax="2107" yMax="1138">
      <contour>
        <pt x="84" y="127" on="1"/>
        <pt x="223" y="154" on="1"/>
        <pt x="223" y="980" on="1"/>
        <pt x="88" y="1007" on="1"/>
        <pt x="88" y="1138" on="1"/>
        <pt x="681" y="1138" on="1"/>
        <pt x="681" y="1007" on="1"/>
        <pt x="542" y="982" on="1"/>
        <pt x="542" y="143" on="1"/>
        <pt x="903" y="143" on="1"/>
        <pt x="903" y="982" on="1"/>
        <pt x="770" y="1007" on="1"/>
        <pt x="770" y="1138" on="1"/>
        <pt x="1348" y="1138" on="1"/>
        <pt x="1348" y="1007" on="1"/>
        <pt x="1220" y="982" on="1"/>
        <pt x="1220" y="143" on="1"/>
        <pt x="1580" y="143" on="1"/>
        <pt x="1580" y="982" on="1"/>
        <pt x="1444" y="1007" on="1"/>
        <pt x="1444" y="1138" on="1"/>
        <pt x="2033" y="1138" on="1"/>
        <pt x="2033" y="1007" on="1"/>
        <pt x="1899" y="982" on="1"/>
        <pt x="1899" y="148" on="1"/>
        <pt x="2107" y="148" on="1"/>
        <pt x="2107" y="140" on="0"/>
        <pt x="2103" y="87" on="0"/>
        <pt x="2095" y="9" on="0"/>
        <pt x="2086" y="-86" on="0"/>
        <pt x="2076" y="-184" on="0"/>
        <pt x="2065" y="-278" on="0"/>
        <pt x="2057" y="-354" on="0"/>
        <pt x="2050" y="-404" on="0"/>
        <pt x="2048" y="-410" on="1"/>
        <pt x="1875" y="-410" on="1"/>
        <pt x="1873" y="-395" on="0"/>
        <pt x="1865" y="-329" on="0"/>
        <pt x="1854" y="-245" on="0"/>
        <pt x="1840" y="-152" on="0"/>
        <pt x="1827" y="-71" on="0"/>
        <pt x="1814" y="-11" on="0"/>
        <pt x="1809" y="0" on="1"/>
        <pt x="84" y="0" on="1"/>
      </contour>
    </TTGlyph>
    <TTGlyph name="afii10092" xMin="52" yMin="-19" xMax="1520" yMax="1138">
      <contour>
        <pt x="244" y="134" on="1"/>
        <pt x="497" y="156" on="1"/>
        <pt x="497" y="1006" on="1"/>
        <pt x="290" y="996" on="1"/>
        <pt x="237" y="658" on="1"/>
        <pt x="52" y="658" on="1"/>
        <pt x="52" y="1138" on="1"/>
        <pt x="961" y="1138" on="1"/>
        <pt x="961" y="1007" on="1"/>
        <pt x="817" y="980" on="1"/>
        <pt x="817" y="700" on="1"/>
        <pt x="1058" y="701" on="1"/>
        <pt x="1178" y="701" on="0"/>
        <pt x="1352" y="655" on="0"/>
        <pt x="1465" y="566" on="0"/>
        <pt x="1520" y="439" on="0"/>
        <pt x="1520" y="358" on="1"/>
        <pt x="1520" y="257" on="0"/>
        <pt x="1452" y="114" on="0"/>
        <pt x="1322" y="23" on="0"/>
        <pt x="1133" y="-19" on="0"/>
        <pt x="1012" y="-19" on="1"/>
        <pt x="998" y="-19" on="0"/>
        <pt x="942" y="-16" on="0"/>
        <pt x="872" y="-12" on="0"/>
        <pt x="795" y="-7" on="0"/>
        <pt x="721" y="-3" on="0"/>
        <pt x="659" y="0" on="0"/>
        <pt x="640" y="0" on="1"/>
        <pt x="244" y="0" on="1"/>
      </contour>
      <contour>
        <pt x="817" y="555" on="1"/>
        <pt x="817" y="137" on="1"/>
        <pt x="840" y="130" on="0"/>
        <pt x="906" y="120" on="0"/>
        <pt x="939" y="120" on="1"/>
        <pt x="1068" y="120" on="0"/>
        <pt x="1183" y="232" on="0"/>
        <pt x="1183" y="334" on="1"/>
        <pt x="1183" y="383" on="0"/>
        <pt x="1158" y="464" on="0"/>
        <pt x="1105" y="523" on="0"/>
        <pt x="1021" y="555" on="0"/>
        <pt x="963" y="555" on="1"/>
      </contour>
    </TTGlyph>
    <TTGlyph name="afii10093" xMin="74" yMin="-19" xMax="1845" yMax="1138">
      <contour>
        <pt x="74" y="127" on="1"/>
        <pt x="223" y="153" on="1"/>
        <pt x="223" y="980" on="1"/>
        <pt x="76" y="1006" on="1"/>
        <pt x="76" y="1138" on="1"/>
        <pt x="705" y="1138" on="1"/>
        <pt x="705" y="1006" on="1"/>
        <pt x="543" y="980" on="1"/>
        <pt x="543" y="701" on="1"/>
        <pt x="758" y="701" on="1"/>
        <pt x="877" y="701" on="0"/>
        <pt x="1051" y="655" on="0"/>
        <pt x="1164" y="566" on="0"/>
        <pt x="1218" y="439" on="0"/>
        <pt x="1218" y="358" on="1"/>
        <pt x="1218" y="260" on="0"/>
        <pt x="1151" y="118" on="0"/>
        <pt x="1022" y="26" on="0"/>
        <pt x="836" y="-19" on="0"/>
        <pt x="716" y="-19" on="1"/>
        <pt x="702" y="-19" on="0"/>
        <pt x="646" y="-16" on="0"/>
        <pt x="576" y="-12" on="0"/>
        <pt x="499" y="-7" on="0"/>
        <pt x="425" y="-3" on="0"/>
        <pt x="363" y="0" on="0"/>
        <pt x="344" y="0" on="1"/>
        <pt x="74" y="0" on="1"/>
      </contour>
      <contour>
        <pt x="1265" y="134" on="1"/>
        <pt x="1391" y="159" on="1"/>
        <pt x="1391" y="980" on="1"/>
        <pt x="1259" y="1004" on="1"/>
        <pt x="1259" y="1138" on="1"/>
        <pt x="1828" y="1138" on="1"/>
        <pt x="1828" y="1004" on="1"/>
        <pt x="1706" y="982" on="1"/>
        <pt x="1706" y="157" on="1"/>
        <pt x="1845" y="134" on="1"/>
        <pt x="1845" y="0" on="1"/>
        <pt x="1265" y="0" on="1"/>
      </contour>
      <contour>
        <pt x="543" y="555" on="1"/>
        <pt x="543" y="127" on="1"/>
        <pt x="560" y="124" on="0"/>
        <pt x="606" y="120" on="0"/>
        <pt x="642" y="120" on="1"/>
        <pt x="769" y="120" on="0"/>
        <pt x="882" y="232" on="0"/>
        <pt x="882" y="334" on="1"/>
        <pt x="882" y="383" on="0"/>
        <pt x="857" y="464" on="0"/>
        <pt x="804" y="523" on="0"/>
        <pt x="721" y="555" on="0"/>
        <pt x="662" y="555" on="1"/>
      </contour>
    </TTGlyph>
    <TTGlyph name="afii10094" xMin="77" yMin="-19" xMax="1240" yMax="1138">
      <contour>
        <pt x="77" y="127" on="1"/>
        <pt x="223" y="154" on="1"/>
        <pt x="223" y="982" on="1"/>
        <pt x="81" y="1005" on="1"/>
        <pt x="81" y="1138" on="1"/>
        <pt x="712" y="1138" on="1"/>
        <pt x="712" y="1005" on="1"/>
        <pt x="543" y="982" on="1"/>
        <pt x="543" y="701" on="1"/>
        <pt x="779" y="701" on="1"/>
        <pt x="898" y="701" on="0"/>
        <pt x="1072" y="655" on="0"/>
        <pt x="1185" y="566" on="0"/>
        <pt x="1240" y="439" on="0"/>
        <pt x="1240" y="358" on="1"/>
        <pt x="1240" y="260" on="0"/>
        <pt x="1173" y="118" on="0"/>
        <pt x="1044" y="26" on="0"/>
        <pt x="858" y="-19" on="0"/>
        <pt x="738" y="-19" on="1"/>
        <pt x="724" y="-19" on="0"/>
        <pt x="668" y="-16" on="0"/>
        <pt x="598" y="-12" on="0"/>
        <pt x="520" y="-7" on="0"/>
        <pt x="447" y="-3" on="0"/>
        <pt x="384" y="0" on="0"/>
        <pt x="365" y="0" on="1"/>
        <pt x="77" y="0" on="1"/>
      </contour>
      <contour>
        <pt x="543" y="555" on="1"/>
        <pt x="543" y="132" on="1"/>
        <pt x="563" y="127" on="0"/>
        <pt x="616" y="120" on="0"/>
        <pt x="664" y="120" on="1"/>
        <pt x="791" y="120" on="0"/>
        <pt x="903" y="232" on="0"/>
        <pt x="903" y="334" on="1"/>
        <pt x="903" y="383" on="0"/>
        <pt x="878" y="464" on="0"/>
        <pt x="825" y="523" on="0"/>
        <pt x="742" y="555" on="0"/>
        <pt x="683" y="555" on="1"/>
      </contour>
    </TTGlyph>
    <TTGlyph name="afii10095" xMin="76" yMin="-23" xMax="1036" yMax="1170">
      <contour>
        <pt x="270" y="673" on="1"/>
        <pt x="280" y="673" on="0"/>
        <pt x="330" y="671" on="0"/>
        <pt x="401" y="669" on="0"/>
        <pt x="484" y="666" on="0"/>
        <pt x="571" y="664" on="0"/>
        <pt x="653" y="662" on="0"/>
        <pt x="687" y="661" on="1"/>
        <pt x="678" y="839" on="0"/>
        <pt x="559" y="1032" on="0"/>
        <pt x="453" y="1032" on="1"/>
        <pt x="396" y="1032" on="0"/>
        <pt x="331" y="996" on="0"/>
        <pt x="311" y="970" on="1"/>
        <pt x="271" y="843" on="1"/>
        <pt x="90" y="843" on="1"/>
        <pt x="85" y="1112" on="1"/>
        <pt x="107" y="1121" on="0"/>
        <pt x="193" y="1142" on="0"/>
        <pt x="297" y="1159" on="0"/>
        <pt x="409" y="1170" on="0"/>
        <pt x="458" y="1170" on="1"/>
        <pt x="579" y="1170" on="0"/>
        <pt x="790" y="1092" on="0"/>
        <pt x="946" y="941" on="0"/>
        <pt x="1036" y="717" on="0"/>
        <pt x="1035" y="571" on="1"/>
        <pt x="1034" y="434" on="0"/>
        <pt x="958" y="214" on="0"/>
        <pt x="817" y="60" on="0"/>
        <pt x="617" y="-23" on="0"/>
        <pt x="491" y="-23" on="1"/>
        <pt x="423" y="-23" on="0"/>
        <pt x="301" y="-5" on="0"/>
        <pt x="197" y="27" on="0"/>
        <pt x="113" y="69" on="0"/>
        <pt x="84" y="93" on="1"/>
        <pt x="76" y="309" on="1"/>
        <pt x="231" y="309" on="1"/>
        <pt x="276" y="155" on="1"/>
        <pt x="308" y="142" on="0"/>
        <pt x="382" y="126" on="0"/>
        <pt x="425" y="126" on="1"/>
        <pt x="479" y="126" on="0"/>
        <pt x="569" y="164" on="0"/>
        <pt x="638" y="252" on="0"/>
        <pt x="681" y="399" on="0"/>
        <pt x="687" y="508" on="1"/>
        <pt x="270" y="496" on="1"/>
      </contour>
    </TTGlyph>
    <TTGlyph name="afii10096" xMin="91" yMin="-23" xMax="1884" yMax="1168">
      <contour>
        <pt x="91" y="134" on="1"/>
        <pt x="223" y="159" on="1"/>
        <pt x="223" y="982" on="1"/>
        <pt x="93" y="1007" on="1"/>
        <pt x="93" y="1138" on="1"/>
        <pt x="700" y="1138" on="1"/>
        <pt x="700" y="1007" on="1"/>
        <pt x="552" y="982" on="1"/>
        <pt x="552" y="665" on="1"/>
        <pt x="780" y="665" on="1"/>
        <pt x="795" y="792" on="0"/>
        <pt x="897" y="982" on="0"/>
        <pt x="1050" y="1106" on="0"/>
        <pt x="1240" y="1168" on="0"/>
        <pt x="1344" y="1168" on="1"/>
        <pt x="1473" y="1168" on="0"/>
        <pt x="1674" y="1088" on="0"/>
        <pt x="1812" y="938" on="0"/>
        <pt x="1884" y="720" on="0"/>
        <pt x="1884" y="582" on="1"/>
        <pt x="1884" y="425" on="0"/>
        <pt x="1791" y="197" on="0"/>
        <pt x="1634" y="48" on="0"/>
        <pt x="1427" y="-23" on="0"/>
        <pt x="1314" y="-23" on="1"/>
        <pt x="1191" y="-23" on="0"/>
        <pt x="997" y="50" on="0"/>
        <pt x="860" y="188" on="0"/>
        <pt x="782" y="388" on="0"/>
        <pt x="775" y="514" on="1"/>
        <pt x="552" y="514" on="1"/>
        <pt x="552" y="159" on="1"/>
        <pt x="709" y="134" on="1"/>
        <pt x="709" y="0" on="1"/>
        <pt x="91" y="0" on="1"/>
      </contour>
      <contour>
        <pt x="1332" y="116" on="1"/>
        <pt x="1384" y="116" on="0"/>
        <pt x="1459" y="166" on="0"/>
        <pt x="1509" y="273" on="0"/>
        <pt x="1533" y="438" on="0"/>
        <pt x="1533" y="553" on="1"/>
        <pt x="1533" y="789" on="0"/>
        <pt x="1440" y="1029" on="0"/>
        <pt x="1327" y="1029" on="1"/>
        <pt x="1276" y="1029" on="0"/>
        <pt x="1200" y="980" on="0"/>
        <pt x="1150" y="876" on="0"/>
        <pt x="1125" y="713" on="0"/>
        <pt x="1125" y="599" on="1"/>
        <pt x="1125" y="362" on="0"/>
        <pt x="1220" y="116" on="0"/>
      </contour>
    </TTGlyph>
    <TTGlyph name="afii10097" xMin="33" yMin="0" xMax="1299" yMax="1152">
      <contour>
        <pt x="33" y="134" on="1"/>
        <pt x="124" y="162" on="1"/>
        <pt x="152" y="168" on="0"/>
        <pt x="197" y="207" on="0"/>
        <pt x="235" y="262" on="0"/>
        <pt x="269" y="328" on="0"/>
        <pt x="302" y="393" on="0"/>
        <pt x="337" y="453" on="0"/>
        <pt x="358" y="475" on="1"/>
        <pt x="235" y="511" on="0"/>
        <pt x="114" y="677" on="0"/>
        <pt x="114" y="804" on="1"/>
        <pt x="114" y="969" on="0"/>
        <pt x="388" y="1152" on="0"/>
        <pt x="660" y="1152" on="1"/>
        <pt x="708" y="1152" on="0"/>
        <pt x="814" y="1148" on="0"/>
        <pt x="916" y="1142" on="0"/>
        <pt x="1009" y="1138" on="0"/>
        <pt x="1044" y="1138" on="1"/>
        <pt x="1294" y="1138" on="1"/>
        <pt x="1294" y="1004" on="1"/>
        <pt x="1155" y="982" on="1"/>
        <pt x="1155" y="160" on="1"/>
        <pt x="1299" y="136" on="1"/>
        <pt x="1299" y="0" on="1"/>
        <pt x="678" y="0" on="1"/>
        <pt x="678" y="136" on="1"/>
        <pt x="835" y="161" on="1"/>
        <pt x="835" y="449" on="1"/>
        <pt x="636" y="449" on="1"/>
        <pt x="606" y="424" on="0"/>
        <pt x="558" y="338" on="0"/>
        <pt x="518" y="238" on="0"/>
        <pt x="483" y="136" on="0"/>
        <pt x="450" y="53" on="0"/>
        <pt x="416" y="0" on="0"/>
        <pt x="396" y="0" on="1"/>
        <pt x="33" y="0" on="1"/>
      </contour>
      <contour>
        <pt x="699" y="581" on="1"/>
        <pt x="717" y="581" on="0"/>
        <pt x="756" y="581" on="0"/>
        <pt x="793" y="582" on="0"/>
        <pt x="824" y="583" on="0"/>
        <pt x="835" y="584" on="1"/>
        <pt x="835" y="1014" on="1"/>
        <pt x="820" y="1017" on="0"/>
        <pt x="751" y="1021" on="0"/>
        <pt x="682" y="1021" on="1"/>
        <pt x="643" y="1021" on="0"/>
        <pt x="564" y="1007" on="0"/>
        <pt x="501" y="966" on="0"/>
        <pt x="462" y="893" on="0"/>
        <pt x="462" y="834" on="1"/>
        <pt x="462" y="783" on="0"/>
        <pt x="486" y="691" on="0"/>
        <pt x="542" y="622" on="0"/>
        <pt x="633" y="581" on="0"/>
      </contour>
    </TTGlyph>
    <TTGlyph name="afii10098" xMin="81" yMin="0" xMax="1005" yMax="1461">
      <contour>
        <pt x="81" y="0" on="1"/>
        <pt x="81" y="134" on="1"/>
        <pt x="227" y="160" on="1"/>
        <pt x="227" y="982" on="1"/>
        <pt x="85" y="1007" on="1"/>
        <pt x="85" y="1138" on="1"/>
        <pt x="773" y="1138" on="1"/>
        <pt x="814" y="1461" on="1"/>
        <pt x="993" y="1461" on="1"/>
        <pt x="1005" y="989" on="1"/>
        <pt x="548" y="999" on="1"/>
        <pt x="548" y="160" on="1"/>
        <pt x="816" y="134" on="1"/>
        <pt x="816" y="0" on="1"/>
      </contour>
    </TTGlyph>
    <TTGlyph name="afii10099" xMin="17" yMin="-530" xMax="1220" yMax="1693">
      <contour>
        <pt x="17" y="1343" on="1"/>
        <pt x="192" y="1343" on="1"/>
        <pt x="192" y="1493" on="1"/>
        <pt x="46" y="1519" on="1"/>
        <pt x="46" y="1644" on="1"/>
        <pt x="453" y="1693" on="1"/>
        <pt x="456" y="1693" on="1"/>
        <pt x="516" y="1650" on="1"/>
        <pt x="516" y="1343" on="1"/>
        <pt x="738" y="1343" on="1"/>
        <pt x="738" y="1216" on="1"/>
        <pt x="517" y="1216" on="1"/>
        <pt x="517" y="1157" on="1"/>
        <pt x="500" y="933" on="1"/>
        <pt x="531" y="961" on="0"/>
        <pt x="616" y="1014" on="0"/>
        <pt x="717" y="1053" on="0"/>
        <pt x="831" y="1077" on="0"/>
        <pt x="891" y="1077" on="1"/>
        <pt x="982" y="1077" on="0"/>
        <pt x="1108" y="1028" on="0"/>
        <pt x="1186" y="922" on="0"/>
        <pt x="1220" y="753" on="0"/>
        <pt x="1220" y="632" on="1"/>
        <pt x="1220" y="21" on="1"/>
        <pt x="1220" y="-107" on="0"/>
        <pt x="1164" y="-308" on="0"/>
        <pt x="1053" y="-449" on="0"/>
        <pt x="889" y="-527" on="0"/>
        <pt x="780" y="-530" on="1"/>
        <pt x="774" y="-530" on="0"/>
        <pt x="741" y="-530" on="0"/>
        <pt x="705" y="-529" on="0"/>
        <pt x="674" y="-525" on="0"/>
        <pt x="670" y="-522" on="1"/>
        <pt x="660" y="-386" on="1"/>
        <pt x="668" y="-386" on="0"/>
        <pt x="696" y="-383" on="0"/>
        <pt x="727" y="-377" on="0"/>
        <pt x="757" y="-369" on="0"/>
        <pt x="768" y="-364" on="1"/>
        <pt x="811" y="-346" on="0"/>
        <pt x="860" y="-268" on="0"/>
        <pt x="884" y="-160" on="0"/>
        <pt x="890" y="-27" on="0"/>
        <pt x="890" y="45" on="1"/>
        <pt x="890" y="633" on="1"/>
        <pt x="890" y="701" on="0"/>
        <pt x="876" y="796" on="0"/>
        <pt x="840" y="856" on="0"/>
        <pt x="778" y="884" on="0"/>
        <pt x="730" y="884" on="1"/>
        <pt x="698" y="884" on="0"/>
        <pt x="638" y="870" on="0"/>
        <pt x="583" y="846" on="0"/>
        <pt x="534" y="817" on="0"/>
        <pt x="515" y="802" on="1"/>
        <pt x="515" y="154" on="1"/>
        <pt x="634" y="133" on="1"/>
        <pt x="634" y="0" on="1"/>
        <pt x="80" y="0" on="1"/>
        <pt x="80" y="134" on="1"/>
        <pt x="192" y="153" on="1"/>
        <pt x="192" y="1216" on="1"/>
        <pt x="17" y="1216" on="1"/>
      </contour>
    </TTGlyph>
    <TTGlyph name="afii10100" xMin="77" yMin="0" xMax="1038" yMax="1837">
      <component glyphName="acute" x="200" y="0" flags="0x4"/>
      <component glyphName="afii10068" x="3" y="0" flags="0x4"/>
    </TTGlyph>
    <TTGlyph name="afii10101" xMin="50" yMin="-23" xMax="1011" yMax="1170">
      <contour>
        <pt x="400" y="511" on="1"/>
        <pt x="407" y="407" on="0"/>
        <pt x="450" y="261" on="0"/>
        <pt x="518" y="168" on="0"/>
        <pt x="608" y="126" on="0"/>
        <pt x="662" y="126" on="1"/>
        <pt x="704" y="126" on="0"/>
        <pt x="778" y="142" on="0"/>
        <pt x="810" y="154" on="1"/>
        <pt x="856" y="309" on="1"/>
        <pt x="1011" y="309" on="1"/>
        <pt x="1003" y="93" on="1"/>
        <pt x="974" y="69" on="0"/>
        <pt x="890" y="27" on="0"/>
        <pt x="785" y="-5" on="0"/>
        <pt x="663" y="-23" on="0"/>
        <pt x="595" y="-23" on="1"/>
        <pt x="455" y="-23" on="0"/>
        <pt x="250" y="62" on="0"/>
        <pt x="117" y="219" on="0"/>
        <pt x="52" y="441" on="0"/>
        <pt x="51" y="578" on="1"/>
        <pt x="50" y="714" on="0"/>
        <pt x="144" y="933" on="0"/>
        <pt x="306" y="1087" on="0"/>
        <pt x="522" y="1170" on="0"/>
        <pt x="643" y="1170" on="1"/>
        <pt x="692" y="1170" on="0"/>
        <pt x="799" y="1159" on="0"/>
        <pt x="898" y="1142" on="0"/>
        <pt x="979" y="1121" on="0"/>
        <pt x="1002" y="1112" on="1"/>
        <pt x="996" y="843" on="1"/>
        <pt x="816" y="843" on="1"/>
        <pt x="775" y="970" on="1"/>
        <pt x="755" y="996" on="0"/>
        <pt x="691" y="1032" on="0"/>
        <pt x="634" y="1032" on="1"/>
        <pt x="527" y="1032" on="0"/>
        <pt x="405" y="850" on="0"/>
        <pt x="398" y="663" on="1"/>
        <pt x="845" y="675" on="1"/>
        <pt x="845" y="498" on="1"/>
      </contour>
    </TTGlyph>
    <TTGlyph name="afii10102" xMin="112" yMin="-23" xMax="1019" yMax="1164">
      <component glyphName="s" x="7" y="0" flags="0x4"/>
    </TTGlyph>
    <TTGlyph name="afii10103" xMin="79" yMin="0" xMax="668" yMax="1685">
      <component glyphName="dotlessi" x="3" y="0" flags="0x4"/>
      <component glyphName="dotaccent" x="81" y="0" flags="0x4"/>
    </TTGlyph>
    <TTGlyph name="afii10104" xMin="-65" yMin="0" xMax="779" yMax="1688">
      <component glyphName="dieresis" x="-155" y="0" flags="0x4"/>
      <component glyphName="dotlessi" x="3" y="0" flags="0x4"/>
    </TTGlyph>
    <TTGlyph name="afii10105" xMin="-19" yMin="-498" xMax="549" yMax="1685">
      <component glyphName="dotlessj" x="0" y="0" flags="0x4"/>
      <component glyphName="dotaccent" x="77" y="0" flags="0x4"/>
    </TTGlyph>
</ttFont>
